<svg id="Layer_1" data-name="Layer 1" xmlns="http://www.w3.org/2000/svg" width="442" height="363.33" viewBox="0 0 442 363.33">
  <g>
    <g>
      <path d="M185.41,116.56a5.57,5.57,0,0,1-2.75-.67,4.84,4.84,0,0,1-1.95-2,6.61,6.61,0,0,1,0-6,4.87,4.87,0,0,1,1.95-2,5.68,5.68,0,0,1,2.75-.66,5.47,5.47,0,0,1,2.83.73,4.73,4.73,0,0,1,1.92,2l-1,.44a4,4,0,0,0-1.54-1.59,4.76,4.76,0,0,0-3.91-.24,4.14,4.14,0,0,0-1.38.87,4,4,0,0,0-.93,1.45,5.45,5.45,0,0,0-.34,1.94,5.56,5.56,0,0,0,.34,2,4,4,0,0,0,.93,1.44,4.33,4.33,0,0,0,1.38.88,4.7,4.7,0,0,0,1.69.31,4.46,4.46,0,0,0,2.22-.56,3.87,3.87,0,0,0,1.54-1.59l1,.44a4.81,4.81,0,0,1-1.92,2A5.47,5.47,0,0,1,185.41,116.56Z"/>
      <path d="M195.48,116.56a3.8,3.8,0,0,1-1.9-.48,3.52,3.52,0,0,1-1.34-1.39,4.35,4.35,0,0,1-.49-2.11,3.94,3.94,0,0,1,1.05-2.86,3.57,3.57,0,0,1,2.68-1.09,3.53,3.53,0,0,1,2.66,1.09,3.94,3.94,0,0,1,1.05,2.86,4,4,0,0,1-1.05,2.89A3.53,3.53,0,0,1,195.48,116.56Zm-1.92-1.76a2.59,2.59,0,0,0,3.82,0,3.17,3.17,0,0,0,.77-2.22,3.14,3.14,0,0,0-.77-2.2,2.61,2.61,0,0,0-3.82,0,3.18,3.18,0,0,0-.76,2.2A3.21,3.21,0,0,0,193.56,114.8Z"/>
      <path d="M204.77,108.63a2.54,2.54,0,0,1,1.85.69,2.61,2.61,0,0,1,.71,2v5.14h-1.06v-4.9a2,2,0,0,0-.49-1.48,1.76,1.76,0,0,0-1.27-.48,1.88,1.88,0,0,0-1.42.56,2.23,2.23,0,0,0-.55,1.61v4.69h-1.06v-7.64h1.06v1A2.44,2.44,0,0,1,204.77,108.63Z"/>
      <path d="M215.83,104.29h1v12.12h-1l0-1.66a3.18,3.18,0,0,1-1.14,1.32,3,3,0,0,1-1.68.5,3.37,3.37,0,0,1-1.37-.29,3.47,3.47,0,0,1-1.13-.8,3.73,3.73,0,0,1-.75-1.26,4.86,4.86,0,0,1,0-3.25,3.71,3.71,0,0,1,.76-1.25,3.37,3.37,0,0,1,1.13-.8,3.32,3.32,0,0,1,1.36-.29,3.07,3.07,0,0,1,1.68.48,3.12,3.12,0,0,1,1.14,1.3Zm-2.61,11.33a2.45,2.45,0,0,0,1.9-.87,3.19,3.19,0,0,0,.77-2.16,3.14,3.14,0,0,0-.78-2.15,2.46,2.46,0,0,0-1.89-.88,2.52,2.52,0,0,0-1.91.85,3.47,3.47,0,0,0,0,4.36A2.49,2.49,0,0,0,213.22,115.62Z"/>
      <path d="M220.91,106.52a.76.76,0,0,1-.56.24.77.77,0,0,1-.56-.24.8.8,0,0,1-.23-.56.77.77,0,0,1,.23-.56.8.8,0,0,1,.56-.23.79.79,0,0,1,.56.23.77.77,0,0,1,.23.56A.8.8,0,0,1,220.91,106.52Zm-1.1,9.89v-7.64h1.06v7.64Z"/>
      <path d="M226.86,116.54a3.51,3.51,0,0,1-2.65-1.09,4.4,4.4,0,0,1,0-5.73,3.77,3.77,0,0,1,4.77-.44,3.35,3.35,0,0,1,1.29,1.77l-1,.2a2.55,2.55,0,0,0-.94-1.25,2.6,2.6,0,0,0-3.37.38,3.62,3.62,0,0,0,0,4.41,2.46,2.46,0,0,0,1.9.84,2.51,2.51,0,0,0,1.47-.45,2.59,2.59,0,0,0,.94-1.25l1,.19A3.41,3.41,0,0,1,229,115.9,3.57,3.57,0,0,1,226.86,116.54Z"/>
      <path d="M233.51,106.52a.74.74,0,0,1-.55.24.76.76,0,0,1-.56-.24.77.77,0,0,1-.24-.56.74.74,0,0,1,.24-.56.79.79,0,0,1,.56-.23.76.76,0,0,1,.55.23.74.74,0,0,1,.24.56A.77.77,0,0,1,233.51,106.52Zm-1.1,9.89v-7.64h1.07v7.64Z"/>
      <path d="M239.5,116.56a3.77,3.77,0,0,1-1.89-.48,3.52,3.52,0,0,1-1.34-1.39,4.36,4.36,0,0,1-.5-2.11,3.94,3.94,0,0,1,1.06-2.86,3.82,3.82,0,0,1,5.34,0,3.94,3.94,0,0,1,1.05,2.86,4,4,0,0,1-1.05,2.89A3.55,3.55,0,0,1,239.5,116.56Zm-1.91-1.76a2.59,2.59,0,0,0,3.82,0,3.17,3.17,0,0,0,.77-2.22,3.14,3.14,0,0,0-.77-2.2,2.61,2.61,0,0,0-3.82,0,3.13,3.13,0,0,0-.76,2.2A3.17,3.17,0,0,0,237.59,114.8Zm1.45-7.43,2-2.47.59.45-1.76,2Z"/>
      <path d="M248.8,108.63a2.54,2.54,0,0,1,1.85.69,2.61,2.61,0,0,1,.71,2v5.14H250.3v-4.9a2,2,0,0,0-.49-1.48,1.78,1.78,0,0,0-1.27-.48,1.88,1.88,0,0,0-1.42.56,2.18,2.18,0,0,0-.55,1.61v4.69h-1.06v-7.64h1.06v1A2.44,2.44,0,0,1,248.8,108.63Z"/>
    </g>
    <g>
      <path d="M176.79,230.25a5.64,5.64,0,0,1-2.76-.67,4.88,4.88,0,0,1-1.94-2,6.61,6.61,0,0,1,0-6,4.91,4.91,0,0,1,1.94-2,6,6,0,0,1,4.88-.27,5.22,5.22,0,0,1,1.72,1.1,5,5,0,0,1,1.15,1.79,6.4,6.4,0,0,1,.43,2.36,6.5,6.5,0,0,1-.43,2.38,4.93,4.93,0,0,1-1.15,1.78,5.09,5.09,0,0,1-1.72,1.11A5.74,5.74,0,0,1,176.79,230.25Zm-1.7-1.37a4.55,4.55,0,0,0,1.7.31,4.44,4.44,0,0,0,1.68-.31,3.91,3.91,0,0,0,1.37-.87,4.16,4.16,0,0,0,.93-1.46,5.52,5.52,0,0,0,.33-2,5.45,5.45,0,0,0-.33-1.94,4,4,0,0,0-.93-1.45,3.91,3.91,0,0,0-1.37-.87,4.44,4.44,0,0,0-1.68-.31,4.55,4.55,0,0,0-1.7.31,4,4,0,0,0-1.37.87,3.78,3.78,0,0,0-.93,1.45,5.23,5.23,0,0,0-.34,1.94,5.3,5.3,0,0,0,.34,2,3.9,3.9,0,0,0,.93,1.46A4,4,0,0,0,175.09,228.88Z"/>
      <path d="M188.59,222.32a3.32,3.32,0,0,1,2.51,1.09,4.56,4.56,0,0,1,0,5.75,3.29,3.29,0,0,1-2.51,1.1,3,3,0,0,1-1.66-.49,3.18,3.18,0,0,1-1.14-1.3V234h-1.07V222.46h1l0,1.65a3.12,3.12,0,0,1,1.14-1.3A3,3,0,0,1,188.59,222.32Zm-.19,7a2.49,2.49,0,0,0,1.89-.83,3.14,3.14,0,0,0,.77-2.2,3.09,3.09,0,0,0-.77-2.18,2.55,2.55,0,0,0-3.8,0,3.1,3.1,0,0,0-.78,2.14,3.15,3.15,0,0,0,.78,2.16A2.49,2.49,0,0,0,188.4,229.31Z"/>
      <path d="M200.93,226.11l0,.32h-6.08a3,3,0,0,0,.78,2.15,2.55,2.55,0,0,0,1.87.75,2.41,2.41,0,0,0,1.36-.4,2.6,2.6,0,0,0,1-1.09l.95.24a3.57,3.57,0,0,1-1.3,1.59,3.49,3.49,0,0,1-1.95.58,3.56,3.56,0,0,1-2.66-1.07,4,4,0,0,1-1-2.9,4.72,4.72,0,0,1,.28-1.67,3.35,3.35,0,0,1,.77-1.25,3.51,3.51,0,0,1,1.16-.77,3.72,3.72,0,0,1,1.46-.28,3.32,3.32,0,0,1,2.5,1A3.9,3.9,0,0,1,200.93,226.11Zm-3.45-2.94a2.52,2.52,0,0,0-1.74.63,2.8,2.8,0,0,0-.87,1.79h5a2.57,2.57,0,0,0-.72-1.8A2.29,2.29,0,0,0,197.48,223.17Z"/>
      <path d="M204.26,223.87a2.25,2.25,0,0,1,.93-1.07,2.79,2.79,0,0,1,1.46-.41v1a2.45,2.45,0,0,0-1.76.6,2.51,2.51,0,0,0-.62,1.87v4.2h-1.06v-7.64h1Z"/>
      <path d="M210,230.25a2.52,2.52,0,0,1-1.66-.53,1.93,1.93,0,0,1-.65-1.57,2.28,2.28,0,0,1,.2-1,1.81,1.81,0,0,1,.6-.69,3.86,3.86,0,0,1,.89-.43,7.16,7.16,0,0,1,1.18-.27l1.28-.2a.69.69,0,0,0,.66-.72,1.54,1.54,0,0,0-.5-1.26,2.05,2.05,0,0,0-1.31-.41,2.12,2.12,0,0,0-1.27.37,1.5,1.5,0,0,0-.6,1.1l-1-.23a2.25,2.25,0,0,1,.92-1.57,3.37,3.37,0,0,1,1.95-.53,3.73,3.73,0,0,1,1.09.15,2.56,2.56,0,0,1,.89.44,2,2,0,0,1,.62.81,3,3,0,0,1,.23,1.2v3.29a1.38,1.38,0,0,0,.18.85.79.79,0,0,0,.63.22h.12v.81h-.55a1.22,1.22,0,0,1-1.37-1h0A3,3,0,0,1,210,230.25Zm.24-.88a2.07,2.07,0,0,0,1.72-.82,3.58,3.58,0,0,0,.64-2.28l-2.07.37a3,3,0,0,0-1.35.47,1.13,1.13,0,0,0-.44,1,1.16,1.16,0,0,0,.42,1A1.71,1.71,0,0,0,210.19,229.37Z"/>
      <path d="M219.37,230.23a3.51,3.51,0,0,1-2.65-1.09,4.4,4.4,0,0,1,0-5.73,3.77,3.77,0,0,1,4.77-.44,3.35,3.35,0,0,1,1.29,1.77l-1,.2a2.55,2.55,0,0,0-.94-1.25,2.6,2.6,0,0,0-3.37.38,3.62,3.62,0,0,0,0,4.41,2.46,2.46,0,0,0,1.9.84,2.51,2.51,0,0,0,1.47-.45,2.57,2.57,0,0,0,.94-1.26l1,.2a3.41,3.41,0,0,1-1.29,1.78A3.57,3.57,0,0,1,219.37,230.23Z"/>
      <path d="M226,220.21a.74.74,0,0,1-.55.24.76.76,0,0,1-.56-.24.77.77,0,0,1-.24-.56.74.74,0,0,1,.24-.56.79.79,0,0,1,.56-.23.76.76,0,0,1,.55.23.74.74,0,0,1,.24.56A.77.77,0,0,1,226,220.21Zm-1.1,9.89v-7.64H226v7.64Z"/>
      <path d="M232,230.25a3.8,3.8,0,0,1-1.9-.48,3.52,3.52,0,0,1-1.34-1.39,4.36,4.36,0,0,1-.5-2.11,3.94,3.94,0,0,1,1.06-2.86,3.57,3.57,0,0,1,2.68-1.09,3.53,3.53,0,0,1,2.66,1.09,3.94,3.94,0,0,1,1,2.86,4,4,0,0,1-1,2.89A3.57,3.57,0,0,1,232,230.25Zm-1.92-1.76a2.59,2.59,0,0,0,3.82,0,3.17,3.17,0,0,0,.77-2.22,3.14,3.14,0,0,0-.77-2.2,2.61,2.61,0,0,0-3.82,0,3.18,3.18,0,0,0-.76,2.2A3.21,3.21,0,0,0,230.1,228.49Z"/>
      <path d="M241.31,222.32a2.54,2.54,0,0,1,1.85.69,2.61,2.61,0,0,1,.71,2v5.14h-1.06v-4.9a2,2,0,0,0-.49-1.48,1.76,1.76,0,0,0-1.27-.48,1.88,1.88,0,0,0-1.42.56,2.23,2.23,0,0,0-.55,1.61v4.69H238v-7.64h1.06v1A2.44,2.44,0,0,1,241.31,222.32Z"/>
      <path d="M253.15,226.11l0,.32h-6.07a3,3,0,0,0,.77,2.15,2.57,2.57,0,0,0,1.88.75,2.43,2.43,0,0,0,1.36-.4,2.75,2.75,0,0,0,1-1.09l.94.24a3.57,3.57,0,0,1-1.3,1.59,3.49,3.49,0,0,1-1.95.58,3.56,3.56,0,0,1-2.66-1.07,4,4,0,0,1-1-2.9,5,5,0,0,1,.28-1.67,3.63,3.63,0,0,1,.77-1.25,3.45,3.45,0,0,1,1.17-.77,3.64,3.64,0,0,1,1.45-.28,3.29,3.29,0,0,1,2.5,1A3.9,3.9,0,0,1,253.15,226.11Zm-3.45-2.94a2.52,2.52,0,0,0-1.74.63,2.74,2.74,0,0,0-.86,1.79h5a2.57,2.57,0,0,0-.71-1.8A2.33,2.33,0,0,0,249.7,223.17Z"/>
      <path d="M257.75,230.25a3.44,3.44,0,0,1-2-.56,2.27,2.27,0,0,1-1-1.56l.94-.28a1.71,1.71,0,0,0,.66,1.13,2.11,2.11,0,0,0,1.35.42,2.55,2.55,0,0,0,.81-.12,1.3,1.3,0,0,0,.63-.43,1.23,1.23,0,0,0,.13-1.24,1.14,1.14,0,0,0-.26-.35,2,2,0,0,0-.42-.25l-.52-.2-.63-.18-.26-.07-.66-.21a4.14,4.14,0,0,1-.59-.27,1.92,1.92,0,0,1-.51-.37,2.07,2.07,0,0,1-.32-.53,1.92,1.92,0,0,1-.13-.74,1.81,1.81,0,0,1,.73-1.57,3.07,3.07,0,0,1,1.85-.54,3.22,3.22,0,0,1,1.82.5,2.13,2.13,0,0,1,.9,1.49l-.91.24a1.53,1.53,0,0,0-.61-1.05,2,2,0,0,0-1.18-.36,2.12,2.12,0,0,0-.57.07,2.28,2.28,0,0,0-.51.21,1.15,1.15,0,0,0-.37.39,1.11,1.11,0,0,0-.14.58,1,1,0,0,0,.06.36,1.36,1.36,0,0,0,.13.27.81.81,0,0,0,.25.23l.28.17.37.14.38.11.43.11.74.2a6.65,6.65,0,0,1,.66.27,2.16,2.16,0,0,1,.6.4,1.76,1.76,0,0,1,.37.57,1.94,1.94,0,0,1,.16.82,1.9,1.9,0,0,1-.77,1.65A3.21,3.21,0,0,1,257.75,230.25Z"/>
    </g>
    <g>
      <path d="M242.38,164.57h1.16l-4,11h-1.07l-4-11h1.14l3.42,9.57Z"/>
      <path d="M251.25,171.58l0,.32h-6.08a3,3,0,0,0,.78,2.15,2.55,2.55,0,0,0,1.87.75,2.41,2.41,0,0,0,1.36-.4,2.6,2.6,0,0,0,1-1.09l.95.24a3.57,3.57,0,0,1-1.3,1.59,3.41,3.41,0,0,1-2,.58,3.56,3.56,0,0,1-2.66-1.07,4,4,0,0,1-1-2.9,4.72,4.72,0,0,1,.28-1.67,3.35,3.35,0,0,1,.77-1.25,3.51,3.51,0,0,1,1.16-.77,3.87,3.87,0,0,1,1.46-.28,3.32,3.32,0,0,1,2.5,1A3.9,3.9,0,0,1,251.25,171.58Zm-3.45-2.94a2.52,2.52,0,0,0-1.74.63,2.8,2.8,0,0,0-.87,1.79h5a2.57,2.57,0,0,0-.72-1.8A2.29,2.29,0,0,0,247.8,168.64Z"/>
      <path d="M254.58,169.34a2.25,2.25,0,0,1,.93-1.07,2.79,2.79,0,0,1,1.46-.41v1a2.45,2.45,0,0,0-1.76.6,2.51,2.51,0,0,0-.62,1.87v4.2h-1.06v-7.64h1.05Z"/>
      <path d="M264.26,163.45h1.05v12.12h-1l0-1.66a3.18,3.18,0,0,1-1.14,1.32,3,3,0,0,1-1.68.5,3.37,3.37,0,0,1-1.37-.29,3.47,3.47,0,0,1-1.13-.8,3.73,3.73,0,0,1-.75-1.26,4.86,4.86,0,0,1,0-3.25,3.71,3.71,0,0,1,.76-1.25,3.47,3.47,0,0,1,1.13-.8,3.32,3.32,0,0,1,1.36-.29,3.06,3.06,0,0,1,2.82,1.79Zm-2.61,11.33a2.45,2.45,0,0,0,1.9-.87,3.19,3.19,0,0,0,.77-2.16,3.14,3.14,0,0,0-.78-2.15,2.44,2.44,0,0,0-1.89-.88,2.48,2.48,0,0,0-1.9.85,3.44,3.44,0,0,0,0,4.36A2.45,2.45,0,0,0,261.65,174.78Z"/>
      <path d="M270,175.72a2.54,2.54,0,0,1-1.66-.53,1.93,1.93,0,0,1-.65-1.57,2.15,2.15,0,0,1,.21-1,1.71,1.71,0,0,1,.59-.69,3.74,3.74,0,0,1,.9-.43,7,7,0,0,1,1.17-.27l1.28-.2a.7.7,0,0,0,.67-.72,1.51,1.51,0,0,0-.51-1.26,2.31,2.31,0,0,0-2.57,0,1.48,1.48,0,0,0-.61,1.11l-1-.24a2.25,2.25,0,0,1,.92-1.57,3.37,3.37,0,0,1,1.95-.53,3.73,3.73,0,0,1,1.09.15,2.56,2.56,0,0,1,.89.44,2,2,0,0,1,.62.81,3,3,0,0,1,.23,1.2v3.29a1.31,1.31,0,0,0,.19.85.75.75,0,0,0,.62.22h.13v.81h-.56a1.22,1.22,0,0,1-1.37-1h0A3,3,0,0,1,270,175.72Zm.24-.88a2.1,2.1,0,0,0,1.73-.82,3.64,3.64,0,0,0,.63-2.28l-2.07.37a3,3,0,0,0-1.35.47,1.13,1.13,0,0,0-.44,1,1.16,1.16,0,0,0,.42,1A1.71,1.71,0,0,0,270.21,174.84Z"/>
      <path d="M282.05,163.45h1.06v12.12h-1v-1.66a3.2,3.2,0,0,1-1.15,1.32,3,3,0,0,1-1.67.5,3.38,3.38,0,0,1-1.38-.29,3.43,3.43,0,0,1-1.12-.8,3.75,3.75,0,0,1-.76-1.26,4.77,4.77,0,0,1,0-3.25,3.55,3.55,0,0,1,.76-1.25,3.33,3.33,0,0,1,1.12-.8,3.37,3.37,0,0,1,1.37-.29,3,3,0,0,1,1.67.48,3.09,3.09,0,0,1,1.14,1.31Zm-2.6,11.33a2.43,2.43,0,0,0,1.89-.87,3.4,3.4,0,0,0,0-4.31,2.46,2.46,0,0,0-1.89-.88,2.49,2.49,0,0,0-1.91.85,3.47,3.47,0,0,0,0,4.36A2.46,2.46,0,0,0,279.45,174.78Z"/>
      <path d="M292.54,171.58l0,.32h-6.08a3,3,0,0,0,.78,2.15,2.55,2.55,0,0,0,1.87.75,2.46,2.46,0,0,0,1.37-.4,2.65,2.65,0,0,0,1-1.09l.95.24a3.57,3.57,0,0,1-1.3,1.59,3.41,3.41,0,0,1-1.95.58,3.56,3.56,0,0,1-2.66-1.07,4,4,0,0,1-1-2.9,4.72,4.72,0,0,1,.28-1.67,3.31,3.31,0,0,1,1.94-2,3.82,3.82,0,0,1,1.45-.28,3.31,3.31,0,0,1,2.5,1A3.9,3.9,0,0,1,292.54,171.58Zm-3.45-2.94a2.52,2.52,0,0,0-1.74.63,2.8,2.8,0,0,0-.87,1.79h5a2.61,2.61,0,0,0-.71-1.8A2.33,2.33,0,0,0,289.09,168.64Z"/>
      <path d="M295.87,169.34a2.25,2.25,0,0,1,.93-1.07,2.79,2.79,0,0,1,1.46-.41v1a2.41,2.41,0,0,0-1.75.6,2.47,2.47,0,0,0-.63,1.87v4.2h-1.06v-7.64h1.05Z"/>
      <path d="M302.93,175.72a3.74,3.74,0,0,1-1.89-.48,3.45,3.45,0,0,1-1.34-1.39,4.25,4.25,0,0,1-.5-2.11,3.9,3.9,0,0,1,1.06-2.86,3.82,3.82,0,0,1,5.34,0,4.48,4.48,0,0,1,0,5.75A3.53,3.53,0,0,1,302.93,175.72ZM301,174a2.45,2.45,0,0,0,1.9.84,2.48,2.48,0,0,0,1.91-.84,3.13,3.13,0,0,0,.77-2.22,3.09,3.09,0,0,0-.77-2.2,2.51,2.51,0,0,0-1.91-.83,2.47,2.47,0,0,0-1.9.83,3.13,3.13,0,0,0-.76,2.2A3.17,3.17,0,0,0,301,174Z"/>
    </g>
    <path d="M216.08,155.37l-83.87-44.64,83.87-43.56,83.3,44.1Zm-79.57-44.62,79.57,42.35,79-41.83-79-41.84Z"/>
    <rect x="214.8" y="154.24" width="2" height="42.67"/>
    <path d="M292.22,252.42H139.38V200.64H292.22Zm-150.84-2H290.22V202.64H141.38Z"/>
    <polygon points="215.8 198.21 212.84 193.08 209.88 187.95 215.8 187.95 221.73 187.95 218.76 193.08 215.8 198.21"/>
    <rect x="214.8" y="24.32" width="2" height="42.67"/>
    <polygon points="215.8 68.3 212.84 63.16 209.88 58.03 215.8 58.03 221.73 58.03 218.76 63.16 215.8 68.3"/>
    <polygon points="215.8 339.01 212.84 333.88 209.88 328.75 215.8 328.75 221.73 328.75 218.76 333.88 215.8 339.01"/>
    <polygon points="206.32 39.95 201.19 42.92 196.06 45.88 196.06 39.95 196.06 34.03 201.19 36.99 206.32 39.95"/>
    <polygon points="216.8 289.25 94.07 289.25 94.07 38.95 196.41 38.95 196.41 40.95 96.07 40.95 96.07 287.25 214.8 287.25 214.8 251.42 216.8 251.42 216.8 289.25"/>
    <polygon points="216.8 333.88 214.8 333.88 214.8 306.81 345.93 306.81 345.93 112.27 297.25 112.27 297.25 110.27 347.93 110.27 347.93 308.81 216.8 308.81 216.8 333.88"/>
  </g>
</svg>
