<svg xmlns="http://www.w3.org/2000/svg" width="419.612" height="334" viewBox="0 0 419.612 334">
  <g id="Grupo_12161" data-name="Grupo 12161" transform="translate(-7860.388 -203)">
    <path id="Trazado_11106" data-name="Trazado 11106" d="M0,0H376V71H0Z" transform="translate(7904 203)" fill="#e6eef3"/>
    <path id="Trazado_11107" data-name="Trazado 11107" d="M0,0H206V71H0Z" transform="translate(7989 324)" fill="#e6eef3"/>
    <g id="Grupo_12157" data-name="Grupo 12157" transform="translate(801 4890)">
      <path id="Trazado_9565" data-name="Trazado 9565" d="M853-4880h27" transform="translate(2411.5 -5463.5) rotate(90)" fill="none" stroke="#cbd9e4" stroke-width="3"/>
      <path id="Polígono_13" data-name="Polígono 13" d="M8.5,0,17,14H0Z" transform="translate(7300 -4576) rotate(180)" fill="#cbd9e4"/>
    </g>
    <g id="Grupo_12158" data-name="Grupo 12158" transform="translate(801 5016)">
      <path id="Trazado_9565-2" data-name="Trazado 9565" d="M853-4880h27" transform="translate(2411.5 -5463.5) rotate(90)" fill="none" stroke="#cbd9e4" stroke-width="3"/>
      <path id="Polígono_13-2" data-name="Polígono 13" d="M8.5,0,17,14H0Z" transform="translate(7300 -4576) rotate(180)" fill="#cbd9e4"/>
    </g>
    <g id="Grupo_12159" data-name="Grupo 12159" transform="translate(801 5113)">
      <path id="Trazado_9565-3" data-name="Trazado 9565" d="M853-4880h27" transform="translate(2411.5 -5463.5) rotate(90)" fill="none" stroke="#cbd9e4" stroke-width="3"/>
      <path id="Polígono_13-3" data-name="Polígono 13" d="M8.5,0,17,14H0Z" transform="translate(7300 -4576) rotate(180)" fill="#cbd9e4"/>
    </g>
    <path id="Trazado_11108" data-name="Trazado 11108" d="M8.5,0,17,14H0Z" transform="translate(7893.5 225.5) rotate(90)" fill="#cbd9e4"/>
    <path id="Trazado_11109" data-name="Trazado 11109" d="M18,0A18,18,0,1,1,0,18,18,18,0,0,1,18,0Z" transform="translate(8074 449)" fill="#014c7f"/>
    <path id="Trazado_11110" data-name="Trazado 11110" d="M51.1,17V4.625H52.67V17Zm9.141-8.807a3.005,3.005,0,0,1,2.175.782,2.918,2.918,0,0,1,.813,2.206V17H61.706V11.524a2.043,2.043,0,0,0-.527-1.547,1.885,1.885,0,0,0-1.354-.5,2.09,2.09,0,0,0-1.538.593,2.407,2.407,0,0,0-.606,1.762V17H56.16V8.36H57.68V9.468A2.885,2.885,0,0,1,60.238,8.193Zm6.7-1.863A1.035,1.035,0,0,1,65.907,5.3a.975.975,0,0,1,.3-.721,1,1,0,0,1,.725-.3.987.987,0,0,1,.716.3.975.975,0,0,1,.3.721.989.989,0,0,1-.3.725A.979.979,0,0,1,66.935,6.33ZM66.162,17V8.36h1.529V17Zm8.209.158a4.161,4.161,0,0,1-3.094-1.239,4.421,4.421,0,0,1-1.222-3.243,4.43,4.43,0,0,1,1.217-3.243,4.5,4.5,0,0,1,5.6-.483,3.815,3.815,0,0,1,1.455,2.1l-1.424.229a2.63,2.63,0,0,0-.976-1.345,2.656,2.656,0,0,0-1.564-.475,2.554,2.554,0,0,0-2,.888,3.382,3.382,0,0,0-.787,2.329A3.365,3.365,0,0,0,72.362,15a2.56,2.56,0,0,0,2,.883,2.656,2.656,0,0,0,1.564-.475,2.63,2.63,0,0,0,.976-1.345l1.424.237a3.819,3.819,0,0,1-1.463,2.1A4.185,4.185,0,0,1,74.371,17.158ZM81.34,6.33A1.035,1.035,0,0,1,80.312,5.3a.975.975,0,0,1,.3-.721,1,1,0,0,1,.725-.3.987.987,0,0,1,.716.3.975.975,0,0,1,.3.721.989.989,0,0,1-.3.725A.979.979,0,0,1,81.34,6.33ZM80.567,17V8.36H82.1V17Zm6.618.167a2.94,2.94,0,0,1-1.894-.593,2.13,2.13,0,0,1-.743-1.771,2.517,2.517,0,0,1,.237-1.129,1.991,1.991,0,0,1,.7-.787A4.218,4.218,0,0,1,86.5,12.4a9.384,9.384,0,0,1,1.314-.312l1.4-.229q.765-.141.765-.8a1.51,1.51,0,0,0-.541-1.288,2.2,2.2,0,0,0-1.367-.409,2.243,2.243,0,0,0-1.354.4,1.655,1.655,0,0,0-.642,1.213l-1.371-.29a2.639,2.639,0,0,1,1.081-1.85,4.039,4.039,0,0,1,2.355-.62,4.777,4.777,0,0,1,1.252.154,3.4,3.4,0,0,1,1.046.483,2.168,2.168,0,0,1,.747.932,3.466,3.466,0,0,1,.268,1.419v3.568a1.46,1.46,0,0,0,.2.9.854.854,0,0,0,.681.233h.141V17H91.72a1.442,1.442,0,0,1-1.635-1.169h-.07A3.3,3.3,0,0,1,87.185,17.167Zm.352-1.23a2.305,2.305,0,0,0,1.854-.835,3.438,3.438,0,0,0,.7-2.285l-2.285.439a3.076,3.076,0,0,0-1.34.479,1.114,1.114,0,0,0-.435.945,1.1,1.1,0,0,0,.417.949A1.785,1.785,0,0,0,87.537,15.937ZM94.621,17V3.5h1.538V17Zm5.405-10.67A1.035,1.035,0,0,1,99,5.3a.975.975,0,0,1,.3-.721,1,1,0,0,1,.725-.3.987.987,0,0,1,.716.3.975.975,0,0,1,.3.721.989.989,0,0,1-.3.725A.979.979,0,0,1,100.026,6.33ZM99.252,17V8.36h1.529V17Zm5.818-1.23h4.605V17h-6.891l4.553-7.4h-4.289V8.36h6.618Zm8.4,1.4a2.94,2.94,0,0,1-1.894-.593,2.13,2.13,0,0,1-.743-1.771,2.517,2.517,0,0,1,.237-1.129,1.991,1.991,0,0,1,.7-.787,4.218,4.218,0,0,1,1.015-.488,9.384,9.384,0,0,1,1.314-.312l1.4-.229q.765-.141.765-.8a1.51,1.51,0,0,0-.541-1.288,2.2,2.2,0,0,0-1.367-.409,2.243,2.243,0,0,0-1.354.4,1.655,1.655,0,0,0-.642,1.213l-1.371-.29a2.639,2.639,0,0,1,1.081-1.85,4.039,4.039,0,0,1,2.355-.62,4.777,4.777,0,0,1,1.252.154,3.4,3.4,0,0,1,1.046.483,2.168,2.168,0,0,1,.747.932,3.466,3.466,0,0,1,.268,1.419v3.568a1.46,1.46,0,0,0,.2.9.854.854,0,0,0,.681.233h.141V17h-.756a1.442,1.442,0,0,1-1.635-1.169h-.07A3.3,3.3,0,0,1,113.473,17.167Zm.352-1.23a2.305,2.305,0,0,0,1.854-.835,3.438,3.438,0,0,0,.7-2.285l-2.285.439a3.076,3.076,0,0,0-1.34.479,1.114,1.114,0,0,0-.435.945,1.1,1.1,0,0,0,.417.949A1.785,1.785,0,0,0,113.825,15.937Zm10.494,1.222a4.161,4.161,0,0,1-3.094-1.239A4.421,4.421,0,0,1,120,12.676a4.43,4.43,0,0,1,1.217-3.243,4.5,4.5,0,0,1,5.6-.483,3.815,3.815,0,0,1,1.455,2.1l-1.424.229a2.63,2.63,0,0,0-.976-1.345,2.656,2.656,0,0,0-1.564-.475,2.554,2.554,0,0,0-2,.888,3.382,3.382,0,0,0-.787,2.329A3.365,3.365,0,0,0,122.311,15a2.56,2.56,0,0,0,2,.883,2.656,2.656,0,0,0,1.564-.475,2.63,2.63,0,0,0,.976-1.345l1.424.237a3.819,3.819,0,0,1-1.463,2.1A4.185,4.185,0,0,1,124.319,17.158Zm6.97-10.828A1.035,1.035,0,0,1,130.26,5.3a.975.975,0,0,1,.3-.721,1,1,0,0,1,.725-.3.987.987,0,0,1,.716.3.975.975,0,0,1,.3.721.989.989,0,0,1-.3.725A.979.979,0,0,1,131.289,6.33ZM130.515,17V8.36h1.529V17ZM138.2,6.875,140.4,4.01l.809.589-1.969,2.276Zm.58,10.292a4.554,4.554,0,0,1-2.215-.536A3.9,3.9,0,0,1,135,15.062a4.819,4.819,0,0,1-.576-2.386,4.4,4.4,0,0,1,1.226-3.256,4.6,4.6,0,0,1,6.253,0,4.41,4.41,0,0,1,1.222,3.256,4.413,4.413,0,0,1-1.226,3.265A4.232,4.232,0,0,1,138.777,17.167Zm-.009-1.266a2.654,2.654,0,0,0,2.043-.888,3.326,3.326,0,0,0,.813-2.338,3.314,3.314,0,0,0-.813-2.329,2.654,2.654,0,0,0-2.043-.888,2.617,2.617,0,0,0-2.026.888,3.336,3.336,0,0,0-.8,2.329,3.348,3.348,0,0,0,.8,2.338A2.617,2.617,0,0,0,138.768,15.9Zm10.819-7.708a3.005,3.005,0,0,1,2.175.782,2.918,2.918,0,0,1,.813,2.206V17h-1.521V11.524a2.043,2.043,0,0,0-.527-1.547,1.885,1.885,0,0,0-1.354-.5,2.09,2.09,0,0,0-1.538.593,2.407,2.407,0,0,0-.606,1.762V17h-1.521V8.36h1.521V9.468A2.885,2.885,0,0,1,149.587,8.193Zm14.186,8.965a4.161,4.161,0,0,1-3.094-1.239,4.421,4.421,0,0,1-1.222-3.243,4.43,4.43,0,0,1,1.217-3.243,4.5,4.5,0,0,1,5.6-.483,3.815,3.815,0,0,1,1.455,2.1l-1.424.229a2.63,2.63,0,0,0-.976-1.345,2.656,2.656,0,0,0-1.564-.475,2.554,2.554,0,0,0-2,.888,3.382,3.382,0,0,0-.787,2.329A3.365,3.365,0,0,0,161.765,15a2.56,2.56,0,0,0,2,.883,2.656,2.656,0,0,0,1.564-.475,2.63,2.63,0,0,0,.976-1.345l1.424.237a3.819,3.819,0,0,1-1.463,2.1A4.185,4.185,0,0,1,163.773,17.158Zm9.835.009a4.554,4.554,0,0,1-2.215-.536,3.9,3.9,0,0,1-1.56-1.569,4.819,4.819,0,0,1-.576-2.386,4.4,4.4,0,0,1,1.226-3.256,4.6,4.6,0,0,1,6.253,0,4.41,4.41,0,0,1,1.222,3.256,4.413,4.413,0,0,1-1.226,3.265A4.232,4.232,0,0,1,173.608,17.167ZM173.6,15.9a2.654,2.654,0,0,0,2.043-.888,3.326,3.326,0,0,0,.813-2.338,3.314,3.314,0,0,0-.813-2.329,2.654,2.654,0,0,0-2.043-.888,2.617,2.617,0,0,0-2.026.888,3.336,3.336,0,0,0-.8,2.329,3.348,3.348,0,0,0,.8,2.338A2.617,2.617,0,0,0,173.6,15.9Zm10.819-7.708a3.005,3.005,0,0,1,2.175.782,2.918,2.918,0,0,1,.813,2.206V17h-1.521V11.524a2.043,2.043,0,0,0-.527-1.547,1.885,1.885,0,0,0-1.354-.5,2.09,2.09,0,0,0-1.538.593,2.407,2.407,0,0,0-.606,1.762V17H180.34V8.36h1.521V9.468A2.885,2.885,0,0,1,184.418,8.193ZM193.1,17a2.271,2.271,0,0,1-1.687-.62,2.344,2.344,0,0,1-.615-1.727V9.573h-1.767V8.36h.65a1.249,1.249,0,0,0,.954-.3,1.492,1.492,0,0,0,.277-1.015V5.478h1.415V8.36h1.986V9.573h-1.986V14.5a1.31,1.31,0,0,0,.33.954,1.154,1.154,0,0,0,.866.338h.791V17Zm5.3.167a2.94,2.94,0,0,1-1.894-.593,2.13,2.13,0,0,1-.743-1.771A2.517,2.517,0,0,1,196,13.673a1.991,1.991,0,0,1,.7-.787,4.218,4.218,0,0,1,1.015-.488,9.384,9.384,0,0,1,1.314-.312l1.4-.229q.765-.141.765-.8a1.51,1.51,0,0,0-.541-1.288,2.2,2.2,0,0,0-1.367-.409,2.243,2.243,0,0,0-1.354.4,1.655,1.655,0,0,0-.642,1.213l-1.371-.29A2.639,2.639,0,0,1,197,8.831a4.039,4.039,0,0,1,2.355-.62,4.777,4.777,0,0,1,1.252.154,3.4,3.4,0,0,1,1.046.483,2.168,2.168,0,0,1,.747.932,3.466,3.466,0,0,1,.268,1.419v3.568a1.46,1.46,0,0,0,.2.9.854.854,0,0,0,.681.233h.141V17h-.756a1.442,1.442,0,0,1-1.635-1.169h-.07A3.3,3.3,0,0,1,198.4,17.167Zm.352-1.23a2.305,2.305,0,0,0,1.854-.835,3.438,3.438,0,0,0,.7-2.285l-2.285.439a3.076,3.076,0,0,0-1.34.479,1.114,1.114,0,0,0-.435.945,1.1,1.1,0,0,0,.417.949A1.785,1.785,0,0,0,198.753,15.937ZM212.042,3.5h1.521V17H212.1l-.035-1.679a3.179,3.179,0,0,1-1.23,1.362,3.429,3.429,0,0,1-1.828.5,3.926,3.926,0,0,1-2.852-1.217,4.16,4.16,0,0,1-.87-1.428,5.225,5.225,0,0,1-.321-1.854,4.543,4.543,0,0,1,1.173-3.243A3.788,3.788,0,0,1,209,8.193a3.443,3.443,0,0,1,1.806.488A3.2,3.2,0,0,1,212.042,10Zm-2.725,12.366a2.587,2.587,0,0,0,2.008-.91,3.283,3.283,0,0,0,.813-2.272,3.277,3.277,0,0,0-.817-2.268,2.586,2.586,0,0,0-2-.914,2.644,2.644,0,0,0-2.021.883,3.25,3.25,0,0,0-.817,2.3,3.25,3.25,0,0,0,.817,2.3A2.644,2.644,0,0,0,209.318,15.866Zm10.978,1.3a4.554,4.554,0,0,1-2.215-.536,3.9,3.9,0,0,1-1.56-1.569,4.819,4.819,0,0,1-.576-2.386,4.4,4.4,0,0,1,1.226-3.256,4.6,4.6,0,0,1,6.253,0,4.41,4.41,0,0,1,1.222,3.256,4.413,4.413,0,0,1-1.226,3.265A4.232,4.232,0,0,1,220.3,17.167Zm-.009-1.266a2.654,2.654,0,0,0,2.043-.888,3.326,3.326,0,0,0,.813-2.338,3.314,3.314,0,0,0-.813-2.329,2.654,2.654,0,0,0-2.043-.888,2.617,2.617,0,0,0-2.026.888,3.336,3.336,0,0,0-.8,2.329,3.348,3.348,0,0,0,.8,2.338A2.617,2.617,0,0,0,220.287,15.9Zm8.227-6.021a2.612,2.612,0,0,1,1.072-1.16,3.229,3.229,0,0,1,1.661-.457V9.7a2.846,2.846,0,0,0-2.008.642,2.68,2.68,0,0,0-.69,2.048V17h-1.521V8.36h1.485Zm4.43,10.292h-1.107l1.072-5.449H234.5Zm12.779-3.015a4.161,4.161,0,0,1-3.094-1.239,4.421,4.421,0,0,1-1.222-3.243,4.43,4.43,0,0,1,1.217-3.243,4.5,4.5,0,0,1,5.6-.483,3.815,3.815,0,0,1,1.455,2.1l-1.424.229a2.63,2.63,0,0,0-.976-1.345,2.656,2.656,0,0,0-1.564-.475,2.554,2.554,0,0,0-2,.888,3.382,3.382,0,0,0-.787,2.329A3.365,3.365,0,0,0,243.714,15a2.56,2.56,0,0,0,2,.883,2.656,2.656,0,0,0,1.564-.475,2.63,2.63,0,0,0,.976-1.345l1.424.237a3.819,3.819,0,0,1-1.463,2.1A4.185,4.185,0,0,1,245.722,17.158Zm9.835.009a4.554,4.554,0,0,1-2.215-.536,3.9,3.9,0,0,1-1.56-1.569,4.819,4.819,0,0,1-.576-2.386,4.4,4.4,0,0,1,1.226-3.256,4.6,4.6,0,0,1,6.253,0,4.41,4.41,0,0,1,1.222,3.256,4.413,4.413,0,0,1-1.226,3.265A4.232,4.232,0,0,1,255.557,17.167Zm-.009-1.266a2.654,2.654,0,0,0,2.043-.888,3.326,3.326,0,0,0,.813-2.338,3.314,3.314,0,0,0-.813-2.329,2.654,2.654,0,0,0-2.043-.888,2.617,2.617,0,0,0-2.026.888,3.336,3.336,0,0,0-.8,2.329,3.348,3.348,0,0,0,.8,2.338A2.617,2.617,0,0,0,255.548,15.9Zm10.819-7.708a3.005,3.005,0,0,1,2.175.782,2.918,2.918,0,0,1,.813,2.206V17h-1.521V11.524a2.043,2.043,0,0,0-.527-1.547,1.885,1.885,0,0,0-1.354-.5,2.09,2.09,0,0,0-1.538.593,2.407,2.407,0,0,0-.606,1.762V17H262.29V8.36h1.521V9.468A2.885,2.885,0,0,1,266.368,8.193Zm12.3-4.693h1.521V17h-1.468l-.035-1.679a3.179,3.179,0,0,1-1.23,1.362,3.429,3.429,0,0,1-1.828.5,3.926,3.926,0,0,1-2.852-1.217,4.16,4.16,0,0,1-.87-1.428,5.225,5.225,0,0,1-.321-1.854,4.543,4.543,0,0,1,1.173-3.243,3.788,3.788,0,0,1,2.87-1.248,3.443,3.443,0,0,1,1.806.488A3.2,3.2,0,0,1,278.672,10Zm-2.725,12.366a2.587,2.587,0,0,0,2.008-.91,3.283,3.283,0,0,0,.813-2.272,3.277,3.277,0,0,0-.817-2.268,2.586,2.586,0,0,0-2-.914,2.644,2.644,0,0,0-2.021.883,3.25,3.25,0,0,0-.817,2.3,3.25,3.25,0,0,0,.817,2.3A2.644,2.644,0,0,0,275.948,15.866ZM284.06,6.33A1.035,1.035,0,0,1,283.032,5.3a.975.975,0,0,1,.3-.721,1,1,0,0,1,.725-.3.987.987,0,0,1,.716.3.975.975,0,0,1,.3.721.989.989,0,0,1-.3.725A.979.979,0,0,1,284.06,6.33ZM283.287,17V8.36h1.529V17Zm8.209.158a4.161,4.161,0,0,1-3.094-1.239,4.421,4.421,0,0,1-1.222-3.243A4.43,4.43,0,0,1,288.4,9.433a4.5,4.5,0,0,1,5.6-.483,3.815,3.815,0,0,1,1.455,2.1l-1.424.229a2.63,2.63,0,0,0-.976-1.345,2.656,2.656,0,0,0-1.564-.475,2.554,2.554,0,0,0-2,.888,3.382,3.382,0,0,0-.787,2.329A3.365,3.365,0,0,0,289.487,15a2.56,2.56,0,0,0,2,.883,2.656,2.656,0,0,0,1.564-.475,2.63,2.63,0,0,0,.976-1.345l1.424.237a3.819,3.819,0,0,1-1.463,2.1A4.185,4.185,0,0,1,291.5,17.158Zm6.97-10.828A1.035,1.035,0,0,1,297.437,5.3a.975.975,0,0,1,.3-.721,1,1,0,0,1,.725-.3.987.987,0,0,1,.716.3.975.975,0,0,1,.3.721.989.989,0,0,1-.3.725A.979.979,0,0,1,298.465,6.33ZM297.692,17V8.36h1.529V17Zm7.682-10.125L307.58,4.01l.809.589-1.969,2.276Zm.58,10.292a4.554,4.554,0,0,1-2.215-.536,3.9,3.9,0,0,1-1.56-1.569,4.819,4.819,0,0,1-.576-2.386,4.4,4.4,0,0,1,1.226-3.256,4.6,4.6,0,0,1,6.253,0,4.41,4.41,0,0,1,1.222,3.256,4.413,4.413,0,0,1-1.226,3.265A4.232,4.232,0,0,1,305.954,17.167Zm-.009-1.266a2.654,2.654,0,0,0,2.043-.888,3.326,3.326,0,0,0,.813-2.338,3.314,3.314,0,0,0-.813-2.329,2.654,2.654,0,0,0-2.043-.888,2.617,2.617,0,0,0-2.026.888,3.336,3.336,0,0,0-.8,2.329,3.348,3.348,0,0,0,.8,2.338A2.617,2.617,0,0,0,305.945,15.9Zm10.819-7.708a3.005,3.005,0,0,1,2.175.782,2.918,2.918,0,0,1,.813,2.206V17h-1.521V11.524a2.043,2.043,0,0,0-.527-1.547,1.885,1.885,0,0,0-1.354-.5,2.09,2.09,0,0,0-1.538.593,2.407,2.407,0,0,0-.606,1.762V17h-1.521V8.36h1.521V9.468A2.885,2.885,0,0,1,316.764,8.193Zm7.11,11.979h-1.107l1.072-5.449h1.591ZM105.972,30.33a1.035,1.035,0,0,1-1.028-1.028.975.975,0,0,1,.3-.721,1,1,0,0,1,.725-.3.987.987,0,0,1,.716.3.975.975,0,0,1,.3.721.989.989,0,0,1-.3.725A.979.979,0,0,1,105.972,30.33ZM105.2,41V32.36h1.529V41Zm8.7-8.807a3.005,3.005,0,0,1,2.175.782,2.918,2.918,0,0,1,.813,2.206V41h-1.521V35.524a2.043,2.043,0,0,0-.527-1.547,1.885,1.885,0,0,0-1.354-.5,2.09,2.09,0,0,0-1.538.593,2.407,2.407,0,0,0-.606,1.762V41h-1.521V32.36h1.521v1.107A2.885,2.885,0,0,1,113.9,32.193Zm9.51,8.965a4.161,4.161,0,0,1-3.094-1.239,4.421,4.421,0,0,1-1.222-3.243,4.43,4.43,0,0,1,1.217-3.243,4.5,4.5,0,0,1,5.6-.483,3.815,3.815,0,0,1,1.455,2.1l-1.424.229a2.63,2.63,0,0,0-.976-1.345,2.656,2.656,0,0,0-1.564-.475,2.554,2.554,0,0,0-2,.888,3.835,3.835,0,0,0,0,4.654,2.56,2.56,0,0,0,2,.883,2.656,2.656,0,0,0,1.564-.475,2.63,2.63,0,0,0,.976-1.345l1.424.237a3.819,3.819,0,0,1-1.463,2.1A4.185,4.185,0,0,1,123.409,41.158Zm7.682-7.277a2.612,2.612,0,0,1,1.072-1.16,3.229,3.229,0,0,1,1.661-.457V33.7a2.846,2.846,0,0,0-2.008.642,2.68,2.68,0,0,0-.69,2.048V41h-1.521V32.36h1.485Zm11.971,2.628-.018.413h-6.75a3.053,3.053,0,0,0,.826,2.21,2.713,2.713,0,0,0,1.969.769,2.59,2.59,0,0,0,1.433-.413,2.68,2.68,0,0,0,.984-1.143l1.371.29A3.9,3.9,0,0,1,141.4,40.49a4.028,4.028,0,0,1-2.294.677,4.174,4.174,0,0,1-3.111-1.2,4.479,4.479,0,0,1-1.187-3.287A4.458,4.458,0,0,1,136,33.4a4.122,4.122,0,0,1,3.063-1.2,3.9,3.9,0,0,1,2.9,1.107A4.376,4.376,0,0,1,143.062,36.509Zm-4-3.146a2.694,2.694,0,0,0-1.8.611,2.8,2.8,0,0,0-.91,1.78h5.177a2.567,2.567,0,0,0-.756-1.78A2.441,2.441,0,0,0,139.063,33.362Zm15.214-1.169a2.785,2.785,0,0,1,2.013.734,2.722,2.722,0,0,1,.765,2.061V41h-1.521V35.384a1.952,1.952,0,0,0-.475-1.424,1.616,1.616,0,0,0-1.2-.483,1.706,1.706,0,0,0-1.318.545,2.343,2.343,0,0,0-.5,1.635V41h-1.547V35.445a2.042,2.042,0,0,0-.479-1.472,1.629,1.629,0,0,0-1.226-.5,1.69,1.69,0,0,0-1.314.558,2.424,2.424,0,0,0-.505,1.674V41h-1.521V32.36h1.521v1.116a2.625,2.625,0,0,1,.989-.949,2.82,2.82,0,0,1,1.375-.334,2.935,2.935,0,0,1,1.477.365,2.271,2.271,0,0,1,.958,1.05,2.689,2.689,0,0,1,1.037-1.05A2.966,2.966,0,0,1,154.276,32.193Zm13.28,4.315-.018.413h-6.75a3.053,3.053,0,0,0,.826,2.21,2.713,2.713,0,0,0,1.969.769,2.59,2.59,0,0,0,1.433-.413A2.68,2.68,0,0,0,166,38.346l1.371.29A3.9,3.9,0,0,1,165.9,40.49a4.028,4.028,0,0,1-2.294.677,4.174,4.174,0,0,1-3.111-1.2,4.479,4.479,0,0,1-1.187-3.287,4.458,4.458,0,0,1,1.191-3.278,4.122,4.122,0,0,1,3.063-1.2,3.9,3.9,0,0,1,2.9,1.107A4.376,4.376,0,0,1,167.557,36.509Zm-4-3.146a2.694,2.694,0,0,0-1.8.611,2.8,2.8,0,0,0-.91,1.78h5.177a2.567,2.567,0,0,0-.756-1.78A2.441,2.441,0,0,0,163.558,33.362Zm10.459-1.169a3.005,3.005,0,0,1,2.175.782A2.918,2.918,0,0,1,177,35.182V41h-1.521V35.524a2.043,2.043,0,0,0-.527-1.547,1.885,1.885,0,0,0-1.354-.5,2.09,2.09,0,0,0-1.538.593,2.407,2.407,0,0,0-.606,1.762V41h-1.521V32.36h1.521v1.107A2.885,2.885,0,0,1,174.017,32.193ZM182.7,41a2.271,2.271,0,0,1-1.687-.62,2.344,2.344,0,0,1-.615-1.727v-5.08h-1.767V32.36h.65a1.249,1.249,0,0,0,.954-.3,1.492,1.492,0,0,0,.277-1.015V29.478h1.415V32.36h1.986v1.213h-1.986V38.5a1.31,1.31,0,0,0,.33.954,1.154,1.154,0,0,0,.866.338h.791V41Zm6.943.167a4.554,4.554,0,0,1-2.215-.536,3.9,3.9,0,0,1-1.56-1.569,4.819,4.819,0,0,1-.576-2.386,4.4,4.4,0,0,1,1.226-3.256,4.6,4.6,0,0,1,6.253,0,4.41,4.41,0,0,1,1.222,3.256,4.413,4.413,0,0,1-1.226,3.265A4.232,4.232,0,0,1,189.644,41.167Zm-.009-1.266a2.654,2.654,0,0,0,2.043-.888,3.755,3.755,0,0,0,0-4.667,2.654,2.654,0,0,0-2.043-.888,2.617,2.617,0,0,0-2.026.888,3.788,3.788,0,0,0,0,4.667A2.617,2.617,0,0,0,189.635,39.9Zm15,1.257a4.161,4.161,0,0,1-3.094-1.239,4.421,4.421,0,0,1-1.222-3.243,4.43,4.43,0,0,1,1.217-3.243,4.5,4.5,0,0,1,5.6-.483,3.815,3.815,0,0,1,1.455,2.1l-1.424.229a2.63,2.63,0,0,0-.976-1.345,2.656,2.656,0,0,0-1.564-.475,2.554,2.554,0,0,0-2,.888,3.835,3.835,0,0,0,0,4.654,2.56,2.56,0,0,0,2,.883,2.656,2.656,0,0,0,1.564-.475,2.63,2.63,0,0,0,.976-1.345l1.424.237a3.819,3.819,0,0,1-1.463,2.1A4.185,4.185,0,0,1,204.638,41.158Zm9.835.009a4.554,4.554,0,0,1-2.215-.536,3.9,3.9,0,0,1-1.56-1.569,4.819,4.819,0,0,1-.576-2.386,4.4,4.4,0,0,1,1.226-3.256,4.6,4.6,0,0,1,6.253,0,4.41,4.41,0,0,1,1.222,3.256,4.413,4.413,0,0,1-1.226,3.265A4.232,4.232,0,0,1,214.473,41.167Zm-.009-1.266a2.654,2.654,0,0,0,2.043-.888,3.755,3.755,0,0,0,0-4.667,2.654,2.654,0,0,0-2.043-.888,2.617,2.617,0,0,0-2.026.888,3.788,3.788,0,0,0,0,4.667A2.617,2.617,0,0,0,214.464,39.9Zm10.819-7.708a3.005,3.005,0,0,1,2.175.782,2.918,2.918,0,0,1,.813,2.206V41h-1.521V35.524a2.043,2.043,0,0,0-.527-1.547,1.885,1.885,0,0,0-1.354-.5,2.09,2.09,0,0,0-1.538.593,2.407,2.407,0,0,0-.606,1.762V41h-1.521V32.36h1.521v1.107A2.885,2.885,0,0,1,225.283,32.193ZM233.967,41a2.271,2.271,0,0,1-1.687-.62,2.344,2.344,0,0,1-.615-1.727v-5.08H229.9V32.36h.65a1.249,1.249,0,0,0,.954-.3,1.492,1.492,0,0,0,.277-1.015V29.478h1.415V32.36h1.986v1.213h-1.986V38.5a1.31,1.31,0,0,0,.33.954,1.154,1.154,0,0,0,.866.338h.791V41Zm5.3.167a2.94,2.94,0,0,1-1.894-.593,2.13,2.13,0,0,1-.743-1.771,2.517,2.517,0,0,1,.237-1.129,1.991,1.991,0,0,1,.7-.787,4.218,4.218,0,0,1,1.015-.488,9.384,9.384,0,0,1,1.314-.312l1.4-.229q.765-.141.765-.8a1.51,1.51,0,0,0-.541-1.288,2.2,2.2,0,0,0-1.367-.409,2.243,2.243,0,0,0-1.354.4,1.655,1.655,0,0,0-.642,1.213l-1.371-.29a2.639,2.639,0,0,1,1.081-1.85,4.039,4.039,0,0,1,2.355-.62,4.777,4.777,0,0,1,1.252.154,3.4,3.4,0,0,1,1.046.483,2.168,2.168,0,0,1,.747.932,3.466,3.466,0,0,1,.268,1.419v3.568a1.46,1.46,0,0,0,.2.9.854.854,0,0,0,.681.233h.141V41H243.8a1.442,1.442,0,0,1-1.635-1.169h-.07A3.3,3.3,0,0,1,239.267,41.167Zm.352-1.23a2.305,2.305,0,0,0,1.854-.835,3.438,3.438,0,0,0,.7-2.285l-2.285.439a3.076,3.076,0,0,0-1.34.479,1.114,1.114,0,0,0-.435.945,1.1,1.1,0,0,0,.417.949A1.785,1.785,0,0,0,239.618,39.937ZM252.907,27.5h1.521V41H252.96l-.035-1.679a3.179,3.179,0,0,1-1.23,1.362,3.429,3.429,0,0,1-1.828.5,3.926,3.926,0,0,1-2.852-1.217,4.16,4.16,0,0,1-.87-1.428,5.225,5.225,0,0,1-.321-1.854A4.543,4.543,0,0,1,247,33.441a3.788,3.788,0,0,1,2.87-1.248,3.443,3.443,0,0,1,1.806.488A3.2,3.2,0,0,1,252.907,34Zm-2.725,12.366a2.587,2.587,0,0,0,2.008-.91,3.568,3.568,0,0,0,0-4.54,2.586,2.586,0,0,0-2-.914,2.644,2.644,0,0,0-2.021.883,3.64,3.64,0,0,0,0,4.6A2.644,2.644,0,0,0,250.183,39.866Zm10.978,1.3a4.554,4.554,0,0,1-2.215-.536,3.9,3.9,0,0,1-1.56-1.569,4.819,4.819,0,0,1-.576-2.386,4.4,4.4,0,0,1,1.226-3.256,4.6,4.6,0,0,1,6.253,0,4.41,4.41,0,0,1,1.222,3.256,4.413,4.413,0,0,1-1.226,3.265A4.232,4.232,0,0,1,261.16,41.167Zm-.009-1.266a2.654,2.654,0,0,0,2.043-.888,3.755,3.755,0,0,0,0-4.667,2.654,2.654,0,0,0-2.043-.888,2.617,2.617,0,0,0-2.026.888,3.788,3.788,0,0,0,0,4.667A2.617,2.617,0,0,0,261.151,39.9Zm8.227-6.021a2.612,2.612,0,0,1,1.072-1.16,3.229,3.229,0,0,1,1.661-.457V33.7a2.846,2.846,0,0,0-2.008.642,2.68,2.68,0,0,0-.69,2.048V41h-1.521V32.36h1.485Z" transform="translate(7904 216)" fill="#00223d"/>
    <path id="Trazado_11111" data-name="Trazado 11111" d="M-50.471.167a6.574,6.574,0,0,1-2.435-.444,5.879,5.879,0,0,1-1.956-1.248,5.567,5.567,0,0,1-1.3-2.008,7.263,7.263,0,0,1-.47-2.663,7.144,7.144,0,0,1,.475-2.65,5.7,5.7,0,0,1,1.3-2.008A5.741,5.741,0,0,1-52.906-12.1a6.633,6.633,0,0,1,2.435-.439,6.526,6.526,0,0,1,2.417.444A5.831,5.831,0,0,1-46.1-10.85a5.652,5.652,0,0,1,1.3,2,7.144,7.144,0,0,1,.475,2.65A7.213,7.213,0,0,1-44.8-3.538a5.638,5.638,0,0,1-1.3,2.013A5.831,5.831,0,0,1-48.054-.277,6.526,6.526,0,0,1-50.471.167Zm0-1.485A4.422,4.422,0,0,0-47.2-2.624,4.847,4.847,0,0,0-45.9-6.2a5.674,5.674,0,0,0-.356-2.057,4.236,4.236,0,0,0-.976-1.529,4.28,4.28,0,0,0-1.45-.932,4.862,4.862,0,0,0-1.789-.325,4.921,4.921,0,0,0-1.8.325,4.318,4.318,0,0,0-1.459.932,4.206,4.206,0,0,0-.98,1.529A5.674,5.674,0,0,0-55.068-6.2a5.771,5.771,0,0,0,.356,2.074,4.194,4.194,0,0,0,.98,1.538,4.374,4.374,0,0,0,1.459.936A4.863,4.863,0,0,0-50.471-1.318Zm13.333-7.488a3.93,3.93,0,0,1,1.564.316,3.849,3.849,0,0,1,1.283.888,4.149,4.149,0,0,1,.866,1.424A5.25,5.25,0,0,1-33.1-4.315a4.568,4.568,0,0,1-1.165,3.261A3.782,3.782,0,0,1-37.138.185a3.42,3.42,0,0,1-1.806-.492,3.226,3.226,0,0,1-1.235-1.327V4.351H-41.7V-8.64h1.468l.035,1.679a3.163,3.163,0,0,1,1.23-1.349A3.452,3.452,0,0,1-37.138-8.807Zm-.3,7.673a2.623,2.623,0,0,0,2-.875,3.253,3.253,0,0,0,.813-2.307,3.237,3.237,0,0,0-.813-2.3,2.629,2.629,0,0,0-2-.87,2.636,2.636,0,0,0-2.03.91,3.24,3.24,0,0,0-.826,2.263,3.252,3.252,0,0,0,.826,2.272A2.636,2.636,0,0,0-37.437-1.134Zm14.291-3.357-.018.413h-6.75a3.053,3.053,0,0,0,.826,2.21,2.713,2.713,0,0,0,1.969.769,2.59,2.59,0,0,0,1.433-.413A2.68,2.68,0,0,0-24.7-2.654l1.371.29A3.9,3.9,0,0,1-24.807-.51,4.028,4.028,0,0,1-27.1.167a4.174,4.174,0,0,1-3.111-1.2A4.479,4.479,0,0,1-31.4-4.324,4.458,4.458,0,0,1-30.208-7.6a4.122,4.122,0,0,1,3.063-1.2A3.9,3.9,0,0,1-24.24-7.7,4.376,4.376,0,0,1-23.146-4.491Zm-4-3.146a2.694,2.694,0,0,0-1.8.611,2.8,2.8,0,0,0-.91,1.78h5.177a2.567,2.567,0,0,0-.756-1.78A2.441,2.441,0,0,0-27.145-7.638Zm7.866.519a2.612,2.612,0,0,1,1.072-1.16,3.229,3.229,0,0,1,1.661-.457V-7.3a2.846,2.846,0,0,0-2.008.642,2.68,2.68,0,0,0-.69,2.048V0h-1.521V-8.64h1.485ZM-12.872.167a2.94,2.94,0,0,1-1.894-.593A2.13,2.13,0,0,1-15.508-2.2a2.517,2.517,0,0,1,.237-1.129,1.991,1.991,0,0,1,.7-.787A4.218,4.218,0,0,1-13.553-4.6a9.384,9.384,0,0,1,1.314-.312l1.4-.229q.765-.141.765-.8a1.51,1.51,0,0,0-.541-1.288,2.2,2.2,0,0,0-1.367-.409,2.243,2.243,0,0,0-1.354.4,1.655,1.655,0,0,0-.642,1.213l-1.371-.29a2.639,2.639,0,0,1,1.081-1.85,4.039,4.039,0,0,1,2.355-.62,4.777,4.777,0,0,1,1.252.154,3.4,3.4,0,0,1,1.046.483,2.168,2.168,0,0,1,.747.932A3.466,3.466,0,0,1-8.6-5.8v3.568a1.46,1.46,0,0,0,.2.9.854.854,0,0,0,.681.233h.141V0h-.756A1.442,1.442,0,0,1-9.971-1.169h-.07A3.3,3.3,0,0,1-12.872.167Zm.352-1.23A2.305,2.305,0,0,0-10.666-1.9a3.438,3.438,0,0,0,.7-2.285l-2.285.439a3.076,3.076,0,0,0-1.34.479,1.114,1.114,0,0,0-.435.945,1.1,1.1,0,0,0,.417.949A1.785,1.785,0,0,0-12.52-1.063ZM-2.026.158A4.161,4.161,0,0,1-5.12-1.081,4.421,4.421,0,0,1-6.341-4.324,4.43,4.43,0,0,1-5.124-7.567a4.158,4.158,0,0,1,3.1-1.239,4.191,4.191,0,0,1,2.5.756,3.815,3.815,0,0,1,1.455,2.1L.505-5.722A2.63,2.63,0,0,0-.47-7.066a2.656,2.656,0,0,0-1.564-.475,2.554,2.554,0,0,0-2,.888,3.382,3.382,0,0,0-.787,2.329A3.365,3.365,0,0,0-4.034-2a2.56,2.56,0,0,0,2,.883A2.656,2.656,0,0,0-.47-1.591,2.63,2.63,0,0,0,.505-2.936L1.929-2.7A3.819,3.819,0,0,1,.466-.6,4.185,4.185,0,0,1-2.026.158ZM4.944-10.67a.989.989,0,0,1-.725-.3.989.989,0,0,1-.3-.725.975.975,0,0,1,.3-.721,1,1,0,0,1,.725-.3.987.987,0,0,1,.716.3.975.975,0,0,1,.3.721.989.989,0,0,1-.3.725A.979.979,0,0,1,4.944-10.67ZM4.17,0V-8.64H5.7V0Zm8.262.167a4.554,4.554,0,0,1-2.215-.536,3.9,3.9,0,0,1-1.56-1.569,4.819,4.819,0,0,1-.576-2.386A4.4,4.4,0,0,1,9.308-7.581a4.232,4.232,0,0,1,3.125-1.226,4.228,4.228,0,0,1,3.129,1.226,4.41,4.41,0,0,1,1.222,3.256,4.413,4.413,0,0,1-1.226,3.265A4.232,4.232,0,0,1,12.432.167ZM12.423-1.1a2.654,2.654,0,0,0,2.043-.888,3.326,3.326,0,0,0,.813-2.338,3.314,3.314,0,0,0-.813-2.329,2.654,2.654,0,0,0-2.043-.888,2.617,2.617,0,0,0-2.026.888,3.336,3.336,0,0,0-.8,2.329,3.348,3.348,0,0,0,.8,2.338A2.617,2.617,0,0,0,12.423-1.1ZM23.243-8.807a3.005,3.005,0,0,1,2.175.782,2.918,2.918,0,0,1,.813,2.206V0H24.71V-5.476a2.043,2.043,0,0,0-.527-1.547,1.885,1.885,0,0,0-1.354-.5,2.09,2.09,0,0,0-1.538.593,2.407,2.407,0,0,0-.606,1.762V0H19.165V-8.64h1.521v1.107A2.885,2.885,0,0,1,23.243-8.807ZM32.357,4.386A7.3,7.3,0,0,1,29.646.813a15.468,15.468,0,0,1-.989-5.779,15.519,15.519,0,0,1,.989-5.774,7.3,7.3,0,0,1,2.711-3.586l.809,1a6.166,6.166,0,0,0-2.312,3.133A14.5,14.5,0,0,0,30-4.966,14.48,14.48,0,0,0,30.85.259a6.122,6.122,0,0,0,2.316,3.116ZM42.649-4.491l-.018.413h-6.75a3.053,3.053,0,0,0,.826,2.21,2.713,2.713,0,0,0,1.969.769,2.59,2.59,0,0,0,1.433-.413,2.68,2.68,0,0,0,.984-1.143l1.371.29A3.9,3.9,0,0,1,40.988-.51a4.028,4.028,0,0,1-2.294.677,4.174,4.174,0,0,1-3.111-1.2A4.479,4.479,0,0,1,34.4-4.324,4.458,4.458,0,0,1,35.587-7.6a4.122,4.122,0,0,1,3.063-1.2,3.9,3.9,0,0,1,2.9,1.107A4.376,4.376,0,0,1,42.649-4.491Zm-4-3.146a2.694,2.694,0,0,0-1.8.611,2.8,2.8,0,0,0-.91,1.78H41.12a2.567,2.567,0,0,0-.756-1.78A2.441,2.441,0,0,0,38.65-7.638Zm9.114,7.8a4.1,4.1,0,0,1-2.329-.624A2.581,2.581,0,0,1,44.3-2.232l1.327-.378a1.851,1.851,0,0,0,.708,1.2,2.3,2.3,0,0,0,1.419.426,2.832,2.832,0,0,0,.831-.114,1.331,1.331,0,0,0,.637-.426,1.142,1.142,0,0,0,.255-.787,1.147,1.147,0,0,0-.07-.356,1.526,1.526,0,0,0-.141-.286.87.87,0,0,0-.246-.237,3.245,3.245,0,0,0-.3-.185,3.067,3.067,0,0,0-.391-.163q-.259-.092-.417-.141t-.483-.141q-.325-.092-.5-.145a9.372,9.372,0,0,1-.9-.316A3.932,3.932,0,0,1,45.3-4.7a1.679,1.679,0,0,1-.567-.681,2.3,2.3,0,0,1-.189-.967,2.234,2.234,0,0,1,.422-1.38,2.374,2.374,0,0,1,1.094-.813,4.374,4.374,0,0,1,1.534-.25,3.754,3.754,0,0,1,2.1.563,2.4,2.4,0,0,1,1.05,1.688L49.5-6.223a1.655,1.655,0,0,0-.659-1.094,2.1,2.1,0,0,0-1.239-.365,2.139,2.139,0,0,0-1.16.3,1.019,1.019,0,0,0-.483.927.923.923,0,0,0,.127.479,1.521,1.521,0,0,0,.259.338,1.594,1.594,0,0,0,.475.259q.343.136.51.185t.633.163q.088.026.132.035.51.132.831.233a5.105,5.105,0,0,1,.747.316,2.484,2.484,0,0,1,.672.47,2.178,2.178,0,0,1,.422.668,2.358,2.358,0,0,1,.176.932,2.516,2.516,0,0,1-.259,1.165,2.028,2.028,0,0,1-.708.8,3.422,3.422,0,0,1-1.006.435A4.8,4.8,0,0,1,47.764.167Zm5.212,4.219-.809-1.011A6.122,6.122,0,0,0,54.483.259a14.48,14.48,0,0,0,.848-5.225,14.5,14.5,0,0,0-.853-5.225,6.166,6.166,0,0,0-2.312-3.133l.809-1a7.3,7.3,0,0,1,2.711,3.586,15.519,15.519,0,0,1,.989,5.774A15.468,15.468,0,0,1,55.688.813,7.3,7.3,0,0,1,52.976,4.386Z" transform="translate(8092 366)" fill="#00223d"/>
    <path id="Trazado_11105" data-name="Trazado 11105" d="M7168.8,234.1h-23.685v234.1h200.067" transform="translate(716.772)" fill="none" stroke="#cbd9e4" stroke-width="3"/>
  </g>
</svg>
