<svg xmlns="http://www.w3.org/2000/svg" width="902.34" height="486.28" viewBox="0 0 902.34 486.28">
  <defs>
    <style>
      .cls-1 {
        fill: #e1eefe;
      }

      .cls-2 {
        fill: #edf4fc;
      }

      .cls-3 {
        fill: #bcd0e2;
      }

      .cls-4 {
        fill: #b0bfde;
      }

      .cls-5 {
        fill: #d1dbea;
      }

      .cls-6 {
        fill: #e4efff;
      }

      .cls-7 {
        fill: #253858;
      }

      .cls-8 {
        fill: #ffc40e;
      }

      .cls-9 {
        fill: #3bb6d5;
      }

      .cls-10, .cls-11, .cls-12, .cls-15, .cls-16, .cls-18, .cls-19, .cls-23, .cls-24, .cls-25, .cls-43 {
        fill: none;
      }

      .cls-10 {
        stroke: #3d7aa8;
      }

      .cls-10, .cls-11, .cls-12, .cls-15, .cls-16, .cls-18, .cls-19, .cls-23, .cls-24, .cls-25, .cls-26, .cls-27, .cls-43 {
        stroke-miterlimit: 10;
      }

      .cls-10, .cls-11, .cls-12 {
        stroke-width: 4.89px;
      }

      .cls-11 {
        stroke: #4c5c7d;
      }

      .cls-12 {
        stroke: #4a6178;
      }

      .cls-13 {
        fill: #ffab01;
      }

      .cls-14 {
        fill: #fec12f;
      }

      .cls-15, .cls-16 {
        stroke: #fff;
      }

      .cls-15 {
        stroke-width: 1.47px;
      }

      .cls-16 {
        stroke-width: 1.63px;
      }

      .cls-17 {
        fill: #d9e1e4;
      }

      .cls-18, .cls-19, .cls-23 {
        stroke: #bac2c6;
      }

      .cls-18 {
        stroke-width: 0.15px;
      }

      .cls-19 {
        stroke-width: 0.15px;
      }

      .cls-20 {
        fill: #bac2c6;
      }

      .cls-21, .cls-26, .cls-27, .cls-45 {
        fill: #fff;
      }

      .cls-21 {
        opacity: 0.34;
      }

      .cls-22 {
        fill: #165670;
      }

      .cls-23 {
        stroke-width: 0.17px;
      }

      .cls-24, .cls-27 {
        stroke: #ffc40e;
      }

      .cls-24, .cls-25, .cls-26, .cls-27 {
        stroke-width: 0.95px;
      }

      .cls-25, .cls-26, .cls-43 {
        stroke: #3bb6d5;
      }

      .cls-28 {
        fill: #367082;
      }

      .cls-29 {
        fill: #88bdda;
      }

      .cls-30 {
        fill: #acd5f4;
      }

      .cls-31 {
        fill: #001f46;
      }

      .cls-32 {
        fill: #2f91aa;
      }

      .cls-33 {
        fill: #163f59;
      }

      .cls-34 {
        fill: #194866;
      }

      .cls-35 {
        fill: #93cef5;
      }

      .cls-36 {
        fill: #86bbd8;
      }

      .cls-37 {
        fill: #c4d1e1;
      }

      .cls-38 {
        fill: #e9d6b8;
      }

      .cls-39 {
        fill: #b6c2c9;
      }

      .cls-40 {
        fill: #d8e5ed;
      }

      .cls-41 {
        fill: #879ba6;
      }

      .cls-42 {
        fill: #e2c59c;
      }

      .cls-43 {
        stroke-width: 0.97px;
      }

      .cls-44 {
        fill: #0c1153;
      }
    </style>
  </defs>
  <g id="Layer_3" data-name="Layer 3">
    <g>
      <g>
        <path class="cls-1" d="M299.8,389.71l12.43-34-16.8-10.58a114.91,114.91,0,0,0,.65-15.57l18.37-7.43-6.25-35.68-21.94-.82A114.49,114.49,0,0,0,280,273.37l13.37-17.13L270.1,228.47,249.39,239.4A117,117,0,0,0,239,232.48l3.18-22.72-34-12.43-12.66,20.13a115.57,115.57,0,0,0-12.26-1l-8.65-21.39-35.68,6.25L138,224.41a117.93,117.93,0,0,0-11.86,5.42l-17.46-13.62L80.91,239.46l10,19a114.93,114.93,0,0,0-8.57,11.78L62.2,267.42l-12.43,34,16.35,10.29a115.21,115.21,0,0,0-1.77,16.48L47.55,335l6.25,35.69,17.23.65a114.77,114.77,0,0,0,7.54,16.82l-9.92,12.71L91.9,428.64l13.95-7.36a118.24,118.24,0,0,0,16.09,11.28l-2.07,14.79,34,12.45L162,446.86a115.81,115.81,0,0,0,19.87,1.41L187.45,462l35.68-6.25.6-16a114.68,114.68,0,0,0,17.11-8.63l12.48,9.74,27.77-23.26L272.83,402a116.43,116.43,0,0,0,9.46-14.77Zm-111-8.42a49.66,49.66,0,1,1,40.36-57.48A49.66,49.66,0,0,1,188.77,381.29Z" transform="translate(-47.55 -59.87)"/>
        <path class="cls-2" d="M167,256.74a76.78,76.78,0,1,0,88.87,62.39A76.78,76.78,0,0,0,167,256.74ZM190.7,392.31a60.85,60.85,0,1,1,49.44-70.43A60.84,60.84,0,0,1,190.7,392.31Z" transform="translate(-47.55 -59.87)"/>
      </g>
      <g>
        <path class="cls-3" d="M693.62,243l8.86-35.2L684.63,199a115.51,115.51,0,0,0-1-15.59l17.53-9.31-9.93-34.91-22,1.46a116.66,116.66,0,0,0-7.53-11.54l11.53-18.46L647.25,85.37l-19.49,13a115.15,115.15,0,0,0-11.12-5.81l.8-23-35.19-8.84L571.73,82.16a115.52,115.52,0,0,0-12.32.32L548.56,62.06,513.65,72l1.53,23.07a116.49,116.49,0,0,0-11.25,6.63L485.11,90,459.86,116l12,17.88a116.89,116.89,0,0,0-7.32,12.64l-20.39-.72L435.26,181l17.37,8.55a115.07,115.07,0,0,0,0,16.61l-16,8.52,9.94,34.91,17.24-1.14a114.58,114.58,0,0,0,9.27,16l-8.57,13.7,26.06,25.26,13.14-8.79a116.13,116.13,0,0,0,17.21,9.57l-.53,14.95L555.5,328l6.76-13.74a115.16,115.16,0,0,0,20-.66l7,13.12,34.91-9.93-1.06-16a114.56,114.56,0,0,0,16.15-10.38l13.45,8.4,25.26-26.06L668,258.05a116.39,116.39,0,0,0,7.89-15.7ZM582.1,246.13a49.77,49.77,0,1,1,34.25-61.48A49.74,49.74,0,0,1,582.1,246.13Z" transform="translate(-47.55 -59.87)"/>
        <path class="cls-4" d="M547.41,124.28a76.94,76.94,0,1,0,95.06,52.93A76.94,76.94,0,0,0,547.41,124.28Zm37.76,132.64a61,61,0,1,1,41.94-75.33A61,61,0,0,1,585.17,256.92Z" transform="translate(-47.55 -59.87)"/>
      </g>
      <g>
        <path class="cls-5" d="M841.14,228l13-16.81-7.51-8.88a66.85,66.85,0,0,0,3.12-8.58l11.58-.91,2.82-21L852,167.45a65.63,65.63,0,0,0-1.35-7.95l10.5-7.2-8.08-19.63-13.5,2.44a68.22,68.22,0,0,0-4.61-5.72l5.8-12.13-16.81-13-10.64,9a65.93,65.93,0,0,0-6.67-2.7l-1-13.49-21-2.82L780,107a67.81,67.81,0,0,0-7.59.93l-7.34-10.7-19.63,8.08,2.24,12.38a67.05,67.05,0,0,0-6.88,5.08L730,117.64l-13,16.81,7.32,8.64a66.84,66.84,0,0,0-3.91,8.9l-10.59.83-2.83,21,9.52,3.42A66.89,66.89,0,0,0,717.8,188l-7.8,5.35L718.08,213l9.1-1.65a67.3,67.3,0,0,0,7,9.15l-3.78,7.9,16.81,13,6.83-5.78a67.07,67.07,0,0,0,10.86,4.3l.67,8.66,21.05,2.83,3.16-8.81a67,67,0,0,0,11.09-1.8l5.24,7.65,19.64-8.08-1.85-10.19a69.15,69.15,0,0,0,7.9-6.59Zm-61.43-17.85a35.66,35.66,0,1,1,40.09-30.6A35.65,35.65,0,0,1,779.71,210.16Z" transform="translate(-47.55 -59.87)"/>
        <path class="cls-4" d="M791.27,124a51.23,51.23,0,1,0,44,57.59A51.24,51.24,0,0,0,791.27,124Zm-12.21,91a40.6,40.6,0,1,1,45.63-34.83A40.6,40.6,0,0,1,779.06,215.05Z" transform="translate(-47.55 -59.87)"/>
      </g>
      <path class="cls-6" d="M290.35,439.68c59.83,2.91,245.27,11.26,358.13,10.83,209.26-.81,378.34,30.31,265,48.13-31.65,5,56.16,50.88-165.11,47.31-194.22-3.13-390.74-31.82-485.9-44.75S124,472.55,103.87,465.43C86.16,459.17,81.2,429.51,290.35,439.68Z" transform="translate(-47.55 -59.87)"/>
      <g>
        <g>
          <rect class="cls-7" x="129.59" y="92.47" width="330.42" height="258.22"/>
          <rect class="cls-1" x="129.59" y="76.47" width="330.42" height="15.27"/>
          <path class="cls-4" d="M188.34,144a3.06,3.06,0,1,1-3.05-3A3.06,3.06,0,0,1,188.34,144Z" transform="translate(-47.55 -59.87)"/>
          <path class="cls-8" d="M198,144a3.06,3.06,0,1,1-3-3A3.05,3.05,0,0,1,198,144Z" transform="translate(-47.55 -59.87)"/>
          <path class="cls-9" d="M207.69,144a3.06,3.06,0,1,1-3.06-3A3.06,3.06,0,0,1,207.69,144Z" transform="translate(-47.55 -59.87)"/>
        </g>
        <g>
          <line class="cls-10" x1="179.87" y1="117.1" x2="249.28" y2="117.1"/>
          <line class="cls-10" x1="185.61" y1="128.2" x2="197.09" y2="128.2"/>
          <line class="cls-10" x1="185.61" y1="139.3" x2="197.09" y2="139.3"/>
          <line class="cls-10" x1="185.61" y1="150.4" x2="197.09" y2="150.4"/>
          <line class="cls-10" x1="219.53" y1="128.2" x2="254.76" y2="128.2"/>
          <line class="cls-10" x1="219.53" y1="139.3" x2="254.76" y2="139.3"/>
          <line class="cls-10" x1="219.53" y1="150.4" x2="254.76" y2="150.4"/>
          <line class="cls-11" x1="202.05" y1="128.2" x2="210.14" y2="128.2"/>
          <line class="cls-11" x1="202.05" y1="139.3" x2="210.14" y2="139.3"/>
          <line class="cls-11" x1="202.05" y1="150.4" x2="210.14" y2="150.4"/>
          <line class="cls-12" x1="213.63" y1="128.2" x2="215.78" y2="128.2"/>
          <line class="cls-12" x1="213.63" y1="139.3" x2="215.78" y2="139.3"/>
          <line class="cls-12" x1="213.63" y1="150.4" x2="215.78" y2="150.4"/>
          <line class="cls-12" x1="180.13" y1="128.2" x2="182.28" y2="128.2"/>
          <line class="cls-12" x1="180.13" y1="139.3" x2="182.28" y2="139.3"/>
          <line class="cls-12" x1="180.13" y1="150.4" x2="182.28" y2="150.4"/>
          <line class="cls-10" x1="185.61" y1="172.6" x2="203.35" y2="172.6"/>
          <line class="cls-10" x1="227.89" y1="172.6" x2="254.76" y2="172.6"/>
          <line class="cls-11" x1="208.31" y1="172.6" x2="218.49" y2="172.6"/>
          <line class="cls-12" x1="221.98" y1="172.6" x2="224.13" y2="172.6"/>
          <line class="cls-10" x1="255.81" y1="194.8" x2="339.06" y2="194.8"/>
          <line class="cls-11" x1="209.35" y1="194.8" x2="249.28" y2="194.8"/>
          <line class="cls-10" x1="286.08" y1="172.6" x2="312.96" y2="172.6"/>
          <line class="cls-11" x1="262.33" y1="172.6" x2="276.68" y2="172.6"/>
          <line class="cls-12" x1="280.18" y1="172.6" x2="282.33" y2="172.6"/>
          <line class="cls-12" x1="315.67" y1="172.6" x2="317.82" y2="172.6"/>
          <line class="cls-12" x1="180.13" y1="172.6" x2="182.28" y2="172.6"/>
          <line class="cls-10" x1="185.61" y1="217" x2="203.35" y2="217"/>
          <line class="cls-11" x1="180.13" y1="217" x2="182.28" y2="217"/>
          <line class="cls-11" x1="206.75" y1="217" x2="208.9" y2="217"/>
          <line class="cls-10" x1="172.04" y1="261.39" x2="189.78" y2="261.39"/>
          <line class="cls-11" x1="166.55" y1="261.39" x2="168.71" y2="261.39"/>
          <line class="cls-11" x1="193.17" y1="261.39" x2="195.33" y2="261.39"/>
          <line class="cls-12" x1="195" y1="205.9" x2="197.16" y2="205.9"/>
          <line class="cls-10" x1="195" y1="183.7" x2="205.44" y2="183.7"/>
          <line class="cls-12" x1="209.35" y1="183.7" x2="250.05" y2="183.7"/>
          <line class="cls-10" x1="279.56" y1="128.2" x2="314.79" y2="128.2"/>
          <line class="cls-10" x1="279.56" y1="139.3" x2="314.79" y2="139.3"/>
          <line class="cls-10" x1="279.56" y1="150.4" x2="314.79" y2="150.4"/>
          <line class="cls-10" x1="316.61" y1="128.2" x2="378.2" y2="128.2"/>
          <line class="cls-10" x1="316.61" y1="139.3" x2="400.91" y2="139.3"/>
          <line class="cls-10" x1="316.61" y1="150.4" x2="416.04" y2="150.4"/>
          <line class="cls-11" x1="262.07" y1="128.2" x2="270.16" y2="128.2"/>
          <line class="cls-11" x1="262.07" y1="139.3" x2="270.16" y2="139.3"/>
          <line class="cls-11" x1="262.07" y1="150.4" x2="270.16" y2="150.4"/>
          <line class="cls-12" x1="273.65" y1="128.2" x2="275.8" y2="128.2"/>
          <line class="cls-12" x1="273.65" y1="139.3" x2="275.8" y2="139.3"/>
          <line class="cls-12" x1="273.65" y1="150.4" x2="275.8" y2="150.4"/>
          <line class="cls-12" x1="386.29" y1="128.2" x2="388.44" y2="128.2"/>
          <line class="cls-12" x1="407.01" y1="139.3" x2="409.16" y2="139.3"/>
          <line class="cls-12" x1="421.1" y1="150.4" x2="423.25" y2="150.4"/>
          <line class="cls-10" x1="179.87" y1="161.5" x2="249.28" y2="161.5"/>
          <line class="cls-10" x1="171.52" y1="285" x2="183" y2="285"/>
          <line class="cls-10" x1="198.4" y1="307.2" x2="209.88" y2="307.2"/>
          <line class="cls-10" x1="232.32" y1="307.2" x2="308.52" y2="307.2"/>
          <line class="cls-11" x1="180.65" y1="296.09" x2="292.34" y2="296.09"/>
          <line class="cls-11" x1="214.84" y1="307.2" x2="222.92" y2="307.2"/>
          <line class="cls-12" x1="226.42" y1="307.2" x2="228.57" y2="307.2"/>
          <line class="cls-12" x1="166.04" y1="285" x2="168.18" y2="285"/>
          <line class="cls-12" x1="185.61" y1="285" x2="187.76" y2="285"/>
          <line class="cls-10" x1="213.79" y1="318.29" x2="219.01" y2="318.29"/>
          <line class="cls-12" x1="208.31" y1="318.29" x2="210.46" y2="318.29"/>
          <line class="cls-12" x1="221.62" y1="318.29" x2="223.77" y2="318.29"/>
          <line class="cls-10" x1="228.41" y1="340.49" x2="233.62" y2="340.49"/>
          <line class="cls-12" x1="222.92" y1="340.49" x2="225.08" y2="340.49"/>
          <line class="cls-12" x1="236.24" y1="340.49" x2="238.39" y2="340.49"/>
          <line class="cls-12" x1="192.91" y1="307.2" x2="195.07" y2="307.2"/>
          <line class="cls-11" x1="223.19" y1="329.39" x2="333.35" y2="329.39"/>
          <line class="cls-12" x1="311.13" y1="307.2" x2="313.29" y2="307.2"/>
          <line class="cls-10" x1="179.87" y1="228.1" x2="275.38" y2="228.1"/>
          <line class="cls-10" x1="179.87" y1="239.2" x2="321.31" y2="239.2"/>
          <line class="cls-10" x1="179.87" y1="250.29" x2="227.89" y2="250.29"/>
          <line class="cls-12" x1="141.77" y1="117.1" x2="146.98" y2="117.1"/>
          <line class="cls-12" x1="141.77" y1="128.2" x2="146.98" y2="128.2"/>
          <line class="cls-12" x1="141.77" y1="139.3" x2="146.98" y2="139.3"/>
          <line class="cls-12" x1="141.77" y1="150.4" x2="146.98" y2="150.4"/>
          <line class="cls-12" x1="141.77" y1="161.5" x2="146.98" y2="161.5"/>
          <line class="cls-12" x1="141.77" y1="172.6" x2="146.98" y2="172.6"/>
          <line class="cls-12" x1="141.77" y1="183.7" x2="146.98" y2="183.7"/>
          <line class="cls-12" x1="141.77" y1="194.8" x2="146.98" y2="194.8"/>
          <line class="cls-12" x1="141.77" y1="205.9" x2="146.98" y2="205.9"/>
          <line class="cls-12" x1="141.77" y1="217" x2="146.98" y2="217"/>
          <line class="cls-12" x1="141.77" y1="228.1" x2="146.98" y2="228.1"/>
          <line class="cls-12" x1="141.77" y1="239.2" x2="146.98" y2="239.2"/>
          <line class="cls-12" x1="141.77" y1="250.29" x2="146.98" y2="250.29"/>
          <line class="cls-12" x1="141.77" y1="261.39" x2="146.98" y2="261.39"/>
          <line class="cls-12" x1="141.77" y1="272.49" x2="146.98" y2="272.49"/>
          <line class="cls-12" x1="141.77" y1="283.59" x2="146.98" y2="283.59"/>
          <line class="cls-12" x1="141.77" y1="294.69" x2="146.98" y2="294.69"/>
        </g>
      </g>
      <g>
        <g>
          <g>
            <path class="cls-13" d="M157.43,318.66s2-6.18-.29-11.87c-.83-2.06-4-4.92-6.14-4.05s-2.81,4.18-1.61,7.18C151.69,315.61,157.43,318.66,157.43,318.66Z" transform="translate(-47.55 -59.87)"/>
            <path class="cls-13" d="M160.56,328.41s-2.78-5-7.75-6.76c-1.81-.65-5.49-.21-6.18,1.73s1,4.33,3.65,5.27C155.26,330.45,160.56,328.41,160.56,328.41Z" transform="translate(-47.55 -59.87)"/>
            <path class="cls-13" d="M166.35,338.87s-4.55-3.4-9.83-3c-1.91.15-5.09,2.05-4.94,4.1s2.71,3.53,5.49,3.33C162.35,342.9,166.35,338.87,166.35,338.87Z" transform="translate(-47.55 -59.87)"/>
            <path class="cls-13" d="M160.81,328.62a18.49,18.49,0,0,0,7.68-6.49c1-1.63,1.64-5.15.22-6.05s-3.88.44-5.36,2.8A18.54,18.54,0,0,0,160.81,328.62Z" transform="translate(-47.55 -59.87)"/>
            <path class="cls-13" d="M165.68,339.22a17.79,17.79,0,0,0,7.83-6.39c1-1.62,1.57-5.19.06-6.14s-4,.35-5.51,2.71A17.81,17.81,0,0,0,165.68,339.22Z" transform="translate(-47.55 -59.87)"/>
            <path class="cls-13" d="M174.94,352.38s4.48-1.05,6.63-4.47c.78-1.24.9-4.15-.6-5.1s-3.72-.14-4.85,1.66C174,347.89,174.94,352.38,174.94,352.38Z" transform="translate(-47.55 -59.87)"/>
            <path class="cls-13" d="M174.38,352.69a14.28,14.28,0,0,0-7.56-3.24c-1.55-.12-4.32.87-4.43,2.34s1.77,2.8,4,3A14.24,14.24,0,0,0,174.38,352.69Z" transform="translate(-47.55 -59.87)"/>
          </g>
          <path class="cls-13" d="M199.91,412.35a5.48,5.48,0,0,1-1.91,1.26l-.34-1,.17.51-.17-.51c.1,0,2.39-.85,3.45-4.34,1.19-3.92.37-9.47-2.43-16.51-3.86-9.65-11.39-21.84-22.4-36.21-12.79-16.7-16.34-27.6-18.7-34.81-.6-1.84-1.12-3.44-1.68-4.74l1-.43c.58,1.35,1.11,3,1.72,4.84,2.33,7.14,5.85,17.93,18.52,34.48,24.51,32,27.12,46.9,25,53.75A8.35,8.35,0,0,1,199.91,412.35Z" transform="translate(-47.55 -59.87)"/>
        </g>
        <path class="cls-13" d="M507.13,421c24.67-13.35,5.88-19.17-16.74-20,11.33-9.92,4.9-20.11-21.72-32.31-11.95-5.47-26.81-3.24-41.53,2.65-10.48-20.78-25.09-35.29-42.79-28.45-14.64,5.66-25.59,12.77-32.54,20.55q-6.62-2.79-14.26-5.31c-11.09-3.65-19.47-1.52-25.65,4.07-21.53-13-43.52-21.05-56.89-13.2-23.26,13.65-26.72,25.9-12.3,38.75-22.63-.21-39.87,6-11,23.77-26.74-3.81-46-2-35.07,13.68,24.33,34.89,144.46,45.49,234.85,33.7,56.81-.53,104.35-8.4,114.07-25.2C552.75,421.37,533,419,507.13,421Z" transform="translate(-47.55 -59.87)"/>
        <g>
          <path class="cls-14" d="M207.51,391.85a80.19,80.19,0,0,1,46.35,58.71,80,80,0,0,1-121-53.44A80.19,80.19,0,0,1,207.51,391.85Z" transform="translate(-47.55 -59.87)"/>
          <g>
            <line class="cls-15" x1="95.05" y1="341.08" x2="201.89" y2="388.29"/>
            <line class="cls-15" x1="117.04" y1="350.95" x2="99.11" y2="359.41"/>
            <line class="cls-15" x1="135.25" y1="359" x2="113.16" y2="369.43"/>
            <line class="cls-15" x1="153.47" y1="367.05" x2="116.54" y2="384.48"/>
            <line class="cls-15" x1="171.69" y1="375.09" x2="135.75" y2="392.06"/>
            <line class="cls-15" x1="189.91" y1="383.14" x2="169.9" y2="392.59"/>
            <line class="cls-15" x1="114.98" y1="349.66" x2="109.17" y2="330.71"/>
            <line class="cls-15" x1="133.19" y1="357.71" x2="124.13" y2="328.16"/>
            <line class="cls-15" x1="151.41" y1="365.76" x2="140.07" y2="328.77"/>
            <line class="cls-15" x1="169.63" y1="373.8" x2="157.98" y2="335.81"/>
            <line class="cls-15" x1="187.85" y1="381.85" x2="177.84" y2="349.22"/>
          </g>
        </g>
        <g>
          <path class="cls-14" d="M277.08,370.9A88.57,88.57,0,0,1,286.64,453a88.38,88.38,0,0,1-82.79-120.39A88.6,88.6,0,0,1,277.08,370.9Z" transform="translate(-47.55 -59.87)"/>
          <g>
            <line class="cls-16" x1="163.21" y1="281.96" x2="236.33" y2="388.29"/>
            <line class="cls-16" x1="178.16" y1="303.98" x2="156.4" y2="301.54"/>
            <line class="cls-16" x1="190.63" y1="322.11" x2="163.81" y2="319.11"/>
            <line class="cls-16" x1="203.1" y1="340.24" x2="158.25" y2="335.22"/>
            <line class="cls-16" x1="215.57" y1="358.37" x2="171.94" y2="353.49"/>
            <line class="cls-16" x1="228.03" y1="376.5" x2="203.74" y2="373.78"/>
            <line class="cls-16" x1="176.98" y1="301.57" x2="182.5" y2="280.38"/>
            <line class="cls-16" x1="189.44" y1="319.7" x2="198.05" y2="286.66"/>
            <line class="cls-16" x1="201.91" y1="337.83" x2="212.68" y2="296.47"/>
            <line class="cls-16" x1="214.38" y1="355.96" x2="225.44" y2="313.48"/>
            <line class="cls-16" x1="226.85" y1="374.09" x2="236.35" y2="337.6"/>
          </g>
        </g>
      </g>
      <g>
        <g>
          <rect class="cls-3" x="278.59" y="156.47" width="432.78" height="247.22"/>
          <rect class="cls-1" x="278.59" y="156.47" width="432.78" height="15.27"/>
          <path class="cls-4" d="M337.34,224a3.06,3.06,0,1,1-3-3A3.06,3.06,0,0,1,337.34,224Z" transform="translate(-47.55 -59.87)"/>
          <path class="cls-8" d="M347,224a3.06,3.06,0,1,1-3.05-3A3.05,3.05,0,0,1,347,224Z" transform="translate(-47.55 -59.87)"/>
          <path class="cls-9" d="M356.69,224a3.06,3.06,0,1,1-3.06-3A3.06,3.06,0,0,1,356.69,224Z" transform="translate(-47.55 -59.87)"/>
        </g>
        <rect class="cls-2" x="324.55" y="187.72" width="372.45" height="200.28"/>
        <rect class="cls-17" x="350.21" y="209.27" width="80.17" height="3.3"/>
        <rect class="cls-17" x="350.21" y="202.24" width="25.97" height="3.3"/>
        <rect class="cls-17" x="518.61" y="209.27" width="80.17" height="3.3"/>
        <rect class="cls-8" x="518.61" y="326.29" width="4.05" height="3.3"/>
        <rect class="cls-17" x="518.61" y="334.22" width="67.48" height="3.3"/>
        <rect class="cls-9" x="609" y="326.29" width="4.05" height="3.3"/>
        <rect class="cls-17" x="609" y="334.22" width="67.48" height="3.3"/>
        <rect class="cls-17" x="518.61" y="202.24" width="25.97" height="3.3"/>
        <g>
          <g>
            <g>
              <rect class="cls-18" x="353.34" y="219.46" width="125.18" height="141.91"/>
              <line class="cls-19" x1="353.34" y1="341.1" x2="478.52" y2="341.1"/>
              <line class="cls-19" x1="353.34" y1="320.83" x2="478.52" y2="320.83"/>
              <line class="cls-19" x1="353.34" y1="300.55" x2="478.52" y2="300.55"/>
              <line class="cls-19" x1="353.34" y1="280.28" x2="478.52" y2="280.28"/>
              <line class="cls-19" x1="353.34" y1="260.01" x2="478.52" y2="260.01"/>
              <line class="cls-19" x1="353.34" y1="239.73" x2="478.52" y2="239.73"/>
              <line class="cls-19" x1="436.8" y1="219.46" x2="436.8" y2="361.37"/>
              <line class="cls-19" x1="395.07" y1="219.46" x2="395.07" y2="361.37"/>
            </g>
            <line class="cls-19" x1="353.34" y1="219.46" x2="346.87" y2="225.94"/>
            <line class="cls-19" x1="353.34" y1="239.73" x2="346.87" y2="246.21"/>
            <line class="cls-19" x1="353.34" y1="260.01" x2="346.87" y2="266.48"/>
            <line class="cls-19" x1="353.34" y1="280.28" x2="346.87" y2="286.75"/>
            <line class="cls-19" x1="353.34" y1="300.55" x2="346.87" y2="307.03"/>
            <line class="cls-19" x1="353.34" y1="320.83" x2="346.87" y2="327.3"/>
            <line class="cls-19" x1="353.34" y1="341.1" x2="346.87" y2="347.57"/>
            <g>
              <path class="cls-20" d="M388.66,408h0l-.64.34-.09-.38.8-.43h.42v3.68h-.48Z" transform="translate(-47.55 -59.87)"/>
              <path class="cls-20" d="M392.93,409.34c0,1.25-.46,1.94-1.28,1.94s-1.2-.67-1.21-1.89.53-1.91,1.27-1.91S392.93,408.17,392.93,409.34Zm-2,.06c0,1,.3,1.5.75,1.5s.75-.6.75-1.54-.23-1.5-.74-1.5S390.93,408.4,390.93,409.4Z" transform="translate(-47.55 -59.87)"/>
            </g>
            <g>
              <path class="cls-20" d="M387.58,391.09v-.3l.39-.38c.94-.9,1.37-1.37,1.37-1.93a.66.66,0,0,0-.73-.72,1.22,1.22,0,0,0-.78.32l-.16-.36a1.66,1.66,0,0,1,1-.37,1,1,0,0,1,1.13,1.07c0,.68-.49,1.23-1.27,2l-.29.27h1.65v.41Z" transform="translate(-47.55 -59.87)"/>
              <path class="cls-20" d="M392.93,389.21c0,1.25-.46,1.94-1.28,1.94s-1.2-.67-1.21-1.89.53-1.91,1.27-1.91S392.93,388,392.93,389.21Zm-2,.06c0,1,.3,1.5.75,1.5s.75-.59.75-1.53-.23-1.5-.74-1.5S390.93,388.27,390.93,389.27Z" transform="translate(-47.55 -59.87)"/>
            </g>
            <g>
              <path class="cls-20" d="M387.7,370.39a1.67,1.67,0,0,0,.82.23c.64,0,.83-.4.83-.71,0-.52-.47-.74-1-.74h-.28v-.37h.28c.36,0,.82-.19.82-.62s-.19-.56-.65-.56a1.3,1.3,0,0,0-.73.25l-.13-.37a1.74,1.74,0,0,1,1-.28c.72,0,1.05.43,1.05.88a.9.9,0,0,1-.68.86v0a1,1,0,0,1,.82.94c0,.59-.45,1.11-1.34,1.11a1.94,1.94,0,0,1-.95-.25Z" transform="translate(-47.55 -59.87)"/>
              <path class="cls-20" d="M392.93,369.08c0,1.25-.46,1.95-1.28,1.95s-1.2-.68-1.21-1.9.53-1.91,1.27-1.91S392.93,367.91,392.93,369.08Zm-2,.06c0,1,.3,1.5.75,1.5s.75-.59.75-1.53-.23-1.5-.74-1.5S390.93,368.14,390.93,369.14Z" transform="translate(-47.55 -59.87)"/>
            </g>
            <g>
              <path class="cls-20" d="M389.12,350.83v-1h-1.71v-.33l1.64-2.35h.54v2.29h.52v.39h-.52v1Zm0-1.39v-1.23c0-.19,0-.38,0-.57h0c-.11.21-.2.37-.3.54l-.9,1.25h1.2Z" transform="translate(-47.55 -59.87)"/>
              <path class="cls-20" d="M392.93,349c0,1.25-.46,1.94-1.28,1.94s-1.2-.68-1.21-1.89.53-1.92,1.27-1.92S392.93,347.78,392.93,349Zm-2,.05c0,1,.3,1.5.75,1.5s.75-.59.75-1.53-.23-1.5-.74-1.5S390.93,348,390.93,349Z" transform="translate(-47.55 -59.87)"/>
            </g>
            <g>
              <path class="cls-20" d="M389.78,327.44h-1.4l-.15.95.3,0a1.53,1.53,0,0,1,.8.2,1,1,0,0,1,.52.94,1.28,1.28,0,0,1-1.37,1.26,1.79,1.79,0,0,1-.91-.23l.12-.38a1.63,1.63,0,0,0,.79.21.81.81,0,0,0,.87-.8c0-.48-.32-.82-1.06-.82a3.4,3.4,0,0,0-.51,0L388,327h1.76Z" transform="translate(-47.55 -59.87)"/>
              <path class="cls-20" d="M392.93,328.83c0,1.25-.46,1.94-1.28,1.94s-1.2-.68-1.21-1.89S391,327,391.71,327,392.93,327.65,392.93,328.83Zm-2,.05c0,1,.3,1.5.75,1.5s.75-.59.75-1.53-.23-1.5-.74-1.5S390.93,327.88,390.93,328.88Z" transform="translate(-47.55 -59.87)"/>
            </g>
            <g>
              <path class="cls-20" d="M389.68,307.25a1.64,1.64,0,0,0-.37,0,1.5,1.5,0,0,0-1.28,1.31h0a1.07,1.07,0,0,1,.89-.43,1.09,1.09,0,0,1,1.1,1.19,1.23,1.23,0,0,1-1.22,1.3c-.78,0-1.3-.61-1.3-1.57a2.31,2.31,0,0,1,.62-1.66,2,2,0,0,1,1.18-.54,1.72,1.72,0,0,1,.36,0Zm-.14,2.12a.74.74,0,0,0-.76-.84.81.81,0,0,0-.71.45.48.48,0,0,0-.06.22c0,.61.29,1.05.81,1.05S389.54,309.9,389.54,309.37Z" transform="translate(-47.55 -59.87)"/>
              <path class="cls-20" d="M392.93,308.7c0,1.25-.46,1.94-1.28,1.94s-1.2-.68-1.21-1.89.53-1.92,1.27-1.92S392.93,307.52,392.93,308.7Zm-2,.05c0,1,.3,1.5.75,1.5s.75-.59.75-1.53-.23-1.5-.74-1.5S390.93,307.75,390.93,308.75Z" transform="translate(-47.55 -59.87)"/>
            </g>
            <g>
              <path class="cls-20" d="M390,286.77v.33l-1.6,3.35h-.52l1.6-3.26h-1.8v-.41Z" transform="translate(-47.55 -59.87)"/>
              <path class="cls-20" d="M392.93,288.57c0,1.25-.46,1.94-1.28,1.94s-1.2-.67-1.21-1.89.53-1.91,1.27-1.91S392.93,287.4,392.93,288.57Zm-2,.05c0,1,.3,1.5.75,1.5s.75-.59.75-1.53-.23-1.5-.74-1.5S390.93,287.62,390.93,288.62Z" transform="translate(-47.55 -59.87)"/>
            </g>
            <g>
              <path class="cls-20" d="M414.07,428.73v-.31l.39-.38c.94-.89,1.36-1.37,1.37-1.92a.66.66,0,0,0-.73-.72,1.27,1.27,0,0,0-.79.31l-.15-.35a1.61,1.61,0,0,1,1-.37,1,1,0,0,1,1.12,1.07c0,.68-.49,1.23-1.26,2l-.3.28h1.65v.41Z" transform="translate(-47.55 -59.87)"/>
              <path class="cls-20" d="M419.41,426.85c0,1.25-.46,1.94-1.27,1.94s-1.21-.67-1.22-1.89.53-1.91,1.28-1.91S419.41,425.68,419.41,426.85Zm-2,.06c0,.95.29,1.5.74,1.5s.76-.6.76-1.54-.23-1.5-.75-1.5S417.42,425.91,417.42,426.91Z" transform="translate(-47.55 -59.87)"/>
              <path class="cls-20" d="M421,425.51h0l-.64.35-.09-.38.8-.43h.43v3.68H421Z" transform="translate(-47.55 -59.87)"/>
              <path class="cls-20" d="M425.17,425.05v.33l-1.61,3.35h-.51l1.6-3.26h-1.8v-.41Z" transform="translate(-47.55 -59.87)"/>
            </g>
            <g>
              <path class="cls-20" d="M456.63,428.73v-.31L457,428c.94-.89,1.37-1.37,1.37-1.92a.66.66,0,0,0-.73-.72,1.27,1.27,0,0,0-.78.31l-.16-.35a1.66,1.66,0,0,1,1-.37,1,1,0,0,1,1.12,1.07c0,.68-.49,1.23-1.27,2l-.29.28H459v.41Z" transform="translate(-47.55 -59.87)"/>
              <path class="cls-20" d="M462,426.85c0,1.25-.46,1.94-1.28,1.94s-1.2-.67-1.21-1.89S460,425,460.77,425,462,425.68,462,426.85Zm-2,.06c0,.95.29,1.5.74,1.5s.76-.6.76-1.54-.24-1.5-.75-1.5S460,425.91,460,426.91Z" transform="translate(-47.55 -59.87)"/>
              <path class="cls-20" d="M463.52,425.51h0l-.64.35-.09-.38.8-.43H464v3.68h-.48Z" transform="translate(-47.55 -59.87)"/>
              <path class="cls-20" d="M465.3,427.8a1.05,1.05,0,0,1,.73-1v0a.91.91,0,0,1-.59-.82,1,1,0,0,1,1.14-1,1,1,0,0,1,1.07.9.92.92,0,0,1-.61.86v0a1,1,0,0,1,.75,1,1.13,1.13,0,0,1-1.25,1.07C465.77,428.79,465.3,428.33,465.3,427.8Zm2,0c0-.44-.31-.66-.81-.8a.8.8,0,0,0-.66.76.68.68,0,0,0,.74.7A.67.67,0,0,0,467.28,427.77Zm-1.37-1.84c0,.37.28.57.7.68a.72.72,0,0,0,.56-.67.57.57,0,0,0-.62-.6A.59.59,0,0,0,465.91,425.93Z" transform="translate(-47.55 -59.87)"/>
            </g>
            <g>
              <path class="cls-20" d="M499.2,428.73v-.31l.39-.38c.94-.89,1.37-1.37,1.37-1.92a.66.66,0,0,0-.73-.72,1.27,1.27,0,0,0-.78.31l-.16-.35a1.64,1.64,0,0,1,1-.37,1,1,0,0,1,1.13,1.07c0,.68-.49,1.23-1.27,2l-.29.28h1.65v.41Z" transform="translate(-47.55 -59.87)"/>
              <path class="cls-20" d="M504.55,426.85c0,1.25-.46,1.94-1.28,1.94s-1.21-.67-1.22-1.89.54-1.91,1.28-1.91S504.55,425.68,504.55,426.85Zm-2,.06c0,.95.3,1.5.75,1.5s.75-.6.75-1.54-.23-1.5-.75-1.5S502.55,425.91,502.55,426.91Z" transform="translate(-47.55 -59.87)"/>
              <path class="cls-20" d="M506.09,425.51h0l-.64.35-.1-.38.81-.43h.42v3.68h-.48Z" transform="translate(-47.55 -59.87)"/>
              <path class="cls-20" d="M508.2,428.38a2,2,0,0,0,.4,0,1.44,1.44,0,0,0,.77-.35,1.64,1.64,0,0,0,.49-1h0a1.11,1.11,0,0,1-1.95-.73,1.26,1.26,0,0,1,1.26-1.31c.75,0,1.21.61,1.21,1.55a2.36,2.36,0,0,1-.63,1.73,1.89,1.89,0,0,1-1.07.49,2.7,2.7,0,0,1-.46,0Zm.18-2.12a.71.71,0,0,0,.71.78.82.82,0,0,0,.72-.38.32.32,0,0,0,.05-.18c0-.63-.23-1.11-.75-1.11S508.38,425.74,508.38,426.26Z" transform="translate(-47.55 -59.87)"/>
            </g>
            <rect class="cls-21" x="353.34" y="239.73" width="125.18" height="20.27"/>
            <rect class="cls-21" x="353.34" y="280.28" width="125.18" height="20.27"/>
            <rect class="cls-21" x="353.34" y="320.83" width="125.18" height="20.27"/>
          </g>
          <g>
            <rect class="cls-8" x="353.34" y="239.73" width="56.25" height="3.24"/>
            <rect class="cls-22" x="353.34" y="248.25" width="96.63" height="3.24"/>
            <rect class="cls-9" x="353.34" y="256.77" width="34.44" height="3.24"/>
            <rect class="cls-8" x="353.34" y="280.28" width="101.54" height="3.24"/>
            <rect class="cls-22" x="353.34" y="288.8" width="41.73" height="3.24"/>
            <rect class="cls-9" x="353.34" y="297.32" width="83.45" height="3.24"/>
            <rect class="cls-8" x="353.34" y="321.09" width="41.73" height="3.24"/>
            <rect class="cls-22" x="353.34" y="329.61" width="83.45" height="3.24"/>
            <rect class="cls-9" x="353.34" y="338.12" width="68.88" height="3.24"/>
          </g>
        </g>
        <g>
          <line class="cls-23" x1="646.33" y1="218.96" x2="646.33" y2="296.63"/>
          <line class="cls-23" x1="614.68" y1="218.96" x2="614.68" y2="296.63"/>
          <line class="cls-23" x1="583.03" y1="218.96" x2="583.03" y2="296.63"/>
          <line class="cls-23" x1="551.38" y1="218.96" x2="551.38" y2="296.63"/>
          <g>
            <rect class="cls-21" x="583.03" y="218.96" width="63.3" height="77.66"/>
            <g>
              <rect class="cls-23" x="519.74" y="218.96" width="158.24" height="77.66"/>
              <line class="cls-23" x1="677.97" y1="283.68" x2="519.74" y2="283.68"/>
              <line class="cls-23" x1="519.74" y1="270.74" x2="677.97" y2="270.74"/>
              <line class="cls-23" x1="519.74" y1="257.8" x2="677.97" y2="257.8"/>
              <line class="cls-23" x1="519.74" y1="244.85" x2="677.97" y2="244.85"/>
              <line class="cls-23" x1="519.74" y1="231.91" x2="677.97" y2="231.91"/>
              <path class="cls-20" d="M564.62,355.78c0,1.15-.42,1.78-1.17,1.78s-1.1-.62-1.11-1.73.49-1.75,1.17-1.75S564.62,354.71,564.62,355.78Zm-1.82.06c0,.87.27,1.37.68,1.37s.69-.55.69-1.41-.21-1.37-.69-1.37S562.8,354.92,562.8,355.84Z" transform="translate(-47.55 -59.87)"/>
              <g>
                <path class="cls-20" d="M560.72,341.58h0l-.59.31-.08-.34.73-.4h.39v3.37h-.44Z" transform="translate(-47.55 -59.87)"/>
                <path class="cls-20" d="M564.62,342.8c0,1.14-.42,1.77-1.17,1.77s-1.1-.61-1.11-1.72.49-1.75,1.17-1.75S564.62,341.73,564.62,342.8Zm-1.82.05c0,.88.27,1.37.68,1.37s.69-.54.69-1.4-.21-1.37-.69-1.37S562.8,341.94,562.8,342.85Z" transform="translate(-47.55 -59.87)"/>
              </g>
              <g>
                <path class="cls-20" d="M559.73,331.53v-.28l.36-.34c.86-.82,1.25-1.26,1.25-1.76a.6.6,0,0,0-.67-.66,1.21,1.21,0,0,0-.71.28l-.15-.32a1.55,1.55,0,0,1,1-.34,1,1,0,0,1,1,1c0,.62-.45,1.12-1.16,1.81l-.27.24h1.51v.38Z" transform="translate(-47.55 -59.87)"/>
                <path class="cls-20" d="M564.62,329.81c0,1.15-.42,1.78-1.17,1.78s-1.1-.62-1.11-1.73.49-1.75,1.17-1.75S564.62,328.74,564.62,329.81Zm-1.82.06c0,.87.27,1.37.68,1.37s.69-.55.69-1.4-.21-1.38-.69-1.38S562.8,329,562.8,329.87Z" transform="translate(-47.55 -59.87)"/>
              </g>
              <g>
                <path class="cls-20" d="M559.84,318a1.45,1.45,0,0,0,.75.22.67.67,0,0,0,.76-.66c0-.47-.43-.67-.87-.67h-.26v-.34h.26c.33,0,.75-.17.75-.57s-.17-.5-.59-.5a1.22,1.22,0,0,0-.68.22l-.11-.33a1.56,1.56,0,0,1,.88-.26c.66,0,1,.39,1,.8a.83.83,0,0,1-.62.79h0a.88.88,0,0,1,.75.87c0,.53-.42,1-1.23,1a1.66,1.66,0,0,1-.87-.22Z" transform="translate(-47.55 -59.87)"/>
                <path class="cls-20" d="M564.62,316.83c0,1.14-.42,1.77-1.17,1.77s-1.1-.61-1.11-1.72.49-1.75,1.17-1.75S564.62,315.76,564.62,316.83Zm-1.82.05c0,.88.27,1.37.68,1.37s.69-.54.69-1.4-.21-1.37-.69-1.37S562.8,316,562.8,316.88Z" transform="translate(-47.55 -59.87)"/>
              </g>
              <g>
                <path class="cls-20" d="M561.14,305.56v-.91h-1.56v-.3l1.5-2.15h.49v2.09H562v.36h-.47v.91Zm0-1.27v-1.12c0-.18,0-.35,0-.53h0c-.1.2-.19.34-.28.5l-.82,1.14h1.1Z" transform="translate(-47.55 -59.87)"/>
                <path class="cls-20" d="M564.62,303.85c0,1.14-.42,1.77-1.17,1.77s-1.1-.62-1.11-1.73.49-1.75,1.17-1.75S564.62,302.78,564.62,303.85Zm-1.82,0c0,.87.27,1.37.68,1.37s.69-.54.69-1.4-.21-1.37-.69-1.37S562.8,303,562.8,303.9Z" transform="translate(-47.55 -59.87)"/>
              </g>
              <g>
                <path class="cls-20" d="M561.74,289.6h-1.28l-.13.86.27,0a1.49,1.49,0,0,1,.73.18,1,1,0,0,1,.48.87,1.17,1.17,0,0,1-1.26,1.14,1.68,1.68,0,0,1-.83-.2l.11-.35a1.52,1.52,0,0,0,.72.19.74.74,0,0,0,.8-.73c0-.44-.3-.75-1-.75a2.94,2.94,0,0,0-.47,0l.22-1.61h1.61Z" transform="translate(-47.55 -59.87)"/>
                <path class="cls-20" d="M564.62,290.86c0,1.14-.42,1.77-1.17,1.77s-1.1-.61-1.11-1.72.49-1.75,1.17-1.75S564.62,289.79,564.62,290.86Zm-1.82.05c0,.88.27,1.37.68,1.37s.69-.54.69-1.4-.21-1.37-.69-1.37S562.8,290,562.8,290.91Z" transform="translate(-47.55 -59.87)"/>
              </g>
              <path class="cls-20" d="M582.61,360.77h0l-.55.3-.08-.33.69-.37H583v3.16h-.41Z" transform="translate(-47.55 -59.87)"/>
              <path class="cls-20" d="M613.34,363.53v-.26l.33-.33c.81-.76,1.17-1.17,1.18-1.65a.56.56,0,0,0-.63-.61,1.08,1.08,0,0,0-.67.26l-.14-.3a1.42,1.42,0,0,1,.9-.32.89.89,0,0,1,1,.92c0,.58-.42,1.05-1.08,1.69l-.26.23h1.42v.36Z" transform="translate(-47.55 -59.87)"/>
              <path class="cls-20" d="M645.09,363a1.39,1.39,0,0,0,.7.2c.55,0,.72-.35.71-.61,0-.45-.4-.63-.81-.63h-.24v-.32h.24c.31,0,.7-.16.7-.54s-.16-.47-.55-.47a1.2,1.2,0,0,0-.63.2l-.11-.31a1.48,1.48,0,0,1,.82-.24c.62,0,.9.37.9.75a.78.78,0,0,1-.58.75h0a.8.8,0,0,1,.7.81c0,.5-.39.94-1.15.94a1.65,1.65,0,0,1-.82-.21Z" transform="translate(-47.55 -59.87)"/>
              <path class="cls-20" d="M678,363.53v-.86H676.5v-.28l1.4-2h.46v2h.44v.33h-.44v.86Zm0-1.19v-1.06c0-.16,0-.33,0-.49h0c-.1.18-.17.32-.26.46l-.77,1.08h1Z" transform="translate(-47.55 -59.87)"/>
              <path class="cls-20" d="M710.18,360.73H709l-.12.81h.26a1.42,1.42,0,0,1,.68.16.91.91,0,0,1,.45.81,1.09,1.09,0,0,1-1.17,1.08,1.52,1.52,0,0,1-.79-.19l.11-.33a1.35,1.35,0,0,0,.67.18.7.7,0,0,0,.75-.69c0-.4-.28-.7-.91-.7a2.55,2.55,0,0,0-.44,0l.21-1.52h1.51Z" transform="translate(-47.55 -59.87)"/>
            </g>
          </g>
          <g>
            <polyline class="cls-24" points="519.74 297.16 551.38 284.21 583.03 270.36 614.68 257.57 646.62 257.57 677.98 244.89"/>
            <polyline class="cls-25" points="519.74 283.68 551.38 270.74 583.03 283.68 614.68 271.66 646.33 232.71 677.98 218.96"/>
            <path class="cls-26" d="M695.69,292.58a1.82,1.82,0,1,1-1.81-1.81A1.81,1.81,0,0,1,695.69,292.58Z" transform="translate(-47.55 -59.87)"/>
            <path class="cls-26" d="M664,331.53a1.81,1.81,0,1,1-1.81-1.81A1.81,1.81,0,0,1,664,331.53Z" transform="translate(-47.55 -59.87)"/>
            <path class="cls-26" d="M632.39,343.55a1.81,1.81,0,1,1-1.81-1.81A1.81,1.81,0,0,1,632.39,343.55Z" transform="translate(-47.55 -59.87)"/>
            <path class="cls-26" d="M600.75,330.61a1.82,1.82,0,1,1-1.82-1.81A1.82,1.82,0,0,1,600.75,330.61Z" transform="translate(-47.55 -59.87)"/>
            <path class="cls-27" d="M663.31,317.6a1.81,1.81,0,1,1-1.81-1.81A1.81,1.81,0,0,1,663.31,317.6Z" transform="translate(-47.55 -59.87)"/>
            <path class="cls-27" d="M695.66,317.6a1.81,1.81,0,1,1-1.81-1.81A1.81,1.81,0,0,1,695.66,317.6Z" transform="translate(-47.55 -59.87)"/>
          </g>
        </g>
        <rect class="cls-4" x="291.19" y="193.06" width="5.71" height="2.85"/>
        <rect class="cls-4" x="291.19" y="200.2" width="24.26" height="2.85"/>
        <rect class="cls-4" x="291.19" y="218.75" width="5.71" height="2.85"/>
        <rect class="cls-4" x="291.19" y="225.89" width="24.26" height="2.85"/>
        <rect class="cls-4" x="291.19" y="244.44" width="5.71" height="2.85"/>
        <rect class="cls-4" x="291.19" y="251.57" width="24.26" height="2.85"/>
        <rect class="cls-4" x="291.19" y="270.13" width="5.71" height="2.85"/>
        <rect class="cls-4" x="291.19" y="277.26" width="24.26" height="2.85"/>
        <rect class="cls-4" x="291.19" y="295.81" width="5.71" height="2.86"/>
        <rect class="cls-4" x="291.19" y="302.95" width="24.26" height="2.85"/>
        <rect class="cls-4" x="291.19" y="321.5" width="5.71" height="2.85"/>
        <rect class="cls-4" x="291.19" y="328.64" width="24.26" height="2.85"/>
      </g>
      <g>
        <path class="cls-14" d="M811.57,297.66c-5.44,4.91-9.82,16.29-16.34,56.31-.21,1.32-15.66,11.44-15.66,11.44l29,6,.66-18.37s-1.52-10.41-1.34-40.94A31.16,31.16,0,0,1,811.57,297.66Z" transform="translate(-47.55 -59.87)"/>
        <g>
          <path class="cls-28" d="M877.76,443.09a11.5,11.5,0,0,0,7.57-2.73c3.79-3.31,5.44-9.18,4.89-17.47-.38-5.59-2.58-11.25-4.91-17.24-3.92-10.09-8.36-21.51-6-36.63l-4.32-.66c-2.5,16.27,2.38,28.8,6.29,38.87,2.3,5.92,4.29,11,4.62,15.95.45,6.72-.71,11.51-3.36,13.84a7.28,7.28,0,0,1-5.78,1.63l-.87,4.28A10.87,10.87,0,0,0,877.76,443.09Z" transform="translate(-47.55 -59.87)"/>
          <g>
            <g>
              <path class="cls-29" d="M844.27,477.75,840,484.23l35.73,11.45s2.39-2.28-6.38-6.87C859.16,483.47,844.27,477.75,844.27,477.75Z" transform="translate(-47.55 -59.87)"/>
              <path class="cls-29" d="M837.93,477.75l4.25,6.48-35.73,11.45s-2.38-2.28,6.38-6.87C823,483.47,837.93,477.75,837.93,477.75Z" transform="translate(-47.55 -59.87)"/>
            </g>
            <rect class="cls-29" x="789.82" y="398.58" width="7.47" height="26.58"/>
            <g>
              <path class="cls-30" d="M844.75,479.11l-3.64,6.19,30.59,10.93s2-2.18-5.46-6.56C857.5,484.58,844.75,479.11,844.75,479.11Z" transform="translate(-47.55 -59.87)"/>
              <path class="cls-30" d="M837.45,479.11l3.64,6.19L810.5,496.23s-2-2.18,5.47-6.56C824.71,484.58,837.45,479.11,837.45,479.11Z" transform="translate(-47.55 -59.87)"/>
            </g>
            <path class="cls-31" d="M868.23,498.68a2.6,2.6,0,1,0,2.6-2.59A2.6,2.6,0,0,0,868.23,498.68Z" transform="translate(-47.55 -59.87)"/>
            <path class="cls-31" d="M809,498.68a2.6,2.6,0,1,0,2.6-2.59A2.6,2.6,0,0,0,809,498.68Z" transform="translate(-47.55 -59.87)"/>
            <path class="cls-28" d="M874.51,498.68a2.6,2.6,0,1,0,2.6-2.59A2.6,2.6,0,0,0,874.51,498.68Z" transform="translate(-47.55 -59.87)"/>
            <path class="cls-28" d="M802.69,498.68a2.6,2.6,0,1,0,2.6-2.59A2.59,2.59,0,0,0,802.69,498.68Z" transform="translate(-47.55 -59.87)"/>
          </g>
          <rect class="cls-28" x="790.92" y="388.84" width="5.46" height="9.56"/>
          <path class="cls-28" d="M834.37,443.66A5.32,5.32,0,0,0,839.7,449h3a5.32,5.32,0,0,0,5.32-5.32h0a5.32,5.32,0,0,0-5.32-5.33h-3a5.32,5.32,0,0,0-5.33,5.33Z" transform="translate(-47.55 -59.87)"/>
          <path class="cls-9" d="M800.61,438.79c-.13-.63-.21-4.56-.21-5.24,0-4.3,2.78-7.78,6.21-7.78h69.18c3.42,0,6.2,3.48,6.2,7.78,0,.68-.07,4.61-.2,5.24Z" transform="translate(-47.55 -59.87)"/>
          <path class="cls-28" d="M882.63,440.89c0,1.32-.77,2.39-1.72,2.39H801.48c-1,0-1.72-1.07-1.72-2.39h0c0-1.31.77-2.38,1.72-2.38h79.43c1,0,1.72,1.07,1.72,2.38Z" transform="translate(-47.55 -59.87)"/>
          <g>
            <path class="cls-9" d="M878.76,398.84c-1.71.13-12.55.32-14.42.34-11.87.15-22.09-2.08-22.66-5a101.39,101.39,0,0,1-.31-36.76c.51-2.92,10.88-5.15,23-5,1.91,0,13,.21,14.71.34A99.53,99.53,0,0,0,878.76,398.84Z" transform="translate(-47.55 -59.87)"/>
            <path class="cls-28" d="M880.39,352.76c1.33,0,2.26.64,2.07,1.41a99.33,99.33,0,0,0-.37,43.27c.17.77-.75,1.4-2.05,1.41h0c-1.3,0-2.51-.59-2.67-1.36a99.52,99.52,0,0,1,.28-43.38c.18-.76,1.41-1.37,2.74-1.35Z" transform="translate(-47.55 -59.87)"/>
            <path class="cls-32" d="M880.92,398.82c-.35.11-2.7.2-3.11.21A6.26,6.26,0,0,1,872,393.9a99.66,99.66,0,0,1,.17-36.2,6.38,6.38,0,0,1,5.9-5.12,30,30,0,0,1,3.18.21A99.32,99.32,0,0,0,880.92,398.82Z" transform="translate(-47.55 -59.87)"/>
          </g>
        </g>
        <g>
          <rect class="cls-28" x="798.54" y="469.05" width="11.4" height="17.36" transform="translate(-178.72 411.63) rotate(-30.33)"/>
          <path class="cls-33" d="M776.41,408.51,812,478.13l-12.22,5.21s-43.23-65.74-40.32-70.79S774.58,405.39,776.41,408.51Z" transform="translate(-47.55 -59.87)"/>
          <path class="cls-33" d="M815.63,487l-7.18,4.2L807.17,489l-1.85,4-18.1,10.6s-1.43-3.15,10.47-10.75c3.06-1.94,2.76-7.47,2.76-7.47s.73-2.32,5-.41c1.11.49,6.73-5,6.73-5S815.35,484,815.63,487Z" transform="translate(-47.55 -59.87)"/>
        </g>
        <g>
          <path class="cls-33" d="M858.35,356.53s7.37,22.71,12.16,29.62c3.42,4.93,6.45,15.19,6.07,19.74s-.8,19.34-8.73,20.13c-11.39,1.14-33-.38-33-.38s-12.53-32.28-12.15-36.45,3.05-9.17,3.61-11.23-3.23-10-3.23-10Z" transform="translate(-47.55 -59.87)"/>
          <path class="cls-33" d="M833.67,402.48l-60.92,31.75s-21.1-21.5-12.37-27.2C777.29,396,826.27,378,826.27,378Z" transform="translate(-47.55 -59.87)"/>
          <polygon class="cls-28" points="723.47 430.72 722.58 447.14 709.73 446.72 713.1 428.08 723.47 430.72"/>
          <path class="cls-34" d="M867.09,426l-80.54-.28s-14.78-6.56-7.63-15.17c4.57-5.51,60.29-16.26,76.4-16.45C888,393.74,867.09,426,867.09,426Z" transform="translate(-47.55 -59.87)"/>
          <path class="cls-34" d="M798.74,424.12l-26.18,78.79-15-6.5S770,416.06,779,413.87,799.35,421.55,798.74,424.12Z" transform="translate(-47.55 -59.87)"/>
          <path class="cls-33" d="M770,508.93l-8.73.27-.08-2.66-3.72,2.78-22,.68s.27-3.62,15-4.65c3.79-.26,6.29-5.51,6.29-5.51s1.84-1.77,4.82,2.13c.77,1,8.69-1.22,8.69-1.22S771.28,506,770,508.93Z" transform="translate(-47.55 -59.87)"/>
          <rect class="cls-33" x="860.92" y="378.87" width="7.59" height="1.72" transform="translate(401.47 1167.88) rotate(-87.59)"/>
        </g>
        <path class="cls-13" d="M826.57,293.44c15-.91,33.65,3,36.61,13.62,3.44,12.33,1,55.47,12.05,82.19.42,1-.28,3.89-2.33,3.66-11.88-1.32-48-1.66-48-1.66l-16.67-42-2.66-22.34s-1.67-26.24,7-31.36C814.54,294.38,821,293.78,826.57,293.44Z" transform="translate(-47.55 -59.87)"/>
        <g>
          <polygon class="cls-35" points="567.8 458.62 559.16 458.62 573.41 320.64 585.93 320.64 567.8 458.62"/>
          <polygon class="cls-36" points="585.1 327 579.61 368.79 573.09 323.75 573.41 320.64 584.36 320.64 585.1 327"/>
          <polygon class="cls-35" points="683.49 458.62 674.85 458.62 689.1 320.64 701.62 320.64 683.49 458.62"/>
          <polygon class="cls-36" points="700.78 327 695.29 368.79 688.78 323.75 689.1 320.64 700.04 320.64 700.78 327"/>
          <polygon class="cls-35" points="774.15 458.62 782.78 458.62 768.54 320.64 756.02 320.64 774.15 458.62"/>
          <polygon class="cls-36" points="756.85 327 773.61 369.58 768.86 323.75 768.54 320.64 757.59 320.64 756.85 327"/>
          <rect class="cls-32" x="676.52" y="316.16" width="104.11" height="8.06"/>
          <rect class="cls-9" x="563.12" y="316.16" width="118.21" height="8.06"/>
        </g>
        <path class="cls-37" d="M785.55,357.64a17.65,17.65,0,0,0-8.42,2.33c-3,1.82-5.66,5.76-3,7.9a44.77,44.77,0,0,0,6.88,4.13S791.41,372.28,785.55,357.64Z" transform="translate(-47.55 -59.87)"/>
        <g>
          <g>
            <path class="cls-38" d="M826.31,349.27s-9.09,14.92-26.18,17.22c-3,.4-5.11,3-3.86,4,1.6,1.35,4,1.87,8.13,2.34,8.62,1,20.7-.09,29.83-6.25,13.5-9.12,18-13.45,17.5-18.88S826.31,349.27,826.31,349.27Z" transform="translate(-47.55 -59.87)"/>
            <path class="cls-14" d="M860.8,302.85c2.76,5.59,3.6,14.15,1.89,26.06-1.33,9.23-12.28,23.31-14.28,27.8-.34.75-1.35,4-1.35,4l-11,7.52L818.18,354l7.13-7.57,1.75.37s1.77-4.42,1.72-6.23,9-24.94,14-39.87C845.69,292.1,858.07,297.3,860.8,302.85Z" transform="translate(-47.55 -59.87)"/>
            <path class="cls-13" d="M836.65,347.61l-5.47-2.26-2.26-.79a4,4,0,0,1-1.86,2.24l4.43,1,5,2,5.54,4.47Z" transform="translate(-47.55 -59.87)"/>
          </g>
          <path class="cls-38" d="M801.39,366.59,791.76,363s-3.3,3.09-2.89,4-.84,5.92-.84,5.92l4.31,4.26,4.1-.72s.49-1.52-.83-1.82,1-.93,1.81-1.21S804.34,371.1,801.39,366.59Z" transform="translate(-47.55 -59.87)"/>
        </g>
        <g>
          <path class="cls-39" d="M814.83,374l0-.06v-1.8l-74.66-1.36,0,1.8s0,0,0,.06l.19.34c.93,1.59,2.65,1.89,4.62,1.94l65,1.18c2,0,3.69-.22,4.68-1.76Z" transform="translate(-47.55 -59.87)"/>
          <path class="cls-40" d="M796.83,374a.08.08,0,0,0,0,.05l.18.28a3,3,0,0,0,1.08.93l11.35.21c1.9,0,3.56-.16,4.5-1.41l.19-.27,0-.05v-.88l-17.3-.32Z" transform="translate(-47.55 -59.87)"/>
          <rect class="cls-41" x="767.48" y="353.73" width="1.27" height="37.32" transform="translate(334.33 1073.76) rotate(-88.96)"/>
          <g>
            <path class="cls-17" d="M796.46,371.78l-9-36.87a2.45,2.45,0,0,0-2.19-1.79l-52.38-.95a1.3,1.3,0,0,0-1.32,1.73l9,36.86Z" transform="translate(-47.55 -59.87)"/>
            <path class="cls-39" d="M767.18,352a2.53,2.53,0,0,1-2.55,3.35,4.73,4.73,0,0,1-4.23-3.47,2.53,2.53,0,0,1,2.56-3.35A4.72,4.72,0,0,1,767.18,352Z" transform="translate(-47.55 -59.87)"/>
          </g>
        </g>
        <path class="cls-42" d="M818.32,293.22c.4,3.53,2.69,6.58,5.06,6.7l6.75-.07c2.38-.17,4.6-3.27,4.9-6.81q.72-8.76,1.44-17.54c.32-3.5-1.39-10.52-5-12.56a10.35,10.35,0,0,0-10.34.11c-3.56,2.12-5.1,9.16-4.69,12.66Z" transform="translate(-47.55 -59.87)"/>
        <polygon class="cls-14" points="771.52 237.18 776.21 245.46 792.75 235.27 788.85 230.71 771.52 237.18"/>
        <polygon class="cls-14" points="770.85 234.32 772.16 237.32 768.19 243.96 767.85 238.69 770.85 234.32"/>
        <g>
          <path class="cls-33" d="M820,259l-1-4.24-1.94.38-5.11,1-3.09.6c-3.41.66-5.58,3.7-4.85,6.78l1,4.24,1.94-.38,5.12-1,3.08-.6C818.53,265.1,820.69,262.07,820,259Z" transform="translate(-47.55 -59.87)"/>
          <path class="cls-38" d="M835.8,282.85a5.1,5.1,0,0,1-4.31,6L819,291.29a5.64,5.64,0,0,1-6.67-3.89L807,264.89a5.11,5.11,0,0,1,4.31-6l12.46-2.42a5.64,5.64,0,0,1,6.67,3.89Z" transform="translate(-47.55 -59.87)"/>
          <path class="cls-33" d="M819.34,254.67a6.74,6.74,0,0,1,5.76,1.53l2.12-.42a4.93,4.93,0,0,1,5.82,3.4l2.54,10.67-3.37.66-1-4.35a3.47,3.47,0,0,0-4.09-2.38l-2,.38-5.11,1-3.08.59a6.34,6.34,0,0,1-7.51-4.37l-1.08-4.57Z" transform="translate(-47.55 -59.87)"/>
          <path class="cls-38" d="M831.81,273.49a2.73,2.73,0,0,1,2.3-3.22l.24,0a3,3,0,0,1,3.56,2.07l.77,3.21a2.72,2.72,0,0,1-2.3,3.22l-.25,0a3.16,3.16,0,0,1-3-1.06" transform="translate(-47.55 -59.87)"/>
        </g>
      </g>
      <g>
        <path class="cls-9" d="M170.45,472.56c-3.26-5,.79-9.27,16.26-11.53A126.36,126.36,0,0,1,233,463.3c-31.31-15.17-67.81-36.48-34.48-38.94,10.39-.77,26.37,4.26,44.14,12.12-19.82-16.13-30.73-29.4-18.72-31.86,11.15-2.29,33.9,10.83,58.1,28.26-13.79-14.6-21.78-27.34-15.58-33.35,5-4.91,15.84.72,28.25,11.15-.56-9.17,3.3-14.71,12.09-13.6,8.28,1.05,15,11.67,19.76,24.4,7.94-19.75,28.9-31.83,50.05-25.83,24.84,7,4.88,54.4-6.23,76.91Z" transform="translate(-47.55 -59.87)"/>
        <g>
          <path class="cls-43" d="M281.27,335.48s30.5,34,43.24,113.71" transform="translate(-47.55 -59.87)"/>
          <path class="cls-43" d="M314.91,352.94s18,42,15.6,88.51" transform="translate(-47.55 -59.87)"/>
          <path class="cls-43" d="M285.78,384s29,16.88,27,59.49" transform="translate(-47.55 -59.87)"/>
          <path class="cls-9" d="M277.8,328.85c-6.85,3.58-11.24,8.75-9.78,11.52s8.19,2.13,15-1.46,11.24-8.74,9.79-11.52S284.66,325.27,277.8,328.85Z" transform="translate(-47.55 -59.87)"/>
          <path class="cls-44" d="M279.6,332.29c-2.18,1.13-3.57,2.77-3.11,3.65s2.6.68,4.78-.46,3.57-2.78,3.11-3.66S281.78,331.15,279.6,332.29Z" transform="translate(-47.55 -59.87)"/>
          <path class="cls-9" d="M313.47,350.18c-2.86,1.5-4.68,3.65-4.08,4.8s3.41.89,6.27-.61,4.68-3.64,4.07-4.79S316.32,348.69,313.47,350.18Z" transform="translate(-47.55 -59.87)"/>
          <path class="cls-44" d="M314.21,351.61c-.9.48-1.48,1.16-1.29,1.53s1.08.28,2-.2,1.48-1.15,1.29-1.52S315.12,351.14,314.21,351.61Z" transform="translate(-47.55 -59.87)"/>
          <path class="cls-9" d="M283.71,381.74c-3,2.81-4.59,6.1-3.45,7.34s4.54-.05,7.59-2.87,4.6-6.1,3.46-7.34S286.77,378.92,283.71,381.74Z" transform="translate(-47.55 -59.87)"/>
          <path class="cls-44" d="M285.12,383.26c-1,.9-1.46,1.94-1.09,2.34s1.44,0,2.41-.91,1.46-1.94,1.1-2.34S286.09,382.37,285.12,383.26Z" transform="translate(-47.55 -59.87)"/>
        </g>
        <path class="cls-45" d="M263.42,439c-.13-.11-.27-.2-.4-.3l.21-.08c1.86-.72,3.06-2.1,2.67-3.07s-2.19-1.17-4-.44l-.46.2,0-.22c.3-2-.29-3.69-1.32-3.85s-2.11,1.31-2.4,3.29a4,4,0,0,0-.06.5l-.17-.15c-1.56-1.25-3.35-1.59-4-.78s.08,2.48,1.64,3.73l.41.29-.22.08c-1.85.73-3.05,2.1-2.67,3.07s2.19,1.17,4.05.44l.46-.2c0,.07,0,.15,0,.23-.3,2,.3,3.69,1.33,3.85s2.1-1.32,2.4-3.29a4.23,4.23,0,0,0,.05-.5l.18.15c1.56,1.24,3.35,1.59,4,.78S265,440.2,263.42,439ZM259,440.3a2,2,0,1,1,2.22-1.63A2,2,0,0,1,259,440.3Z" transform="translate(-47.55 -59.87)"/>
      </g>
      <g>
        <path class="cls-9" d="M788.64,272.06H745.88a4.75,4.75,0,0,0-4.75,4.75v33.25a4.76,4.76,0,0,0,4.75,4.76h14.26l2.38,2.37,4.75,4.75,4.75-4.75,2.37-2.37h14.25a4.76,4.76,0,0,0,4.75-4.76V276.81A4.75,4.75,0,0,0,788.64,272.06Z" transform="translate(-47.55 -59.87)"/>
        <path class="cls-45" d="M783.89,295.81v-4.75h-5a11.76,11.76,0,0,0-1.74-4.17l3.54-3.53L777.34,280l-3.54,3.54a11.72,11.72,0,0,0-4.16-1.74v-5h-4.75v5a11.69,11.69,0,0,0-4.17,1.74L757.18,280l-3.36,3.36,3.54,3.54a11.9,11.9,0,0,0-1.74,4.16h-5v4.75h5a11.87,11.87,0,0,0,1.74,4.17l-3.54,3.54,3.36,3.35,3.54-3.53a11.85,11.85,0,0,0,4.17,1.73v5h4.75v-5a11.88,11.88,0,0,0,4.16-1.73l3.54,3.53,3.36-3.35L777.16,300a11.69,11.69,0,0,0,1.74-4.17Zm-16.63,4.75a7.13,7.13,0,1,1,7.13-7.12A7.13,7.13,0,0,1,767.26,300.56Z" transform="translate(-47.55 -59.87)"/>
      </g>
      <path class="cls-1" d="M701.67,59.87a25,25,0,0,0-25,25c0,13.81,25,51.67,25,51.67s25-37.86,25-51.67A25,25,0,0,0,701.67,59.87Zm0,33.78a7.4,7.4,0,1,1,7.4-7.39A7.39,7.39,0,0,1,701.67,93.65Z" transform="translate(-47.55 -59.87)"/>
    </g>
  </g>
</svg>
