<?xml version="1.0" encoding="utf-8"?>
<!-- Generator: Adobe Illustrator 25.0.1, SVG Export Plug-In . SVG Version: 6.00 Build 0)  -->
<svg version="1.1" id="Layer_1" xmlns="http://www.w3.org/2000/svg" xmlns:xlink="http://www.w3.org/1999/xlink" x="0px" y="0px"
	 viewBox="0 0 596.7 500" style="enable-background:new 0 0 596.7 500;" xml:space="preserve">
<style type="text/css">
	.st0{fill:#FFFFFF;}
	.st1{fill:#1D2763;}
	.st2{fill:#263238;}
	.st3{opacity:0.2;fill:#FFFFFF;enable-background:new    ;}
	.st4{fill:#627DF7;}
	.st5{fill:#92E3A9;}
	.st6{fill:#AEBDFB;}
	.st7{fill:#222221;}
	.st8{fill:#E0B594;}
	.st9{fill:#EF5035;}
	.st10{fill:#F7D4C1;}
	.st11{opacity:0.5;fill:#FFFFFF;enable-background:new    ;}
	.st12{opacity:0.2;enable-background:new    ;}
	.st13{fill:#F0F0F0;}
	.st14{fill:#F2A433;}
	.st15{fill:url(#SVGID_1_);}
	.st16{fill:url(#SVGID_2_);}
</style>
<g id="Character">
	<g>
		<g>
			<g>
				<path class="st0" d="M191.5,371.2h-4.8c-0.3,0-0.6-0.3-0.6-0.6s0.3-0.6,0.6-0.6h4.8c0.3,0,0.6,0.3,0.6,0.6
					S191.9,371.2,191.5,371.2z M182,371.2h-4.8c-0.3,0-0.6-0.3-0.6-0.6s0.3-0.6,0.6-0.6h4.8c0.3,0,0.6,0.3,0.6,0.6
					S182.3,371.2,182,371.2L182,371.2z M172.4,371.2h-4.8c-0.3,0-0.6-0.3-0.6-0.6s0.3-0.6,0.6-0.6h4.8c0.3,0,0.6,0.3,0.6,0.6
					S172.7,371.2,172.4,371.2z M162.9,371.2h-4.8c-0.3,0-0.6-0.3-0.6-0.6s0.3-0.6,0.6-0.6l0,0h4.8c0.3,0,0.6,0.3,0.6,0.6
					S163.2,371.2,162.9,371.2z M153.3,371.2h-4.8c-0.3,0-0.6-0.3-0.6-0.6s0.3-0.6,0.6-0.6h4.8c0.3,0,0.6,0.3,0.6,0.6
					S153.6,371.2,153.3,371.2z M143.8,371.2H139c-0.3,0-0.6-0.3-0.6-0.6s0.3-0.6,0.6-0.6h4.8c0.3,0,0.6,0.3,0.6,0.6
					S144.1,371.2,143.8,371.2L143.8,371.2z M134.2,371.2h-4.8c-0.3,0-0.6-0.3-0.6-0.6s0.3-0.6,0.6-0.6h4.8c0.3,0,0.6,0.3,0.6,0.6
					S134.5,371.2,134.2,371.2z M124.6,371.2h-4.8c-0.3,0-0.6-0.3-0.6-0.6s0.3-0.6,0.6-0.6h4.8c0.3,0,0.6,0.3,0.6,0.6
					S125,371.2,124.6,371.2z M115.1,371.2h-4.8c-0.3,0-0.6-0.3-0.6-0.6c0,0,0,0,0,0c0-0.3,0.3-0.6,0.6-0.6h4.8
					c0.3,0,0.6,0.3,0.6,0.6S115.4,371.2,115.1,371.2L115.1,371.2z M196.3,370.7c-0.3,0-0.5-0.2-0.6-0.5c-0.1-0.3,0.1-0.6,0.5-0.7
					c1.5-0.3,3-0.8,4.4-1.4c0.3-0.2,0.7,0,0.8,0.3c0.2,0.3,0,0.7-0.3,0.8c0,0-0.1,0-0.1,0c-1.5,0.6-3.1,1.1-4.7,1.5L196.3,370.7z
					 M105.6,370.6h-0.1c-1.6-0.4-3.1-0.9-4.6-1.6c-0.3-0.1-0.4-0.5-0.3-0.8c0,0,0,0,0,0c0.1-0.3,0.5-0.4,0.8-0.3
					c1.4,0.6,2.9,1.1,4.4,1.5c0.3,0.1,0.5,0.4,0.4,0.7C106.1,370.4,105.9,370.6,105.6,370.6L105.6,370.6z M205,366.9
					c-0.2,0-0.4-0.1-0.5-0.2c-0.2-0.3-0.1-0.6,0.1-0.8c0,0,0,0,0,0c1.3-0.9,2.5-1.9,3.5-3c0.2-0.2,0.6-0.2,0.8,0
					c0.2,0.2,0.2,0.6,0,0.8l0,0c-1.1,1.2-2.4,2.3-3.7,3.2C205.2,366.9,205.1,366.9,205,366.9z M97,366.6c-0.1,0-0.2,0-0.3-0.1
					c-1.3-1-2.5-2.1-3.7-3.3c-0.2-0.2-0.2-0.6,0-0.8c0,0,0,0,0,0c0.2-0.2,0.6-0.2,0.8,0c0,0,0,0,0,0c1,1.1,2.2,2.2,3.5,3.1
					c0.3,0.2,0.3,0.6,0.1,0.8c0,0,0,0,0,0C97.4,366.5,97.2,366.6,97,366.6z M211.5,360c-0.1,0-0.2,0-0.3-0.1
					c-0.3-0.2-0.4-0.5-0.2-0.8c0.8-1.3,1.5-2.7,2.1-4.2c0.1-0.3,0.4-0.5,0.8-0.4c0,0,0,0,0,0c0.3,0.1,0.5,0.5,0.4,0.8
					c-0.6,1.5-1.3,3-2.2,4.4C211.9,359.9,211.7,360,211.5,360z M90.5,359.6c-0.2,0-0.4-0.1-0.5-0.3c-0.8-1.4-1.5-2.9-2-4.4
					c-0.1-0.3,0.1-0.6,0.4-0.8c0.3-0.1,0.6,0.1,0.8,0.4c0.5,1.5,1.2,2.9,2,4.2c0.2,0.3,0.1,0.6-0.2,0.8
					C90.8,359.6,90.7,359.6,90.5,359.6L90.5,359.6z M214.8,351.1L214.8,351.1c-0.4-0.1-0.6-0.4-0.6-0.7c0.2-1.2,0.3-2.4,0.3-3.6
					c0-0.3,0.3-0.6,0.6-0.6h0l0,0c0.3,0,0.6,0.3,0.6,0.6c0,0,0,0,0,0c0,1.3-0.1,2.6-0.3,3.8C215.4,350.9,215.1,351.1,214.8,351.1
					L214.8,351.1z M87.4,350.6c-0.3,0-0.6-0.2-0.6-0.5c-0.2-1.1-0.2-2.2-0.2-3.4v-1.5c0-0.3,0.3-0.6,0.6-0.6c0.3,0,0.6,0.3,0.6,0.6
					v1.5c0,1.1,0.1,2.2,0.3,3.2c0,0.3-0.2,0.6-0.5,0.7L87.4,350.6z M87.1,341.1c-0.3,0-0.6-0.3-0.6-0.6l0,0v-4.8
					c0-0.3,0.3-0.6,0.6-0.6c0.3,0,0.6,0.3,0.6,0.6v4.8C87.8,340.8,87.5,341.1,87.1,341.1C87.2,341.1,87.2,341.1,87.1,341.1
					L87.1,341.1z M87.1,331.5c-0.3,0-0.6-0.3-0.6-0.6c0,0,0,0,0,0v-4.8c0-0.3,0.3-0.6,0.6-0.6c0.3,0,0.6,0.3,0.6,0.6c0,0,0,0,0,0
					v4.8C87.7,331.3,87.5,331.6,87.1,331.5L87.1,331.5z M87.1,322c-0.3,0-0.6-0.3-0.6-0.6l0,0v-4.8c0-0.3,0.3-0.6,0.6-0.6
					c0.3,0,0.6,0.3,0.6,0.6c0,0,0,0,0,0v4.8C87.7,321.7,87.5,322,87.1,322L87.1,322z M87.1,312.5c-0.3,0-0.6-0.3-0.6-0.6l0,0v-4.8
					c0-0.3,0.3-0.6,0.6-0.6c0.3,0,0.6,0.3,0.6,0.6v4.8C87.8,312.2,87.5,312.5,87.1,312.5C87.2,312.5,87.2,312.5,87.1,312.5
					L87.1,312.5z M87.1,302.9c-0.3,0-0.6-0.3-0.6-0.6c0,0,0,0,0,0v-4.8c0-0.3,0.3-0.6,0.6-0.6c0.3,0,0.6,0.3,0.6,0.6c0,0,0,0,0,0
					v4.8C87.8,302.6,87.5,302.9,87.1,302.9C87.2,302.9,87.2,302.9,87.1,302.9L87.1,302.9z M87.1,293.3c-0.3,0-0.6-0.3-0.6-0.6l0,0
					V288c0-0.3,0.3-0.6,0.6-0.6c0.3,0,0.6,0.3,0.6,0.6v4.8C87.7,293.1,87.5,293.4,87.1,293.3L87.1,293.3z M87.1,283.8
					c-0.3,0-0.6-0.3-0.6-0.6l0,0v-4.8c0-0.3,0.3-0.6,0.6-0.6c0.3,0,0.6,0.3,0.6,0.6v4.8C87.8,283.5,87.5,283.8,87.1,283.8
					C87.2,283.8,87.2,283.8,87.1,283.8L87.1,283.8z M87.1,274.2c-0.3,0-0.6-0.3-0.6-0.6c0,0,0,0,0,0v-4.7c0-0.3,0.3-0.6,0.6-0.6
					c0.3,0,0.6,0.3,0.6,0.6v4.8C87.7,274,87.5,274.3,87.1,274.2L87.1,274.2z M87.1,264.7c-0.3,0-0.6-0.3-0.6-0.6l0,0v-4.8
					c0-0.3,0.3-0.6,0.6-0.6c0.3,0,0.6,0.3,0.6,0.6c0,0,0,0,0,0v4.8C87.8,264.4,87.5,264.7,87.1,264.7
					C87.2,264.7,87.2,264.7,87.1,264.7L87.1,264.7z M87.1,255.1c-0.3,0-0.6-0.3-0.6-0.6l0,0v-4.8c0-0.3,0.3-0.6,0.6-0.6
					c0.3,0,0.6,0.3,0.6,0.6v4.8C87.8,254.9,87.5,255.1,87.1,255.1C87.2,255.2,87.2,255.2,87.1,255.1L87.1,255.1z M87.1,245.6
					c-0.3,0-0.6-0.3-0.6-0.6c0,0,0,0,0,0v-4.8c0-0.3,0.3-0.6,0.6-0.6c0.3,0,0.6,0.3,0.6,0.6c0,0,0,0,0,0v4.8
					C87.8,245.3,87.5,245.6,87.1,245.6C87.2,245.6,87.2,245.6,87.1,245.6L87.1,245.6z M87.1,236c-0.3,0-0.6-0.3-0.6-0.6l0,0v-4.8
					c0-0.3,0.3-0.6,0.6-0.6c0.3,0,0.6,0.3,0.6,0.6v4.8C87.8,235.8,87.5,236,87.1,236C87.2,236.1,87.2,236.1,87.1,236L87.1,236z
					 M87.1,226.5c-0.3,0-0.6-0.3-0.6-0.6l0,0v-4.8c0-0.3,0.3-0.6,0.6-0.6c0.3,0,0.6,0.3,0.6,0.6v4.8
					C87.8,226.2,87.5,226.5,87.1,226.5C87.2,226.5,87.2,226.5,87.1,226.5L87.1,226.5z M87.1,216.9L87.1,216.9
					c-0.3,0-0.6-0.3-0.6-0.6l0,0c0-1.6,0.2-3.3,0.5-4.9c0-0.3,0.3-0.6,0.7-0.5s0.6,0.3,0.5,0.7c0,0,0,0.1,0,0.1
					c-0.3,1.5-0.5,3.1-0.5,4.6c0,0.3-0.2,0.6-0.5,0.7C87.2,217,87.2,217,87.1,216.9L87.1,216.9z M89.1,207.6c-0.1,0-0.2,0-0.2,0
					c-0.3-0.1-0.4-0.5-0.3-0.8c0,0,0,0,0,0c0.7-1.5,1.5-2.9,2.4-4.3c0.2-0.3,0.6-0.3,0.8-0.2s0.3,0.6,0.2,0.8l0,0
					c-0.9,1.3-1.7,2.6-2.3,4.1C89.6,207.5,89.4,207.7,89.1,207.6L89.1,207.6z M94.6,199.9c-0.2,0-0.3-0.1-0.4-0.2
					c-0.2-0.2-0.2-0.6,0-0.8c0,0,0,0,0,0c1.2-1.1,2.5-2.1,3.9-3c0.3-0.2,0.6-0.1,0.8,0.2c0.2,0.3,0.1,0.7-0.2,0.8
					c-1.3,0.8-2.5,1.8-3.7,2.9C94.9,199.9,94.7,199.9,94.6,199.9L94.6,199.9z M102.6,194.9c-0.3,0-0.6-0.3-0.6-0.6
					c0-0.2,0.2-0.5,0.4-0.6c1.5-0.6,3.1-1,4.7-1.2c0.3-0.1,0.6,0.1,0.7,0.4s-0.1,0.6-0.4,0.7c0,0-0.1,0-0.1,0
					c-1.5,0.2-3,0.6-4.5,1.2C102.8,194.9,102.7,194.9,102.6,194.9L102.6,194.9z M116.8,193.4H112c-0.3,0-0.6-0.3-0.6-0.6
					c0-0.3,0.3-0.6,0.6-0.6h4.8c0.3,0,0.6,0.3,0.6,0.6C117.4,193.1,117.1,193.4,116.8,193.4L116.8,193.4z"/>
				<path class="st0" d="M208.6,70.5c-0.3,0-0.6-0.3-0.6-0.6c0,0,0,0,0,0v-4.8c0-0.3,0.3-0.6,0.6-0.6l0,0c0.3,0,0.6,0.3,0.6,0.6
					c0,0,0,0,0,0v4.8C209.1,70.2,208.9,70.5,208.6,70.5C208.6,70.5,208.6,70.5,208.6,70.5z M208.6,60.9c-0.3,0-0.6-0.3-0.6-0.6v0
					v-4.8c0-0.3,0.3-0.6,0.6-0.6c0,0,0,0,0,0c0.3,0,0.6,0.2,0.6,0.6c0,0,0,0,0,0v4.8C209.1,60.6,208.9,60.9,208.6,60.9
					C208.6,60.9,208.6,60.9,208.6,60.9z M208.6,51.4c-0.3,0-0.6-0.3-0.6-0.6c0,0,0,0,0,0V46c0-0.3,0.3-0.6,0.6-0.6l0,0
					c0.3,0,0.6,0.3,0.6,0.6c0,0,0,0,0,0v4.8C209.1,51.1,208.9,51.4,208.6,51.4C208.6,51.4,208.6,51.4,208.6,51.4z M342.3,44.7
					c-0.3,0-0.6-0.3-0.6-0.6c0,0,0,0,0,0c0-1.3-0.2-2.7-0.6-3.9c-0.1-0.3,0.1-0.7,0.4-0.8c0.3-0.1,0.6,0.1,0.7,0.4
					c0.4,1.4,0.6,2.8,0.6,4.3C342.9,44.5,342.6,44.7,342.3,44.7z M208.8,41.8h-0.1c-0.3-0.1-0.5-0.4-0.5-0.7c0,0,0,0,0,0
					c0.3-1.6,0.9-3.2,1.8-4.6c0.2-0.3,0.5-0.4,0.8-0.2c0.3,0.2,0.4,0.5,0.2,0.8c0,0,0,0,0,0c-0.8,1.3-1.3,2.8-1.6,4.3
					C209.3,41.6,209.1,41.8,208.8,41.8z M339.7,36.4c-0.2,0-0.4-0.1-0.5-0.2c-0.9-1.2-2-2.3-3.2-3.2c-0.3-0.2-0.3-0.6-0.1-0.9
					s0.6-0.3,0.9-0.1c1.3,1,2.5,2.2,3.5,3.5c0.2,0.3,0.1,0.6-0.1,0.8c0,0,0,0,0,0C339.9,36.3,339.8,36.3,339.7,36.4z M213.6,33.7
					c-0.2,0-0.3-0.1-0.4-0.2c-0.2-0.2-0.2-0.6,0.1-0.8c0,0,0,0,0,0c1.3-1.1,2.7-2,4.2-2.6c0.3-0.1,0.6,0,0.8,0.3
					c0.1,0.3,0,0.6-0.3,0.8c0,0,0,0,0,0c-1.4,0.6-2.7,1.4-3.9,2.4C213.9,33.7,213.7,33.7,213.6,33.7z M332.1,30.8
					c-0.1,0-0.1,0-0.2,0c-1.3-0.4-2.7-0.6-4.1-0.6h-0.4c-0.3,0-0.6-0.3-0.6-0.6c0,0,0,0,0,0c0-0.3,0.3-0.6,0.6-0.6l0,0h0.4
					c1.5,0,3,0.2,4.5,0.7c0.3,0.1,0.5,0.4,0.4,0.7c0,0,0,0,0,0C332.5,30.7,332.3,30.8,332.1,30.8z M222.3,30.2
					c-0.3,0-0.6-0.3-0.6-0.6s0.3-0.6,0.6-0.6l0,0h0.9h4c0.3,0,0.6,0.3,0.6,0.6c0,0,0,0,0,0c0,0.3-0.2,0.6-0.6,0.6c0,0,0,0,0,0h-4
					C222.9,30.2,222.6,30.2,222.3,30.2L222.3,30.2z M322.6,30.2h-4.8c-0.3,0-0.6-0.2-0.6-0.6c0,0,0,0,0,0c0-0.3,0.3-0.6,0.6-0.6
					c0,0,0,0,0,0h4.8c0.3,0,0.6,0.3,0.6,0.6c0,0,0,0,0,0C323.2,29.9,322.9,30.2,322.6,30.2L322.6,30.2z M313,30.2h-4.8
					c-0.3,0-0.6-0.3-0.6-0.6c0,0,0,0,0,0c0-0.3,0.3-0.6,0.6-0.6l0,0h4.7c0.3,0,0.6,0.3,0.6,0.6c0,0,0,0,0,0
					C313.6,29.9,313.3,30.2,313,30.2L313,30.2z M303.5,30.2h-4.8c-0.3,0-0.6-0.3-0.6-0.6c0,0,0,0,0,0c0-0.3,0.3-0.6,0.6-0.6l0,0h4.8
					c0.3,0,0.6,0.3,0.6,0.6c0,0,0,0,0,0C304.1,29.9,303.8,30.2,303.5,30.2L303.5,30.2z M293.9,30.2h-4.8c-0.3,0-0.6-0.2-0.6-0.6
					c0,0,0,0,0,0c0-0.3,0.3-0.6,0.6-0.6c0,0,0,0,0,0h4.8c0.3,0,0.6,0.3,0.6,0.6c0,0,0,0,0,0C294.5,29.9,294.2,30.2,293.9,30.2
					L293.9,30.2z M284.4,30.2h-4.8c-0.3,0-0.6-0.3-0.6-0.6c0,0,0,0,0,0c0-0.3,0.3-0.6,0.6-0.6l0,0h4.8c0.3,0,0.6,0.3,0.6,0.6
					c0,0,0,0,0,0C284.9,29.9,284.7,30.2,284.4,30.2L284.4,30.2z M274.8,30.2H270c-0.3,0-0.6-0.3-0.6-0.6c0,0,0,0,0,0
					c0-0.3,0.3-0.6,0.6-0.6l0,0h4.8c0.3,0,0.6,0.3,0.6,0.6c0,0,0,0,0,0C275.4,29.9,275.1,30.2,274.8,30.2L274.8,30.2z M265.3,30.2
					h-4.8c-0.3,0-0.6-0.2-0.6-0.6c0,0,0,0,0,0c0-0.3,0.3-0.6,0.6-0.6c0,0,0,0,0,0h4.8c0.3,0,0.6,0.3,0.6,0.6c0,0,0,0,0,0
					C265.8,29.9,265.6,30.2,265.3,30.2L265.3,30.2z M255.7,30.2h-4.8c-0.3,0-0.6-0.3-0.6-0.6c0,0,0,0,0,0c0-0.3,0.3-0.6,0.6-0.6l0,0
					h4.8c0.3,0,0.6,0.3,0.6,0.6c0,0,0,0,0,0C256.3,29.9,256,30.2,255.7,30.2L255.7,30.2z M246.2,30.2h-4.8c-0.3,0-0.6-0.3-0.6-0.6
					c0,0,0,0,0,0c0-0.3,0.3-0.6,0.6-0.6l0,0h4.8c0.3,0,0.6,0.3,0.6,0.6c0,0,0,0,0,0C246.7,29.9,246.5,30.2,246.2,30.2L246.2,30.2z
					 M236.6,30.2h-4.8c-0.3,0-0.6-0.3-0.6-0.6c0,0,0,0,0,0c0-0.3,0.3-0.6,0.6-0.6l0,0h4.8c0.3,0,0.6,0.3,0.6,0.6c0,0,0,0,0,0
					C237.2,29.9,236.9,30.2,236.6,30.2L236.6,30.2z"/>
			</g>
			<g>
				<ellipse class="st1" cx="302.8" cy="442" rx="207.3" ry="29"/>
				<ellipse class="st1" cx="302.8" cy="442" rx="207.3" ry="29"/>
			</g>
			<g>
				<g>
					<path class="st0" d="M498.2,104.4v194.9c0,13.3-10.7,24-24,24H131.4c-13.3,0-24-10.7-24-24V104.4c0-0.6,0-1.1,0.1-1.7
						c0.9-12.6,11.4-22.4,24-22.3h342.8c12.6,0,23.1,9.8,24,22.3C498.2,103.3,498.2,103.8,498.2,104.4z"/>
					<path class="st2" d="M474.2,324H131.4c-13.6,0-24.6-11-24.6-24.6v-195c0-0.6,0-1.2,0.1-1.7c0.9-12.9,11.6-22.9,24.5-22.9h342.8
						c12.9,0,23.6,10,24.5,22.9c0,0.6,0.1,1.2,0.1,1.7v194.9C498.8,312.9,487.8,324,474.2,324z M131.4,81
						c-12.3,0-22.5,9.5-23.4,21.8c0,0.6-0.1,1.1-0.1,1.7v194.9c0,12.9,10.5,23.4,23.4,23.4h342.8c12.9,0,23.4-10.5,23.4-23.4V104.4
						c0-0.6,0-1.1-0.1-1.6C496.7,90.5,486.5,81,474.2,81H131.4z"/>
				</g>
				<path class="st2" d="M119,111.7h368.8l0,0v180.1c0,12.4-10.1,22.5-22.5,22.5H141.5c-12.4,0-22.5-10.1-22.5-22.5c0,0,0,0,0,0
					V111.7L119,111.7z"/>
				<path class="st3" d="M487.8,111.7v180.1c0.1,12.4-9.9,22.4-22.3,22.5H141.3c-12.4-0.1-22.3-10.1-22.3-22.5V111.7H487.8z"/>
				<path class="st4" d="M498.1,102.7H107.4c0.9-12.6,11.4-22.4,24-22.3h342.8C486.8,80.4,497.3,90.1,498.1,102.7z"/>
				<path class="st2" d="M155.4,91.5c0,2.4-1.9,4.3-4.2,4.3c-2.4,0-4.3-1.9-4.3-4.2c0-2.4,1.9-4.3,4.2-4.3c0,0,0,0,0,0
					C153.5,87.3,155.4,89.2,155.4,91.5z"/>
				<path class="st2" d="M173.4,91.5c0,2.4-1.9,4.3-4.2,4.3s-4.3-1.9-4.3-4.2c0-2.4,1.9-4.3,4.2-4.3c0,0,0,0,0,0
					C171.5,87.3,173.4,89.2,173.4,91.5L173.4,91.5z"/>
				<circle class="st2" cx="187.1" cy="91.5" r="4.3"/>
				<path class="st2" d="M465.2,314.9H141.5c-11,0-20.4-7.7-22.6-18.5l-0.1,0v-0.2c-0.3-1.4-0.4-2.9-0.4-4.4V111.1h369.9v180.7
					C488.3,304.5,478,314.9,465.2,314.9z M120,296L120,296c2,10.3,11,17.7,21.5,17.7h323.7c12.1,0,21.9-9.8,21.9-21.9V112.3H119.6
					v179.5C119.6,293.2,119.7,294.6,120,296z"/>
				<path class="st2" d="M487.4,139.6c-1.6-0.9-3.3-1.6-5-2.1l-2-9h-8.6l-2,9c-1.7,0.5-3.4,1.2-5,2.1l-7.8-5l-6.1,6.1l4.9,7.8
					c-0.9,1.6-1.6,3.3-2.1,5l-9,2v8.6l9,2c0.5,1.7,1.2,3.4,2.1,5l-5,7.8l6.1,6.1l7.8-5c1.6,0.9,3.3,1.6,5,2.1l2,9h8.6l2-9
					c1.7-0.5,3.4-1.2,5-2.1l0.4,0.2v-41L487.4,139.6z M476.1,170.9c-6.1,0-11.1-5-11.1-11.1c0-6.1,5-11.1,11.1-11.1
					c6.1,0,11.1,5,11.1,11.1c0,0,0,0,0,0C487.2,165.9,482.2,170.9,476.1,170.9C476.1,170.9,476.1,170.9,476.1,170.9z"/>
				<path class="st2" d="M332.5,148.3v-18.1l-19-4.2c-1-3.7-2.5-7.2-4.4-10.6l2.3-3.6h-90l2.2,3.5c-1.9,3.3-3.3,6.9-4.3,10.6
					l-19.1,4.2v18.1l19.1,4.2c1,3.7,2.5,7.3,4.3,10.6l-10.5,16.5l12.9,12.8l16.4-10.5c3.3,1.9,6.9,3.3,10.6,4.4l4.2,19h18.1l4.3-19
					c3.7-1,7.2-2.5,10.5-4.4l16.5,10.5l12.8-12.8l-10.4-16.5c1.9-3.3,3.3-6.9,4.4-10.6L332.5,148.3z M266.5,162.6
					c-12.9,0-23.4-10.5-23.4-23.4s10.5-23.4,23.4-23.4s23.4,10.5,23.4,23.4c0,0,0,0,0,0C289.9,152.1,279.4,162.6,266.5,162.6
					C266.5,162.6,266.5,162.6,266.5,162.6L266.5,162.6z"/>
				<path class="st2" d="M212.2,272.8l0.8-14.4l-14.9-4.2c-0.7-3-1.7-5.8-3.1-8.6l9-12.6l-9.6-10.7l-13.5,7.6
					c-2.6-1.6-5.3-2.9-8.2-3.9l-2.6-15.3l-14.4-0.8l-4.2,15c-3,0.6-5.8,1.7-8.6,3l-12.6-9l-10.7,9.6l7.7,13.5
					c-1.6,2.6-3,5.3-3.9,8.2L119,251v19.5l3.2,0.9c0.7,3,1.7,5.9,3.1,8.6l-6.2,8.7l0.4,7.5v0l0,0l6.4,7.1l13.5-7.6
					c2.6,1.7,5.3,3,8.2,4l2.5,14.7l0,0l0.1,0.6l14.4,0.8l0.4-1.4l0,0l3.8-13.6c3-0.7,5.9-1.7,8.6-3l12.6,9l10.7-9.8l-7.6-13.5
					c1.6-2.6,2.9-5.3,3.9-8.2L212.2,272.8z M174.1,250.3c-6.9-7.6-18.6-8.3-26.3-1.4s-8.3,18.6-1.4,26.3c6.9,7.6,18.6,8.3,26.3,1.4
					c0,0,0,0,0,0C180.3,269.7,180.9,257.9,174.1,250.3L174.1,250.3z"/>
				<path class="st2" d="M327.2,251.3c0.6-2.2,0.9-4.5,0.9-6.8l10.3-5.5l-2.9-10.5l-11.7,0.5c-1.2-2-2.6-3.8-4.2-5.4l3.5-11.2
					l-9.4-5.4l-7.9,8.6c-2.2-0.5-4.5-0.8-6.8-0.9l-5.5-10.3l-10.5,2.9l0.6,11.7c-2,1.2-3.8,2.6-5.4,4.2l-11.2-3.4l-5.4,9.4l8.6,7.9
					c-0.6,2.2-0.8,4.5-0.9,6.8l-10.4,5.4l2.8,10.5l11.7-0.5c1.2,2,2.6,3.8,4.2,5.4l-3.5,11.1l9.4,5.4l7.8-8.5
					c2.2,0.6,4.5,0.8,6.8,0.9l5.5,10.4l10.5-2.8l-0.5-10l-0.1-1.7c2-1.2,3.8-2.6,5.5-4.2l11.2,3.5l4.6-8.1l0.8-1.4L327.2,251.3z
					 M302.5,257.6c-7.5,2-15.2-2.4-17.2-9.9c-2-7.5,2.4-15.2,9.9-17.2c7.4-2,15.1,2.4,17.2,9.8C314.4,247.9,310,255.6,302.5,257.6
					C302.5,257.6,302.5,257.6,302.5,257.6z"/>
				<path class="st2" d="M447.1,269.7l2.4-14.4l-14.6-5.9c-0.3-3.1-1-6.1-2.1-9l10.5-11.7l-8.5-11.9l-14.5,6.1
					c-2.4-1.9-5-3.6-7.8-4.9l-0.8-15.7l-14.4-2.4l-5.9,14.5c-3.1,0.4-6,1.1-8.9,2.1l-11.7-10.5l-11.9,8.5l6.1,14.5
					c-1.7,2.1-3.2,4.4-4.4,6.8c-0.2,0.3-0.3,0.7-0.5,1l-15.7,0.9l-2.4,14.4l2.4,0.9l12.2,4.9c0.3,3.1,1,6.1,2.1,9l-10.5,11.7
					l8.5,11.9l14.5-6.2c2.4,1.9,5,3.6,7.8,4.9l0.8,15.6l14.4,2.4l5.9-14.4c3.1-0.3,6.1-1,9-2.1l11.7,10.5l11.9-8.5l-6.1-14.5
					c2-2.4,3.6-5,4.9-7.9L447.1,269.7z M406.7,269.1c-8.5,6.1-20.2,4.1-26.3-4.3c-6.1-8.5-4.1-20.2,4.3-26.3s20.2-4.1,26.3,4.3
					c0,0,0,0,0,0C417.1,251.2,415.2,263,406.7,269.1L406.7,269.1z"/>
			</g>
			<g>
				<g>
					<g>
						<path class="st5" d="M138.8,163.1H252c7.8,0,14.2,6.4,14.2,14.2v156.8c0,7.8-6.4,14.2-14.2,14.2H138.8
							c-7.8,0-14.2-6.4-14.2-14.2V177.3C124.6,169.5,130.9,163.1,138.8,163.1z"/>
						<path class="st2" d="M252,348.9H138.8c-8.2,0-14.7-6.6-14.8-14.8V177.3c0-8.2,6.6-14.8,14.8-14.8H252
							c8.2,0,14.8,6.6,14.8,14.8v156.8C266.8,342.2,260.2,348.8,252,348.9z M138.8,163.7c-7.5,0-13.6,6.1-13.6,13.6v156.8
							c0,7.5,6.1,13.6,13.6,13.6H252c7.5,0,13.6-6.1,13.6-13.6V177.3c0-7.5-6.1-13.6-13.6-13.6H138.8z"/>
					</g>
					<path class="st4" d="M138.8,163.1H252c7.8,0,14.2,6.4,14.2,14.2v156.8c0,7.8-6.4,14.2-14.2,14.2H138.8
						c-7.8,0-14.2-6.4-14.2-14.2V177.3C124.6,169.5,130.9,163.1,138.8,163.1z"/>
					<g>
						<g>
							<path class="st0" d="M279.3,191.3V348c0,7.8-6.3,14.2-14.2,14.2c0,0,0,0,0,0H151.9c-7.8,0-14.2-6.4-14.2-14.2l0,0V191.3
								c0-7.8,6.3-14.2,14.2-14.2h113.2C273,177.1,279.3,183.5,279.3,191.3C279.3,191.3,279.3,191.3,279.3,191.3z"/>
							<path class="st2" d="M265.1,362.9H151.9c-8.2,0-14.8-6.6-14.8-14.8V191.3c0-8.2,6.6-14.8,14.8-14.8h113.2
								c8.2,0,14.8,6.6,14.8,14.8V348C279.9,356.2,273.3,362.8,265.1,362.9z M151.9,177.7c-7.5,0-13.6,6.1-13.6,13.6V348
								c0,7.5,6.1,13.6,13.6,13.6h113.2c7.5,0,13.6-6.1,13.6-13.6V191.3c0-7.5-6.1-13.6-13.6-13.6H151.9z"/>
						</g>
						<path class="st6" d="M279.3,191.3v8.4H137.8v-8.4c0-7.8,6.3-14.2,14.2-14.2h113.2C273,177.1,279.3,183.5,279.3,191.3
							C279.3,191.3,279.3,191.3,279.3,191.3z"/>
						<rect x="151.1" y="209.4" class="st4" width="34.8" height="5.8"/>
						<rect x="151.1" y="261.8" class="st4" width="34.8" height="5.8"/>
						<rect x="151.1" y="309.3" class="st4" width="34.8" height="5.8"/>
						<g>
							<rect x="151.1" y="223.9" class="st2" width="98.9" height="4.3"/>
							<rect x="151.1" y="232.1" class="st2" width="81.1" height="4.2"/>
							<rect x="151.1" y="240.1" class="st2" width="91.7" height="4.2"/>
							<rect x="151.1" y="248.2" class="st2" width="91.7" height="4.2"/>
						</g>
						<g>
							<rect x="151.1" y="271.4" class="st2" width="98.9" height="4.3"/>
							<rect x="151.1" y="279.6" class="st2" width="81.1" height="4.2"/>
							<rect x="151.1" y="287.7" class="st2" width="91.7" height="4.2"/>
						</g>
						<g>
							<rect x="151.1" y="323.5" class="st2" width="98.9" height="4.3"/>
							<rect x="151.1" y="331.8" class="st2" width="81.1" height="4.2"/>
							<rect x="151.1" y="339.8" class="st2" width="91.7" height="4.2"/>
						</g>
					</g>
				</g>
				<g>
					<g>
						<path class="st0" d="M438.9,68.4v63.3c0,9.3-7.6,16.9-16.9,16.9l0,0H276.1c-9.3,0-16.9-7.6-16.9-16.9c0,0,0,0,0,0V68.4
							c0-9.3,7.6-16.9,16.9-16.9H422C431.4,51.5,438.9,59.1,438.9,68.4C438.9,68.4,438.9,68.4,438.9,68.4z"/>
						<path class="st7" d="M422,149.3H276.1c-9.7,0-17.5-7.8-17.5-17.5V68.4c0-9.7,7.8-17.5,17.5-17.5H422c9.7,0,17.5,7.9,17.5,17.5
							v63.3C439.5,141.5,431.7,149.3,422,149.3z M276.1,52.1c-9,0-16.3,7.3-16.3,16.3v63.3c0,9,7.3,16.3,16.3,16.3H422
							c9,0,16.3-7.3,16.3-16.3V68.4c0-9-7.3-16.3-16.3-16.3H276.1z"/>
					</g>
					<path class="st6" d="M438.9,68.4v1.4H259.2v-1.4c0-9.3,7.6-16.9,16.9-16.9H422C431.4,51.5,438.9,59.1,438.9,68.4
						C438.9,68.4,438.9,68.4,438.9,68.4z"/>
					<path class="st2" d="M285.6,63.7c-1,1-2.7,1-3.7,0c-1-1-1-2.7,0-3.7c1-1,2.6-1,3.7,0C286.6,61,286.6,62.7,285.6,63.7
						C285.6,63.7,285.6,63.7,285.6,63.7z"/>
					<path class="st2" d="M297.6,63.7c-1,1-2.7,1-3.7,0c-1-1-1-2.7,0-3.7c1-1,2.6-1,3.7,0C298.6,61,298.6,62.7,297.6,63.7
						C297.6,63.7,297.6,63.7,297.6,63.7z"/>
					<path class="st2" d="M309.6,63.7c-1,1-2.7,1-3.7,0s-1-2.7,0-3.7s2.7-1,3.7,0c0,0,0,0,0,0C310.7,61.1,310.7,62.7,309.6,63.7z"/>
					<path class="st2" d="M329.4,132.9h-4.8c-0.3,0-0.6-0.3-0.6-0.6v0c0-0.3,0.3-0.6,0.6-0.6c0,0,0,0,0,0h4.8c0.3,0,0.6,0.3,0.6,0.6
						c0,0,0,0,0,0C330,132.6,329.7,132.9,329.4,132.9L329.4,132.9z M319.8,132.9h-4.8c-0.3,0-0.6-0.3-0.6-0.6v0
						c0-0.3,0.3-0.6,0.6-0.6c0,0,0,0,0,0h4.8c0.3,0,0.6,0.3,0.6,0.6c0,0,0,0,0,0C320.4,132.6,320.2,132.9,319.8,132.9L319.8,132.9z
						 M310.3,132.9h-4.8c-0.3,0-0.6-0.3-0.6-0.6c0,0,0,0,0,0c0-0.3,0.2-0.6,0.6-0.6c0,0,0,0,0,0h4.8c0.3,0,0.6,0.3,0.6,0.6
						c0,0,0,0,0,0C310.9,132.6,310.6,132.9,310.3,132.9L310.3,132.9L310.3,132.9z M300.7,132.9h-4.8c-0.3,0-0.6-0.3-0.6-0.6v0
						c0-0.3,0.3-0.6,0.6-0.6c0,0,0,0,0,0h4.8c0.3,0,0.6,0.2,0.6,0.6c0,0,0,0,0,0C301.3,132.6,301.1,132.9,300.7,132.9
						C300.7,132.9,300.7,132.9,300.7,132.9L300.7,132.9z M291.2,132.9h-4.8c-0.3,0-0.6-0.3-0.6-0.6v0c0-0.3,0.3-0.6,0.6-0.6
						c0,0,0,0,0,0h4.8c0.3,0,0.6,0.3,0.6,0.6c0,0,0,0,0,0C291.8,132.6,291.5,132.9,291.2,132.9L291.2,132.9L291.2,132.9z
						 M281.6,132.9h-4.8c-0.3,0-0.6-0.3-0.6-0.6c0,0,0,0,0,0c0-0.3,0.2-0.6,0.6-0.6c0,0,0,0,0,0h4.8c0.3,0,0.6,0.3,0.6,0.6
						c0,0,0,0,0,0C282.2,132.6,281.9,132.9,281.6,132.9C281.6,132.9,281.6,132.9,281.6,132.9L281.6,132.9z M272.1,132.9h-1.4
						c-0.3,0-0.6-0.3-0.6-0.6v0V129c0-0.3,0.3-0.6,0.6-0.6s0.6,0.3,0.6,0.6v2.7h0.8c0.3,0,0.6,0.2,0.6,0.6c0,0,0,0,0,0
						C272.6,132.7,272.4,132.9,272.1,132.9L272.1,132.9z M329.4,128.8c-0.3,0-0.6-0.3-0.6-0.6v0v-4.8c0-0.3,0.3-0.6,0.6-0.6
						s0.6,0.3,0.6,0.6v4.8C330,128.5,329.7,128.8,329.4,128.8C329.4,128.8,329.4,128.8,329.4,128.8L329.4,128.8z M270.6,124.8
						c-0.3,0-0.6-0.3-0.6-0.6c0,0,0,0,0,0v-4.8c0-0.3,0.3-0.6,0.6-0.6s0.6,0.3,0.6,0.6l0,0v4.8C271.2,124.5,271,124.8,270.6,124.8
						C270.6,124.8,270.6,124.8,270.6,124.8L270.6,124.8z M329.4,119.2c-0.3,0-0.6-0.3-0.6-0.6c0,0,0,0,0,0v-4.8
						c0-0.3,0.3-0.6,0.6-0.6s0.6,0.3,0.6,0.6v4.8C330,118.9,329.8,119.2,329.4,119.2C329.4,119.2,329.4,119.2,329.4,119.2
						L329.4,119.2z M270.6,115.2c-0.3,0-0.6-0.3-0.6-0.6c0,0,0,0,0,0v-4.8c0-0.3,0.3-0.6,0.6-0.6s0.6,0.3,0.6,0.6l0,0v4.8
						C271.3,114.9,271,115.2,270.6,115.2C270.7,115.2,270.6,115.2,270.6,115.2L270.6,115.2z M329.4,109.6c-0.3,0-0.6-0.3-0.6-0.6
						c0,0,0,0,0,0v-4.8c0-0.3,0.3-0.6,0.6-0.6s0.6,0.3,0.6,0.6l0,0v4.8C330,109.3,329.8,109.6,329.4,109.6
						C329.4,109.6,329.4,109.7,329.4,109.6L329.4,109.6z M270.6,105.6c-0.3,0-0.6-0.3-0.6-0.6c0,0,0,0,0,0v-4.8
						c0-0.3,0.3-0.6,0.6-0.6s0.6,0.3,0.6,0.6v4.8c0.1,0.3-0.2,0.6-0.5,0.7c0,0-0.1,0-0.1,0L270.6,105.6z M329.4,100
						c-0.3,0-0.6-0.3-0.6-0.6c0,0,0,0,0,0v-4.7c0-0.3,0.3-0.6,0.6-0.6s0.6,0.3,0.6,0.6l0,0v4.8c0,0.3-0.3,0.6-0.6,0.6c0,0,0,0,0,0
						L329.4,100z M270.6,96c-0.3,0-0.6-0.3-0.6-0.6c0,0,0,0,0,0v-4.6c0-0.3,0.3-0.6,0.6-0.6s0.6,0.3,0.6,0.6v4.8
						c0,0.3-0.3,0.6-0.6,0.6c0,0,0,0,0,0L270.6,96z M329.4,90.4c-0.3,0-0.6-0.3-0.6-0.6c0,0,0,0,0,0v-4.6c0-0.3,0.3-0.6,0.6-0.6
						s0.6,0.3,0.6,0.6V90c0,0.3-0.3,0.6-0.6,0.6L329.4,90.4z M270.6,86.4c-0.3,0-0.5-0.1-0.6-0.4v-4.5c0-0.3,0.3-0.6,0.6-0.6
						c0,0,0,0,0,0h0.3c0.3,0,0.6,0.3,0.6,0.6c0,0,0,0,0,0c0,0.2-0.1,0.4-0.3,0.5v4c0,0.3-0.3,0.6-0.6,0.6L270.6,86.4z M328.3,81.9
						h-4.8c-0.3,0-0.6-0.3-0.6-0.6c0,0,0,0,0,0c0-0.3,0.3-0.6,0.6-0.6c0,0,0,0,0,0h4.8c0.3,0,0.6,0.3,0.6,0.6c0,0,0,0,0,0
						c0.1,0.3-0.1,0.7-0.4,0.8c-0.1,0-0.1,0-0.2,0L328.3,81.9z M318.7,81.9h-4.8c-0.3,0-0.6-0.3-0.6-0.6c0,0,0,0,0,0
						c0-0.3,0.3-0.6,0.6-0.6c0,0,0,0,0,0h4.8c0.3,0,0.6,0.3,0.6,0.6c0,0,0,0,0,0c0.1,0.3-0.1,0.7-0.4,0.8c-0.1,0-0.1,0-0.2,0
						L318.7,81.9z M309.2,81.9h-4.8c-0.3,0-0.6-0.3-0.6-0.6c0,0,0,0,0,0c0-0.3,0.3-0.6,0.6-0.6c0,0,0,0,0,0h4.8
						c0.3,0,0.6,0.2,0.6,0.6c0,0,0,0,0,0c0.1,0.3-0.1,0.6-0.4,0.7c-0.1,0-0.1,0-0.2,0L309.2,81.9z M299.6,81.9h-4.8
						c-0.3,0-0.6-0.3-0.6-0.6c0,0,0,0,0,0c0-0.3,0.3-0.6,0.6-0.6c0,0,0,0,0,0h4.8c0.3,0,0.6,0.3,0.6,0.6c0,0,0,0,0,0
						c0.1,0.3-0.1,0.7-0.4,0.8c-0.1,0-0.1,0-0.2,0L299.6,81.9z M290,81.9h-4.8c-0.3,0-0.6-0.3-0.6-0.6c0,0,0,0,0,0
						c0-0.3,0.3-0.6,0.6-0.6c0,0,0,0,0,0h4.7c0.3,0,0.6,0.3,0.6,0.6c0,0,0,0,0,0c0.1,0.3-0.1,0.7-0.4,0.8c-0.1,0-0.1,0-0.2,0
						L290,81.9z M280.5,81.9h-4.8c-0.3,0-0.6-0.3-0.6-0.6c0,0,0,0,0,0c0-0.3,0.3-0.6,0.6-0.6c0,0,0,0,0,0h4.8c0.3,0,0.6,0.3,0.6,0.6
						c0,0,0,0,0,0c0.1,0.3-0.1,0.7-0.4,0.8c-0.1,0-0.1,0-0.2,0L280.5,81.9z"/>
					<g>
						<rect x="338.4" y="81.5" class="st2" width="67.6" height="3.6"/>
						<rect x="338.4" y="88.9" class="st2" width="51.9" height="3.6"/>
						<rect x="338.4" y="96.3" class="st2" width="77.2" height="3.6"/>
						<rect x="338.4" y="103.5" class="st2" width="65.8" height="3.6"/>
					</g>
				</g>
			</g>
			<g>
				<path class="st8" d="M353.5,436.7c0,0-31.4,9-35.8,10.5c-4,1.4-14.8,5.2-22.9,4c-0.8-0.1-1.6-0.3-2.3-0.5
					c-8.2-2.5-11.9-4.7-13-9.9s3-9,7-11.4s25.3-5,25.3-5l5.2,1.6l0,0L353.5,436.7z"/>
				<path class="st0" d="M294.8,451.3c-0.8-0.1-1.6-0.3-2.3-0.5c-8.2-2.5-11.9-4.7-13-9.9s3-9,7-11.4s25.3-5,25.3-5l5.2,1.5
					c-4.7,2.1-22.1,3.3-25.9,5.5s-5.6,6.3-3.4,11.9C288.9,446.4,292.1,449.2,294.8,451.3z"/>
				<path class="st2" d="M298.6,451.9c-6.9,0-13.4-1.6-16.8-6s-3.2-8.1-2.4-10.4c1.4-3.6,4.6-6.3,8.4-7.1c6.5-1.6,19.4-4,26.4-3
					c0.3,0,0.6,0.3,0.6,0.6c0,0.3-0.3,0.6-0.6,0.6c0,0-0.1,0-0.1,0c-6.8-1-19.6,1.4-26,3c-3.4,0.7-6.2,3.1-7.5,6.4
					c-1,2.9-0.2,6.1,2.2,9.2c5.9,7.5,23.1,6.4,32.8,2.3c9.3-3.9,32.8-10,33-10c0.3-0.1,0.6,0.1,0.7,0.4c0.1,0.3-0.1,0.6-0.4,0.7
					c-0.2,0.1-23.6,6.1-32.9,10C310.5,450.8,304.6,451.9,298.6,451.9z"/>
				<path class="st2" d="M295.3,451.4c-0.1,0-0.2,0-0.3-0.1c-0.1-0.1-12.4-7-8.3-16.6c1.9-4.5,9-5.6,15.8-6.6
					c4.1-0.6,8.4-1.3,11.4-2.7c0.3-0.1,0.7,0,0.8,0.3c0,0,0,0,0,0c0.1,0.3,0,0.6-0.3,0.8c0,0,0,0,0,0c-3.1,1.5-7.5,2.1-11.7,2.8
					c-6.5,1-13.2,2-14.9,5.9c-3.7,8.6,7.6,15,7.8,15c0.3,0.2,0.4,0.5,0.2,0.8c0,0,0,0,0,0C295.7,451.3,295.5,451.4,295.3,451.4z"/>
				<path class="st8" d="M449.1,452.7c-0.3,3.2-1.5,6.3-4.7,8.2c-2.2,1.3-5.2,2-9.6,2c-11-0.1-31.7-8-31.7-8l-19.4-10.7l10.1-16
					l2.8-4.4l7.1,1.6c0,0,5.9,3.4,11.8,6s20.3,3.2,25.4,7.3S449.7,447.4,449.1,452.7z"/>
				<path class="st0" d="M449.1,452.7c-0.3,3.2-1.5,6.3-4.7,8.2c0.9-3.2,0.7-6.6-0.5-9.7c-2.1-4.9-9.2-9.1-18.5-9.9s-16.4-5-20.1-7
					c-2.9-1.5-9-4.8-11.6-6.2l2.8-4.4l7.1,1.6c0,0,5.9,3.4,11.8,6s20.3,3.2,25.4,7.3S449.7,447.4,449.1,452.7z"/>
				<path class="st2" d="M436.6,463.5c-1.1,0-2.2-0.1-3.3-0.2c-16.1-2.1-31.6-7.4-45.6-15.6c-0.2-0.2-0.2-0.6,0-0.8
					c0.2-0.2,0.4-0.2,0.6-0.2c13.9,8.1,29.2,13.3,45.1,15.4c3.2,0.4,7.2,0.5,9.5-2c1.2-1.4,1.7-3.3,1.5-5.1c-0.4-5-4.9-8.7-8.8-10.4
					c-3.3-1.3-6.6-2.1-10.1-2.7c-1.4-0.3-2.9-0.5-4.3-0.9c-4.9-1.1-9.6-2.8-14.1-5.1c-0.8-0.4-1.5-0.8-2.2-1.2
					c-2.6-1.6-5.4-2.8-8.4-3.6c-3.4-0.7-7.9,0-9.9,3.3c-0.2,0.3-0.5,0.4-0.8,0.2c0,0,0,0,0,0c-0.3-0.2-0.4-0.5-0.2-0.8c0,0,0,0,0,0
					c2.3-3.8,7.3-4.6,11.2-3.8c3.1,0.8,6,2.1,8.7,3.7c0.8,0.4,1.5,0.8,2.2,1.2c4.4,2.3,9,4,13.8,5.1c1.4,0.3,2.9,0.6,4.3,0.9
					c3.5,0.5,7,1.4,10.4,2.7c4.3,1.9,9.1,5.8,9.6,11.4c0.2,2.2-0.4,4.3-1.8,6C442,463,439.2,463.5,436.6,463.5z"/>
				<path class="st2" d="M442,462.5c-0.2,0-0.4-0.1-0.5-0.3c-0.1-0.3,0-0.6,0.3-0.8c3.5-1.7,6-4.9,6.8-8.7c0.6-4.1-1.5-8.7-5.5-11.7
					s-8.6-4.2-12.9-5.1c-1.1-0.2-2.1-0.4-3.2-0.6c-3.6-0.6-7.2-1.5-10.7-2.7c-1.8-0.7-3.7-1.6-5.5-2.5c-5-2.5-9.8-4.8-14.7-3.5
					c-0.3,0.1-0.6-0.1-0.7-0.4c0,0,0,0,0,0c-0.1-0.3,0.1-0.6,0.4-0.7c5.4-1.4,10.6,1.1,15.6,3.6c1.8,0.9,3.6,1.8,5.4,2.5
					c3.4,1.2,7,2.1,10.5,2.7c1.1,0.2,2.1,0.4,3.2,0.6c4.4,0.9,9.4,2.2,13.4,5.3c4.3,3.3,6.6,8.3,6,12.9c-0.8,4.2-3.6,7.7-7.4,9.6
					C442.2,462.5,442.1,462.5,442,462.5z"/>
				<path class="st9" d="M409.8,279.5L377,267l-0.4-0.2c0,0,0.1-0.9,0.2-2.1c0.2-2.6,0.3-6.9-0.9-8.3c-1.8-2.1-7-0.4-12.1-2.7
					s-14.4,1.8-14.4,1.8s-6.8-1.2-9.7,3.6c-1.5,3.9-1,9.8-1,9.8s-0.2,0.1-0.6,0.2c-3.9,1.5-25.2,9.5-29.7,12.7
					c-5,3.5-10.5,39.6-12.2,50.2s-4.9,20.2-3.3,23.8s24.4,21.2,37.6,25.8s59.8,3.2,59.8,3.2s0.8-0.2,2.1-0.6
					c7.9-2.5,35.9-13,50.7-37.5C443,346.8,428.7,299.6,409.8,279.5z M321.2,340.3c-2.4,1.7-1.1,8.3-1.1,8.3L316,345l10.3-25.3
					l4.4,19.5C330.7,339.1,323.7,338.6,321.2,340.3z M403.7,356.4c-1.1,0.6,3.3-11.6,1.2-14.4s-8.4-2.5-8.4-2.5l0.5-3.3
					c0.1-0.4,3.7-19,3.7-19l1.2-1.5c0,0,12.8,21.9,15,29.6C417,345.2,403.1,356.4,403.7,356.4z"/>
				<path class="st10" d="M347.9,200.5l-16.9,18c0,0-2.3,2.1-1.4,7.3s3.1,9.7,4.7,10c1.3,0.2,2.6,0.3,3.9,0.4c0,0,3.6,7.9,6.2,10.9
					c0,0,0.9,12.1,0.4,15.5c0,0,6.1,5.3,11.8,6s14.6-8.1,14.6-8.1l2.2-10.7c0,0,5.2-7.9,5.5-10s2.7-1.6,3.9-2.6s3.9-5.7,4.3-10
					s0.5-9.4-4.6-7.9c-4.4-1.2-1.6-10.5-1.6-10.5l-7.7-6.8L347.9,200.5z"/>
				<path class="st11" d="M377,267c-0.2,0.7-0.5,1.4-0.9,2c-2.8,5.3-15,15.3-15,15.3l-3.6-11.3l-2,11.3
					c-4.1-1.8-16.5-12.5-16.5-12.5s-0.4-1-0.9-2.6c0.4-0.1,0.6-0.2,0.6-0.2s-0.5-5.9,1-9.8c3-4.9,9.7-3.6,9.7-3.6s9.4-4.1,14.4-1.8
					c5,2.3,10.2,0.5,12.1,2.7c1.8,2.1,0.7,10.5,0.7,10.5L377,267z"/>
				<path class="st12" d="M409.8,279.5L377,267l-0.4-0.2c0,0,0.1-0.9,0.2-2.1l-0.7,4.2l-4.9,6.6c5.2,1.9,10.2,4.1,15.1,6.7
					c4.8,2.6,7.6,7.8,7,13.2l-6,51.7l-2.5,29.4l7.5,7.8c7.9-2.5,35.9-13,50.7-37.5C443,346.8,428.7,299.6,409.8,279.5z M403.7,356.4
					c-1.1,0.6,3.3-11.6,1.2-14.4s-8.4-2.5-8.4-2.5l0.5-3.3c0.1-0.4,3.7-19,3.7-19l1.2-1.5c0,0,12.8,21.9,15,29.6
					C417,345.2,403.1,356.4,403.7,356.4z"/>
				<path class="st12" d="M332.9,342l-5.1-17c0,0-9.1-31.2-15.4-38.9l1.6,21.9c0,0-5.4,26.2-10.4,34s-6,9.7,0,9.7
					s20.8,11.7,20.8,11.7l-1.1-9.8L332.9,342z M320.1,348.6L316,345l10.3-25.3l4.4,19.5c0,0-7-0.5-9.5,1.2S320.1,348.6,320.1,348.6z
					"/>
				<path class="st2" d="M344.4,261h-0.1c-0.3-0.1-0.5-0.4-0.5-0.7c0.9-4.1,0-13.1,0-13.2c0-0.3,0.2-0.6,0.5-0.6c0,0,0,0,0,0
					c0.3,0,0.6,0.2,0.6,0.5c0,0,0,0,0,0c0,0.4,0.9,9.3,0,13.6C345,260.8,344.7,261,344.4,261z"/>
				<path class="st2" d="M372.2,259.8c-0.3,0-0.6-0.3-0.6-0.6c0-3,0.3-6,1-8.9c0.1-0.3,0.4-0.5,0.8-0.4c0.3,0.1,0.4,0.4,0.4,0.7
					c-0.7,2.8-1,5.7-1,8.6C372.7,259.5,372.5,259.8,372.2,259.8C372.1,259.8,372.1,259.8,372.2,259.8L372.2,259.8z"/>
				<path class="st2" d="M358.5,258.7c-2.7,0.1-5.4-0.9-7.3-2.8c-3.1-3.1-6.2-7.4-10.1-12.7l-0.8-1c-4.4-6-3.4-18.5-3.4-19.1
					c0-0.3,0.3-0.6,0.6-0.5c0.3,0,0.6,0.3,0.6,0.6c0,0,0,0,0,0c0,0.1-0.9,12.7,3.2,18.3l0.8,1c3.9,5.3,7,9.5,10,12.6
					c3,3,7.1,2.8,12.3,1.7c4.7-1,14.6-13.5,14.5-19.5c-0.1-5.3,0.2-10.8,0.5-15.5l0.1-2.2c0.3-5-5.1-11.8-5.1-11.9
					c-0.2-0.2-0.2-0.6,0-0.8s0.6-0.2,0.8,0c0,0,0,0,0.1,0.1c0.2,0.3,5.7,7.2,5.4,12.7l-0.1,2.2c-0.3,4.8-0.6,10.2-0.5,15.4
					c0.1,6.6-10.3,19.5-15.4,20.7C362.5,258.4,360.5,258.7,358.5,258.7z"/>
				<path class="st2" d="M360.7,244.1c-0.2,0-0.3-0.1-0.5-0.2c-0.2-0.2-0.2-0.6,0.1-0.8c0,0,0,0,0,0c0.4-0.3,0.9-0.6,1.3-0.8
					c0.2-0.1,0.5-0.3,0.7-0.4c0.5-0.3,0.9-0.8,0.9-1.3s-0.5-0.8-0.9-1.2c-0.2-0.2-0.4-0.3-0.5-0.5c-1.3-1.4-1.6-3.4-1.6-5
					c-0.1-2,0.1-4,0.4-5.9c0.1-0.3,0.4-0.5,0.7-0.5c0.3,0.1,0.5,0.4,0.5,0.7c-0.3,1.9-0.5,3.8-0.4,5.7c0,1.4,0.2,3.1,1.3,4.1
					c0.1,0.1,0.3,0.3,0.5,0.4c0.7,0.4,1.1,1.1,1.3,1.9c0.1,1-0.5,2-1.4,2.5c-0.3,0.2-0.5,0.3-0.8,0.5c-0.4,0.2-0.8,0.4-1.1,0.7
					C361,244,360.9,244,360.7,244.1z"/>
				<path class="st2" d="M358.6,249.8L358.6,249.8c-6-0.9-6.8-5.3-6.8-5.5c-0.1-0.3,0.2-0.6,0.5-0.7c0,0,0,0,0,0
					c0.3-0.1,0.6,0.1,0.7,0.5c0,0,0,0,0,0l0,0c0,0.2,0.7,3.7,5.7,4.5c0.3,0,0.5,0.3,0.5,0.7c0,0,0,0,0,0
					C359.2,249.5,358.9,249.7,358.6,249.8z"/>
				<path class="st2" d="M353,231.2c0,1.2-0.5,2.2-1.2,2.2s-1.1-1-1.1-2.2s0.5-2.2,1.1-2.2S353,230,353,231.2z"/>
				<path class="st2" d="M369.6,231.7c0,1.2-0.5,2.2-1.1,2.2s-1.2-1-1.2-2.2s0.5-2.2,1.2-2.2S369.6,230.5,369.6,231.7z"/>
				<path class="st2" d="M376.2,228.3c-0.4,0-0.7-0.2-1-0.5c-0.8-1.3-2.2-2.2-3.7-2.4c-2.4-0.2-4.4,1.9-4.5,1.9
					c-0.5,0.4-1.3,0.4-1.7-0.2c-0.4-0.4-0.4-1.1,0-1.5c0.1-0.1,2.8-2.8,6.3-2.6c2.2,0.2,4.2,1.4,5.5,3.3c0.4,0.5,0.3,1.3-0.2,1.7
					c0,0,0,0,0,0C376.7,228.2,376.4,228.3,376.2,228.3z"/>
				<path class="st2" d="M346,227.8c-0.7,0-1.2-0.6-1.2-1.2c0-0.4,0.2-0.7,0.5-1c5-3.5,9-1.4,10.4,0.2c0.4,0.5,0.4,1.2-0.1,1.7
					c0,0,0,0,0,0c-0.5,0.4-1.2,0.4-1.7-0.1c-0.3-0.3-2.9-2.9-7.2,0.2C346.5,227.7,346.2,227.8,346,227.8z"/>
				<path class="st2" d="M344.9,252.1c0,0,3.3,9.1,10.7,11.7s17.2-10.8,17.2-10.8l-0.5-1.7c0,0-6.4,8.3-13.5,6.9
					S344.4,247,344.4,247L344.9,252.1z"/>
				<path class="st2" d="M336.1,236.7c-0.7,0-1.4-0.1-2.1-0.4c-0.9-0.4-1.6-1.2-1.9-2.2c-0.1-0.4-0.3-0.9-0.6-1.5
					c-1.6-4.4-4.3-11.6-0.9-14.6c0.8-0.7,1.8-1,2.9-0.8c2.6,0.6,4.3,4.8,4.4,5c0.1,0.3-0.1,0.7-0.4,0.8c-0.3,0.1-0.6,0-0.7-0.3
					c-0.4-1.1-1.9-3.9-3.6-4.3c-0.7-0.1-1.3,0.1-1.8,0.6c-2.7,2.4-0.1,9.4,1.3,13.2c0.2,0.6,0.4,1.1,0.6,1.6
					c0.2,0.7,0.6,1.2,1.3,1.5c1.1,0.4,2.4,0.4,3.5,0c0.3-0.1,0.6,0.1,0.8,0.4s-0.1,0.6-0.4,0.8C337.7,236.5,336.9,236.7,336.1,236.7
					z"/>
				<path class="st2" d="M380.4,238.3c-0.4,0-0.8,0-1.2-0.1c-0.3-0.1-0.5-0.4-0.4-0.8c0.1-0.3,0.3-0.4,0.6-0.4
					c0.1,0,3.6,0.7,4.6-2.2c0.1-0.4,0.4-1,0.6-1.6c1.4-3.8,4-10.9,1.3-13.2c-0.5-0.5-1.1-0.7-1.8-0.6c-1.7,0.4-3.1,3.2-3.6,4.3
					c-0.1,0.3-0.5,0.5-0.8,0.3c0,0,0,0,0,0c-0.3-0.1-0.4-0.5-0.3-0.8c0.1-0.2,1.8-4.4,4.4-5c1-0.2,2.1,0.1,2.9,0.8
					c3.4,2.9,0.7,10.2-0.9,14.6c-0.2,0.6-0.4,1.1-0.6,1.5C384.4,237.2,382.5,238.4,380.4,238.3z"/>
				<path class="st2" d="M337.3,231.2c1.5-0.2,2.9-1.1,3.9-2.3c0.6-1.1,1-2.2,1.1-3.4c0.4-2.3,0.6-4.7,0.6-7c-0.1-0.9,0-1.8,0.2-2.7
					c0.3-0.9,0.8-1.7,1.5-2.4c1.5-1.8,3.4-3.3,4.8-5.2c1.6-1.8,2.4-4.2,2.1-6.5c6.8,5.6,15.7,7.9,24.3,6.3
					c7.7-1.5,15.1-8.3,14.2-16.8c-0.4-2.9-2.5-5.3-5.5-5.9c-3.8-1-7.3,1.1-10.7,2.4c-6.3,2.4-12.5-1.7-18.9-2.4
					c-5.5-0.6-12.1,0.1-15,5.5c0,0-9.8,1.1-14.1,9.2s3.9,19.2,3.9,19.2s3.3-4,7.5,4.1L337.3,231.2z"/>
				<path class="st2" d="M375.2,205.2c0,0-2.5,13.2,4.1,19.6c0,0,1.4-4,2.9-4.9c2.1-4.8,1.7-10.3-1.2-14.7
					C376.2,197.6,375.2,205.2,375.2,205.2z"/>
				<path class="st3" d="M336.2,211.3L336.2,211.3c-0.3,0-0.6-0.3-0.6-0.6c0,0,0,0,0,0c0.4-4.1,2.4-7.8,5.6-10.3
					c3.1-2.8,7.2-4.2,11.4-4c2.8,0.3,5.5,0.7,8.2,1.3c6.4,1.3,12.5,2.5,18.8-0.1c3.4-1.2,6.1-4,7.2-7.5c0.1-0.3,0.4-0.5,0.7-0.4
					c0.3,0.1,0.5,0.4,0.4,0.7c-1.2,3.8-4.1,6.9-7.9,8.3c-6.6,2.7-13.1,1.4-19.4,0.1c-2.7-0.6-5.4-1-8.1-1.3
					c-3.9-0.2-7.6,1.2-10.5,3.7c-2.9,2.4-4.8,5.8-5.2,9.5C336.8,211,336.5,211.3,336.2,211.3z"/>
				<path class="st3" d="M330.5,209.3L330.5,209.3c-0.3,0-0.6-0.3-0.6-0.6c0,0,0,0,0,0c0.3-6.4,4.2-12.1,10.1-14.6
					c0.3-0.1,0.7,0,0.8,0.3c0.1,0.3,0,0.7-0.3,0.8c-5.5,2.3-9.2,7.6-9.4,13.6C331.1,209,330.8,209.3,330.5,209.3z"/>
				<path class="st2" d="M356.6,269.6c-0.1,0-0.1,0-0.2,0c-5.5-2.2-10.4-5.6-14.5-9.9c-0.2-0.2-0.2-0.6,0-0.9c0.2-0.2,0.6-0.2,0.8,0
					c3.9,4.1,8.7,7.3,13.9,9.6c1.5-0.5,11.1-3.7,16.1-10.6c0.2-0.3,0.6-0.3,0.9-0.1s0.3,0.6,0.1,0.9c-5.6,7.7-16.4,10.9-16.9,11.1
					C356.7,269.6,356.7,269.6,356.6,269.6z"/>
				<path class="st2" d="M349.5,241.5c-5.7,0-10.3-4.6-10.3-10.3c0-5.7,4.6-10.3,10.3-10.3c5.7,0,10.3,4.6,10.3,10.3
					C359.8,236.9,355.2,241.5,349.5,241.5z M349.5,222.1c-5,0-9.1,4.1-9.1,9.1c0,5,4.1,9.1,9.1,9.1s9.1-4.1,9.1-9.1c0,0,0,0,0,0
					C358.6,226.1,354.5,222.1,349.5,222.1z"/>
				<path class="st2" d="M371.2,241.5c-5.7,0-10.3-4.6-10.3-10.3c0-5.7,4.6-10.3,10.3-10.3c5.7,0,10.3,4.6,10.3,10.3
					C381.5,236.9,376.9,241.5,371.2,241.5z M371.2,222.1c-5,0-9.1,4.1-9.1,9.1s4.1,9.1,9.1,9.1c5,0,9.1-4.1,9.1-9.1
					C380.3,226.1,376.2,222.1,371.2,222.1z"/>
				<path class="st2" d="M361.2,284.9c-0.1,0-0.1,0-0.2,0c-0.2-0.1-0.3-0.2-0.4-0.4l-2.8-10l-1.8,10c0,0.2-0.2,0.3-0.3,0.4
					c-0.2,0.1-0.4,0.1-0.5,0c-7.6-3.7-16.2-12.2-16.6-12.6c-0.1-0.1-0.2-0.2-0.2-0.4c0-0.4-1-9.8,0.8-12.9c1.1-1.9,2.9-3.4,5.1-3.9
					c0.3-0.1,0.6,0.1,0.7,0.5c0.1,0.3-0.1,0.6-0.5,0.7c0,0,0,0,0,0c-1.8,0.5-3.3,1.7-4.3,3.3c-1.3,2.3-0.9,9.2-0.6,12
					c1.2,1.1,8.7,8.4,15.4,11.9l2.1-11.8c0.1-0.3,0.3-0.5,0.6-0.5c0.3,0,0.5,0.2,0.6,0.4l3.2,11.7c2.5-1.9,11.3-8.7,14-14.5
					c0.3-2.3,0.8-8.4,0-10.5c-0.4-1.3-1.6-2.1-2.9-2.2c-0.3,0-0.6-0.2-0.6-0.5c0,0,0,0,0,0c0-0.3,0.2-0.6,0.6-0.6
					c1.9,0,3.5,1.2,4.1,2.9c1.1,2.8,0.1,10.8,0,11.1c0,0.1,0,0.1,0,0.2c-3.3,7.1-14.7,15.2-15.2,15.5
					C361.4,284.8,361.3,284.9,361.2,284.9z"/>
				<path class="st2" d="M330.5,340.1c-0.3,0-0.5-0.2-0.6-0.5c0-0.2-3.5-23.3-8-32.6c-0.1-0.3,0-0.6,0.3-0.8c0,0,0,0,0,0
					c0.3-0.1,0.6,0,0.8,0.3c0,0,0,0,0,0c4.6,9.5,8,32,8.1,32.9c0,0.3-0.2,0.6-0.5,0.7L330.5,340.1z"/>
				<path class="st2" d="M319.6,298.7c-0.2,0-0.4-0.1-0.5-0.3c-2.1-4.1-4.5-8.1-7.1-11.9c-0.2-0.3-0.1-0.7,0.2-0.8s0.7-0.1,0.8,0.2
					l0,0c2.7,3.9,5.1,7.9,7.2,12.1c0.1,0.3,0,0.6-0.3,0.8c0,0,0,0,0,0C319.8,298.7,319.7,298.7,319.6,298.7z"/>
				<path class="st2" d="M403.7,304c0,0-0.1,0-0.1,0c-0.3-0.1-0.5-0.4-0.4-0.7c0,0,0,0,0,0c0.9-3.9,2.2-7.8,3.9-11.5
					c0.1-0.3,0.5-0.4,0.8-0.3c0,0,0,0,0,0c0.3,0.1,0.4,0.5,0.3,0.8c-1.6,3.6-2.9,7.4-3.8,11.2C404.2,303.9,404,304.1,403.7,304z"/>
				<path class="st2" d="M396.5,340.1L396.5,340.1c-0.4-0.1-0.6-0.4-0.6-0.7c0,0,0,0,0,0c0-0.2,2.5-16.1,5.5-29.1
					c0-0.3,0.3-0.6,0.7-0.5s0.6,0.3,0.5,0.7c0,0,0,0.1,0,0.1c-2.9,13-5.5,28.9-5.5,29.1C397.1,339.9,396.8,340.1,396.5,340.1z"/>
				<path class="st2" d="M400.8,317.7c-0.1,0-0.3,0-0.4-0.1c-0.3-0.2-0.3-0.6-0.1-0.8c2.5-3.3,6-5.7,10-6.8c0.3-0.1,0.6,0.1,0.7,0.4
					c0.1,0.3-0.1,0.6-0.4,0.7c0,0,0,0,0,0c-3.7,1.1-7,3.3-9.4,6.4C401.1,317.6,400.9,317.7,400.8,317.7z"/>
				<path class="st2" d="M397.4,382.3c-0.3,0-0.6-0.3-0.6-0.6c0-0.3,0.2-0.5,0.4-0.5c27.9-7.9,43.6-31.9,45.2-34.5
					c-16.2-49.2-31.6-65.4-32.9-66.7c-12.9-4.5-32.9-12.5-33.1-12.6c-0.3-0.1-0.5-0.5-0.3-0.8c0.1-0.3,0.5-0.5,0.8-0.3
					c0.2,0.1,20.3,8.1,33.2,12.6c0.1,0,0.1,0.1,0.2,0.1c0.2,0.1,16.3,15.8,33.4,67.5c0.1,0.2,0,0.3,0,0.5
					c-0.2,0.3-16.2,26.8-46,35.2L397.4,382.3z"/>
				<path class="st2" d="M402.6,357.9c-0.2,0-0.3-0.1-0.5-0.2c-0.2-0.3-0.2-0.6,0.1-0.8l14.5-12.1c0.3-0.3,8.1-6,16.3-1.9
					c0.3,0.2,0.4,0.5,0.3,0.8c-0.1,0.3-0.5,0.4-0.8,0.3c0,0,0,0,0,0c-7.5-3.8-14.9,1.7-15,1.8l-14.5,12.1
					C402.8,357.8,402.7,357.9,402.6,357.9z"/>
				<path class="st2" d="M417,345.8c-0.3,0-0.5-0.2-0.6-0.5c-3-11.7-14.8-29.2-14.9-29.4c-0.2-0.3-0.1-0.6,0.1-0.8c0,0,0,0,0,0
					c0.3-0.2,0.6-0.1,0.8,0.1c0,0,0,0,0,0c0.1,0.2,12.1,17.9,15.1,29.8c0.1,0.3-0.1,0.6-0.4,0.7L417,345.8z"/>
				<path class="st2" d="M320.2,349.9c-0.2,0-0.3-0.1-0.4-0.2l-4.1-3.9c-4.6-0.3-9.1,1-12.8,3.6c-0.3,0.2-0.6,0.1-0.8-0.2
					c-0.2-0.3-0.1-0.6,0.2-0.8c7.2-4.9,13.6-3.8,13.8-3.8c0.1,0,0.2,0.1,0.3,0.2l4.2,4c0.2,0.2,0.2,0.6,0,0.8
					C320.5,349.7,320.4,349.8,320.2,349.9L320.2,349.9z"/>
				<path class="st2" d="M316,345.8c-0.1,0-0.1,0-0.2,0c-0.3-0.1-0.5-0.4-0.4-0.7c0,0,0,0,0,0c0-0.2,5.3-17.4,10.5-26.3
					c0.2-0.2,0.6-0.2,0.8,0c0.2,0.2,0.2,0.4,0.2,0.6c-5.1,8.8-10.3,25.9-10.4,26.1C316.5,345.7,316.2,345.8,316,345.8z"/>
				<path class="st2" d="M326.5,380.8c-0.1,0-0.2,0-0.3-0.1c-8.9-4.7-34.1-19.6-33.8-26.7c0.2-6.1,10.9-67.9,14.1-71.4
					c2.9-3.2,30.9-13.8,32.1-14.2c0.3-0.1,0.7,0,0.8,0.4c0.1,0.3,0,0.7-0.4,0.8c-8,3-29.4,11.4-31.6,13.9
					c-2.7,3-13.5,64.2-13.8,70.7c-0.2,5.4,19.7,18.4,33.2,25.6c0.3,0.2,0.4,0.5,0.2,0.8C326.9,380.7,326.7,380.8,326.5,380.8z"/>
				<g>
					<path class="st0" d="M410.8,225.6h33.1c3.9,0,7.1,3.2,7.1,7.1v19.4c0,3.9-3.2,7.1-7.1,7.1h-33.1c-3.9,0-7.1-3.2-7.1-7.1v-19.4
						C403.7,228.8,406.9,225.6,410.8,225.6z"/>
					<path class="st2" d="M443.8,259.8h-33.1c-4.2,0-7.7-3.4-7.7-7.7v-19.4c0-4.2,3.4-7.7,7.7-7.7h33.1c4.2,0,7.7,3.4,7.7,7.7v19.4
						C451.5,256.4,448.1,259.8,443.8,259.8z M410.8,226.2c-3.6,0-6.5,2.9-6.5,6.5l0,0v19.4c0,3.6,2.9,6.5,6.5,6.5h33.1
						c3.6,0,6.5-2.9,6.5-6.5v-19.4c0-3.6-2.9-6.5-6.5-6.5l0,0L410.8,226.2z"/>
				</g>
				<path class="st2" d="M418.3,249.5c-0.1,0-0.3-0.1-0.4-0.1l-8.4-7.5c-0.1-0.1-0.2-0.3-0.2-0.5c0-0.2,0.1-0.4,0.3-0.5l9.1-5.7
					c0.3-0.1,0.7,0,0.8,0.3c0.1,0.2,0,0.5-0.2,0.7l-8.4,5.3l7.8,6.9c0.2,0.2,0.3,0.6,0,0.8C418.6,249.4,418.4,249.5,418.3,249.5z"/>
				<path class="st2" d="M435.5,250.1c-0.2,0-0.3-0.1-0.5-0.2c-0.2-0.2-0.2-0.6,0.1-0.8c0,0,0,0,0,0l7.6-6.4l-8.8-5.7
					c-0.3-0.2-0.3-0.6-0.2-0.8c0.2-0.3,0.6-0.4,0.8-0.2l9.5,6.2c0.1,0.1,0.2,0.3,0.3,0.5c0,0.2-0.1,0.4-0.2,0.5l-8.2,6.9
					C435.8,250,435.6,250.1,435.5,250.1z"/>
				<path class="st2" d="M423.3,254.3h-0.2c-0.3-0.1-0.5-0.4-0.4-0.7c0,0,0,0,0,0l6.7-21c0.1-0.3,0.5-0.5,0.8-0.3
					c0.3,0.1,0.4,0.4,0.4,0.7l-6.7,21C423.8,254.2,423.6,254.3,423.3,254.3z"/>
				<path class="st2" d="M360.5,289.5c0,1.1-0.8,1.9-1.9,1.9s-1.9-0.8-1.9-1.9c0-1.1,0.8-1.9,1.9-1.9c0,0,0,0,0,0
					C359.6,287.6,360.5,288.5,360.5,289.5C360.5,289.5,360.5,289.5,360.5,289.5z"/>
				<g>
					<path class="st2" d="M394,391.5h-66c-0.9,0-1.5-0.7-1.5-1.5c0,0,0,0,0,0l0,0c0-0.9,0.7-1.5,1.5-1.5c0,0,0,0,0,0h66.1
						c0.8,0,1.5,0.7,1.5,1.5l0,0C395.6,390.9,394.9,391.5,394,391.5L394,391.5z"/>
					<g>
						<path class="st0" d="M396.4,386.4l8.9-41.6c0.5-2.4-1-4.7-3.4-5.2c-0.3-0.1-0.6-0.1-0.9-0.1h-77.2c-2.4,0-4.4,2-4.4,4.4
							c0,0.3,0,0.6,0.1,0.9l7.9,40.2c0.4,2,2.2,3.5,4.2,3.6l60.4,1.4C394.1,390,395.9,388.5,396.4,386.4z"/>
						<path class="st2" d="M392,390.5h-0.1l-60.4-1.4c-2.4,0-4.4-1.7-4.8-4l-7.9-40.2c-0.6-2.7,1.2-5.3,3.9-5.9
							c0.3-0.1,0.7-0.1,1-0.1h77.2c2.8,0,5,2.2,5.1,4.9c0,0.4,0,0.8-0.1,1.2l-8.8,41.5l0,0C396.5,388.9,394.4,390.6,392,390.5z
							 M323.7,340.1c-2.1,0-3.8,1.7-3.8,3.8c0,0.3,0,0.5,0.1,0.8l7.9,40.2c0.3,1.8,1.9,3.1,3.7,3.1l60.4,1.4l0,0
							c1.8,0,3.4-1.2,3.8-3l8.9-41.6c0.4-2.1-0.9-4.1-2.9-4.5c-0.3-0.1-0.5-0.1-0.8-0.1L323.7,340.1z M396.4,386.4L396.4,386.4z"/>
					</g>
					<path class="st2" d="M368.2,363.5c0,3.4-2.8,6.2-6.2,6.2c-3.4,0-6.2-2.8-6.2-6.2c0-3.4,2.7-6.2,6.1-6.2
						C365.4,357.3,368.2,360,368.2,363.5C368.2,363.4,368.2,363.4,368.2,363.5z"/>
					<path class="st2" d="M389.5,344h-9.2c-0.3,0-0.6-0.3-0.6-0.6s0.3-0.6,0.6-0.6h9.2c0.3,0,0.6,0.3,0.6,0.6S389.8,344,389.5,344z"
						/>
					<path class="st2" d="M371.3,344h-34.8c-0.3,0-0.6-0.3-0.6-0.6s0.3-0.6,0.6-0.6h34.8c0.3,0,0.6,0.3,0.6,0.6S371.7,344,371.3,344
						z"/>
				</g>
				<path class="st2" d="M396.5,430.5l-7,18.5c0,0-17.9-4.5-40.9-9.2c-24-4.9-49.1-11.3-62.2-34.1c-1.6-2.8-2.6-6.1-1.9-9.2
					c1.9-7.9,12.1-10,18.9-10.8c4.3-0.5,8.5-0.7,12.8-0.7c2.2,0,9.4-1.2,11.1,0.1c2.6,1.9,5.4,3.6,8.4,5c3.8,1.6,59.9-1.5,59.9-1.5
					c1-2.1,1.6-4.4,1.8-6.7c8.8-4.5,29.2-8.3,37.9-6.6c13.6,2.6,21.5,10.5,20,18.8S423.8,424.5,396.5,430.5z"/>
				<path class="st0" d="M396.5,431.1h-0.1c-0.2,0-17.3-4.7-31.2-14c-2.2-1.5-4.4-3.1-6.5-4.6c-10.9-7.8-21.2-15.2-37.3-13.4
					c-0.3,0-0.6-0.2-0.6-0.6c0-0.3,0.2-0.6,0.5-0.6c16.5-1.9,27,5.6,38.1,13.6c2.1,1.5,4.3,3.1,6.5,4.6
					c13.7,9.3,30.7,13.8,30.8,13.9c0.3,0.1,0.5,0.4,0.4,0.7C397,431,396.8,431.1,396.5,431.1z"/>
				<path class="st0" d="M362.3,415c-0.3,0-0.6-0.3-0.6-0.6c0-0.3,0.2-0.5,0.4-0.6c7.6-2.2,13.4-6.8,19.6-11.6
					c0.9-0.7,1.7-1.4,2.6-2c6.3-4.9,14.7-11.1,24-15.8c0.3-0.1,0.7,0,0.8,0.3c0.1,0.3,0,0.6-0.3,0.8c0,0,0,0,0,0
					c-9.2,4.7-17.6,10.8-23.8,15.6l-2.6,2c-6.2,4.9-12.1,9.5-20,11.8L362.3,415z"/>
				<path class="st2" d="M361.8,233.3h-2.6c-0.3,0-0.6-0.3-0.6-0.6c0,0,0,0,0,0c0-0.3,0.3-0.6,0.6-0.6l0,0h2.6
					c0.3,0,0.6,0.3,0.6,0.6c0,0,0,0,0,0C362.4,233,362.1,233.3,361.8,233.3C361.8,233.3,361.8,233.3,361.8,233.3z"/>
			</g>
		</g>
		<g>
			<g>
				<circle class="st13" cx="234.2" cy="363.5" r="43.9"/>
				<path class="st14" d="M234.2,408.8c-25,0-45.3-20.3-45.3-45.3s20.3-45.3,45.3-45.3s45.3,20.3,45.3,45.3l0,0
					C279.5,388.5,259.2,408.7,234.2,408.8z M234.2,321c-23.4,0-42.4,19-42.4,42.5c0,23.4,19,42.4,42.5,42.4
					c23.4,0,42.4-19,42.4-42.4C276.7,340,257.7,321,234.2,321C234.2,321,234.2,321,234.2,321L234.2,321z"/>
			</g>
			<g>
				
					<linearGradient id="SVGID_1_" gradientUnits="userSpaceOnUse" x1="-562.0694" y1="-718.6976" x2="-561.9194" y2="-718.5476" gradientTransform="matrix(189.38 0 0 189.81 106655.8438 136756.3281)">
					<stop  offset="0" style="stop-color:#627CB0"/>
					<stop  offset="1" style="stop-color:#55698C"/>
				</linearGradient>
				<path class="st15" d="M234,334.5c-14.8,0-13.9,6.4-13.9,6.4v6.6h14.1v2h-19.7c0,0-9.5-1.1-9.5,13.8s8.2,14.3,8.2,14.3h5v-6.9
					c0,0-0.3-8.2,8.1-8.2h14c0,0,7.9,0.1,7.9-7.6v-12.8C248.3,342.2,249.4,334.5,234,334.5z M226.2,339c1.4,0,2.5,1.1,2.5,2.5
					s-1.1,2.5-2.5,2.5s-2.5-1.1-2.5-2.5l0,0l0,0C223.7,340.1,224.8,339,226.2,339L226.2,339z"/>
				
					<linearGradient id="SVGID_2_" gradientUnits="userSpaceOnUse" x1="-562.3287" y1="-718.9385" x2="-562.1586" y2="-718.7886" gradientTransform="matrix(189.38 0 0 189.81 106721.8438 136820.6094)">
					<stop  offset="0" style="stop-color:#EDDC67"/>
					<stop  offset="1" style="stop-color:#E1BF4E"/>
				</linearGradient>
				<path class="st16" d="M234.4,392.5c14.8,0,13.9-6.4,13.9-6.4v-6.6h-14.1v-2h19.7c0,0,9.5,1.1,9.5-13.9s-8.3-14.4-8.3-14.4h-4.9
					v6.9c0,0,0.2,8.3-8.1,8.3h-14c0,0-7.9-0.1-7.9,7.6v12.8C220.1,384.8,218.9,392.5,234.4,392.5L234.4,392.5z M242.2,388
					c-1.4,0-2.5-1.1-2.5-2.5c0-1.4,1.1-2.5,2.5-2.5c1.4,0,2.5,1.1,2.5,2.5l0,0C244.7,386.9,243.6,388,242.2,388
					C242.2,388,242.2,388,242.2,388L242.2,388L242.2,388z"/>
			</g>
		</g>
	</g>
</g>
</svg>
