<svg id="Layer_1" data-name="Layer 1" xmlns="http://www.w3.org/2000/svg" width="2818" height="1329.78" viewBox="0 0 2818 1329.78">
  <defs>
    <style>
      .cls-1 {
        fill: #ebf2f9;
      }

      .cls-2 {
        fill: #82b378;
      }

      .cls-3 {
        fill: #a8d29f;
      }

      .cls-4 {
        fill: #f1a34f;
      }

      .cls-5 {
        fill: #ffb973;
      }

      .cls-6 {
        fill: #d86713;
      }

      .cls-7 {
        fill: #4a75cb;
      }

      .cls-8 {
        fill: #afcdfb;
      }

      .cls-10, .cls-9 {
        fill: #699dee;
      }

      .cls-10 {
        opacity: 0.2;
      }

      .cls-11 {
        fill: #1c468a;
      }

      .cls-12 {
        fill: #c65447;
      }

      .cls-13 {
        fill: #e9f3fe;
      }

      .cls-14 {
        fill: #283250;
      }

      .cls-15 {
        fill: #e49963;
      }

      .cls-16 {
        fill: #aa413e;
      }

      .cls-17 {
        fill: #d68d5d;
      }

      .cls-18 {
        fill: #fff;
      }
    </style>
  </defs>
  <g>
    <path class="cls-1" d="M2266.76,1238.69s271.38,49.83,357.77-138.71c112.08-244.62-118.18-430.1-294.78-395.54C1944.93,779.74,2037.59-51,1420,118.57,1246.36,166.24,777.16-116.95,646.3,337.13,615.19,445.1,504.94,457,344.9,525.51,31.68,659.59,174.9,1241,398.7,1243.23S2266.76,1238.69,2266.76,1238.69Z"/>
    <g>
      <g>
        <path class="cls-2" d="M658,966.62s44-51.34,2.72-84c0,0-30.16-18.26-54.76-16.77,0,0,34.85,58.43,23.58,64.24s-34.14-67.91-34.14-67.91-68.63-6.65-90.71,4c0,0,58.67,48,46.32,50.87s-75.74-44.26-75.74-44.26-63.88,10.87-60.47,49.83,25.42,51,35.09,50,66.27-22.64,67.5-14.71-32.83,33.83-56.69,35c0,0,45,49.67,75,35.33s32.49-37,51.14-45.57,34.59-8.5,26.89.19-41.47,17.13-52.14,36-20.25,31.6,10.72,26.94,81.3-27.32,83.51-53.26Z"/>
        <g>
          <path class="cls-2" d="M446.2,923.69S619.7,917,658,966.62c0,0,8.48,25.38,34.55,48.49l4.07,11.07s-30.07-31.7-40.83-33.61C655.8,992.57,672.63,931.09,446.2,923.69Z"/>
          <path class="cls-2" d="M692.56,1015.11s37.24,27.54,39.83,76.75l-6.76.6s-11.89-50.88-33.39-70.78S692.56,1015.11,692.56,1015.11Z"/>
        </g>
      </g>
      <g>
        <path class="cls-3" d="M811.86,902.06s-70-39.2-37.33-92.4c0,0,26.13-32.67,54.13-41.07,0,0-14.93,79.34,0,81.2s10.27-89.6,10.27-89.6,73.73-35.46,102.66-32.66c0,0-45.73,77.46-30.79,75.6s66.26-80.27,66.26-80.27,75.6-14,87.73,30.8-7.46,67.2-18.66,70-83.07,1.86-81.2,11.2,50.4,24.26,77.46,15.86c0,0-29.86,73.74-69.06,70s-51.33-28-75.6-29.86-42,4.66-29.87,11.2,53.2,2.14,72.8,18.8,35.47,26.93-.93,34.4-101.73,2.8-114.8-25.2Z"/>
        <g>
          <path class="cls-2" d="M1030.26,767.66s-196,63.47-218.4,134.4c0,0,.94,31.73-18.66,68.13v14s20.53-47.6,31.73-54.13C824.93,930.06,781.07,868.46,1030.26,767.66Z"/>
          <path class="cls-2" d="M793.2,970.19s-30.23,45.9-13,101.77l7.78-2.09s-7.55-61.54,8.27-92.49S793.2,970.19,793.2,970.19Z"/>
        </g>
      </g>
      <g>
        <path class="cls-3" d="M700.5,848s92.27-51.68,49.21-121.8c0,0-34.44-43.06-71.35-54.13,0,0,19.68,104.57,0,107S664.82,661,664.82,661s-97.19-46.75-135.33-43.06c0,0,60.29,102.12,40.6,99.66s-87.35-105.81-87.35-105.81-99.65-18.45-115.64,40.6,9.84,88.58,24.6,92.27,109.5,2.46,107,14.77-66.44,32-102.12,20.91c0,0,39.37,97.19,91,92.27s67.67-36.91,99.66-39.37,55.36,6.15,39.37,14.77-70.13,2.82-96,24.78S484,908.28,532,918.12s134.1,3.69,151.33-33.21Z"/>
        <g>
          <path class="cls-2" d="M412.62,670.84S671,754.5,700.5,848c0,0-1.23,41.83,24.61,89.81v18.45S698,893.52,683.28,884.91C683.28,884.91,741.1,803.71,412.62,670.84Z"/>
          <path class="cls-2" d="M725.11,937.81S765,998.31,742.24,1072L732,1069.21s10-81.12-10.9-121.92S725.11,937.81,725.11,937.81Z"/>
        </g>
      </g>
      <path class="cls-4" d="M703.61,1231.67a180.74,180.74,0,0,1-180.74-180.74H884.36C884.36,1150.75,803.43,1231.67,703.61,1231.67Z"/>
      <path class="cls-5" d="M659.14,1230.29a180.89,180.89,0,0,0,203.19-179.36h-44.9C817.43,1143.15,748.36,1219.23,659.14,1230.29Z"/>
      <path class="cls-4" d="M542.67,1218.57H864.55a22.3,22.3,0,0,1,22.3,22.3H520.37A22.31,22.31,0,0,1,542.67,1218.57Z"/>
      <rect class="cls-6" x="518.76" y="1050.93" width="371.54" height="5.55"/>
    </g>
    <g>
      <path class="cls-7" d="M1107.27,530.94,1050.92,1201s-5.9,40.61,24.31,40.69c49.67.12,247.25,0,247.25,0s-37.39-8.46-36.94-27.48c.54-22.43,65.87-689.6,65.87-689.6Z"/>
      <path class="cls-8" d="M1338.51,1229.52c-9.77,0-198.48.62-246.86,0-21.08-.26-24.78-18.74-25-30.71a59.55,59.55,0,0,1,.64-10l1.47-17.42,3.73-44.38,3.3-39.22,4.24-50.39,3.57-42.54,40-476.11,244.14-6.34s-27.52,279.21-47,482.45c-2.17,22.65-4.24,44.36-6.15,64.63q-.93,9.7-1.8,19c-1.8,19.23-3.45,36.88-4.89,52.48-.75,8.21-1.45,15.85-2.08,22.84-2.49,27.41-3.94,44.92-4,48.24a28.23,28.23,0,0,0,.47,5.43C1306.45,1228.82,1334.84,1229.52,1338.51,1229.52Z"/>
      <polygon class="cls-8" points="1686.47 166.32 514.38 166.32 651.64 717.69 670.44 793.2 734.37 1050.01 1922.12 1050.01 1686.47 166.32"/>
      <polygon class="cls-9" points="514.38 166.32 495.35 172.66 709.08 1069.2 734.37 1050.02 514.38 166.32"/>
      <polygon class="cls-7" points="709.08 1069.2 1889.51 1069.2 1922.11 1050.02 734.37 1050.02 709.08 1069.2"/>
      <rect class="cls-7" x="1123.61" y="1229.79" width="255.58" height="12.15" transform="translate(2502.81 2471.72) rotate(180)"/>
      <polygon class="cls-7" points="1314.22 1069.19 1312.9 1078.48 1072.54 1127.04 1075.84 1087.82 1077.41 1069.19 1314.22 1069.19"/>
      <path class="cls-9" d="M1338.51,1229.52c-9.77,0-198.48.62-246.86,0-21.08-.26-24.78-18.74-25-30.71l239.23-45c-2.49,27.41-3.94,44.92-4,48.24a28.23,28.23,0,0,0,.47,5.43C1306.45,1228.82,1334.84,1229.52,1338.51,1229.52Z"/>
      <polygon class="cls-10" points="1240.69 876.41 734.37 1050.02 691.13 876.31 1240.69 876.41"/>
      <polygon class="cls-9" points="1686.47 166.32 514.38 166.32 691.03 876.31 1876.65 876.53 1686.47 166.32"/>
    </g>
    <path class="cls-7" d="M1359.73,966.31c-3.39-17.42-20.25-31.54-37.67-31.54s-28.79,14.12-25.4,31.54,20.24,31.54,37.66,31.54S1363.11,983.73,1359.73,966.31Z"/>
    <polygon class="cls-11" points="1821.37 845.76 723.93 845.76 599.64 350.65 590.12 312.69 581.99 280.3 562.93 204.37 1644.55 204.37 1665.48 280.3 1674.41 312.69 1684.87 350.65 1821.37 845.76"/>
    <polygon class="cls-12" points="1644.55 204.37 562.93 204.37 581.99 280.3 1665.48 280.3 1644.55 204.37"/>
    <g>
      <path class="cls-13" d="M614.8,229.19c-5.24,0-8.43,4.25-7.13,9.49s6.62,9.5,11.86,9.5,8.44-4.25,7.13-9.5S620,229.19,614.8,229.19Z"/>
      <path class="cls-13" d="M646.34,229.19c-5.24,0-8.43,4.25-7.13,9.49s6.62,9.5,11.86,9.5,8.44-4.25,7.13-9.5S651.58,229.19,646.34,229.19Z"/>
      <path class="cls-13" d="M692.16,238.68c-1.3-5.24-6.61-9.49-11.86-9.49s-8.43,4.25-7.12,9.49,6.61,9.5,11.86,9.5S693.47,243.93,692.16,238.68Z"/>
    </g>
    <path class="cls-14" d="M2610.91,1244.08H207.09a2.16,2.16,0,0,1-2.15-2.15h0a2.15,2.15,0,0,1,2.15-2.14H2610.91a2.15,2.15,0,0,1,2.15,2.14h0A2.16,2.16,0,0,1,2610.91,1244.08Z"/>
    <path class="cls-3" d="M2296.36,703.43c-86.64,11.43-45.41,111.89-177.62,252.05-95.58,101.35-305.26-83.78-412.64,20.3-93.32,90.45,34.34,265.91,34.34,265.91h562.95C2567.68,1050.27,2368.59,693.89,2296.36,703.43Z"/>
    <g>
      <g>
        <path class="cls-15" d="M1637.51,1118.77c-2.25,3.59-5.56,5-9.6,4.73h-.05c-7.48-.41-17.43-6.2-27.76-13.29-1.32-.91-2.52-1.71-3.61-2.39-.29-.18-.57-.36-.86-.52l-.66-.4c-10.67-6.3-11.52-2.47-32.56-13.22-24-12.28-28-24.48-27.38-28.49.55-3.4,12.22-.35,25.32,3l1.91.48c1.74.45,3.5.88,5.25,1.31,15.69,3.8,21.35-.09,40.64-7.93,15.68-6.36,82.58-52.24,82.58-52.24l16.22,32.47s-55.83,28.06-61.48,42.16c-3,7.54-1,14.36-2.85,21.28-.12.48-.25,1-.4,1.44C1641,1111.12,1639.77,1115.18,1637.51,1118.77Z"/>
        <path class="cls-6" d="M1637.51,1118.77c-2.25,3.59-5.56,5-9.6,4.73h-.05c-7.63-1-17.48-6.56-27.7-13.35-1.33-.88-2.55-1.65-3.67-2.33-.29-.18-.57-.36-.86-.52l-.66-.4c-10.67-6.3-11.52-2.47-32.56-13.22-24-12.28-28-24.48-27.38-28.49.55-3.4,12.22-.35,25.32,3a79.54,79.54,0,0,0,33.07,24.79c17,6.62,36.78,8.49,49.2,12.74-.12.48-.25,1-.4,1.44C1641,1111.12,1639.77,1115.18,1637.51,1118.77Z"/>
        <path class="cls-15" d="M1693.9,1232.19c-1.62,11.14-17.43,10.14-35.22,6.8s-13.34,1.52-38.48.1-33.21-10.34-34.17-14c-.86-3.26,11.42-5.09,24.59-7.33,1.65-.27,3.31-.57,5-.86,14.85-2.68,25.28-12.92,38.44-21.57,12.46-8.2,30-39.81,30-39.81l34.42.87s-16.52,28.29-22.84,40.53c-3.72,7.21-3,16.43-2.11,23.54A44.34,44.34,0,0,1,1693.9,1232.19Z"/>
        <path class="cls-6" d="M1659,1240.27c-17.89-2.77-13.28,2-38.45,1.35s-33.59-13.43-34.67-17.07c-1-3.23,6.2-4.12,19.29-6.78l5.2-1.1s15.92,13.5,36.72,12.2c17-1,34.44-7.44,46.14-8.26a43.83,43.83,0,0,1,.75,11.72C1692.68,1243.52,1676.84,1243,1659,1240.27Z"/>
        <path class="cls-15" d="M1760.62,718.77s-8.18-20-17.17-20.85-37.62-5.31-39.66-1.22,0,18.8,6.13,24.12,44.16,13.9,44.16,13.9Z"/>
        <path class="cls-16" d="M1823.8,898.81,1654.52,1027a67.67,67.67,0,0,0,8.37,20.73c5.66,8.76,16.23,17.58,16.23,17.58S1856.85,992.66,1885.21,949,1823.8,898.81,1823.8,898.81Z"/>
        <path class="cls-12" d="M2101.3,909.91s-216.09-60.37-262.6-42.56-173.46,308.18-173.46,308.18,3.44,4.09,12.37,6.91c8.31,2.61,28,1.36,28,1.36S1828,1067,1841.52,1034.1s18-63.75,33.45-61.51,201,64.25,239.91,19.28,25.17-99.93,25.17-99.93Z"/>
        <path class="cls-11" d="M1978.45,588.55c-3.39-7-7.19-19.46-9-41.65.28,2.21,4.11,30.19,14.87,46,44.2,29,128.92,125.92,127.24,144.28,0,0,29.85-50.61,30.36-50.91,0,0,55-70-10.19-110.1-33.16-20.38-33-46.53-31.61-69.25s-9-120.53-75.47-94.94c0,0-10.66-4.73-15.43-4,0,0,3.9.74,5.88,2.79-7.7-.45-18.71.11-27.9,5.34C1962.81,430,1941,554.1,1978.45,588.55Z"/>
        <path class="cls-15" d="M1986.89,594.38c-.22.1,21.35,11.29,37.57,6.86,15.25-4.16,25.22-24,25-24-6.46-1.28-8.32-10.16-8.19-48.32l-2.92.58-49.11,9.73s1.12,15.45,1.15,30C1990.43,581.48,1989.69,593.07,1986.89,594.38Z"/>
        <path class="cls-17" d="M1989.25,539.24s1.12,15.45,1.15,30c27.48-.77,42-25.84,48-39.74Z"/>
        <path class="cls-11" d="M2043.43,524.16s14.41-22.75,17.86-42.21c2.47-13.89-4.6-65.39-56.35-58a70.32,70.32,0,0,0-29.16,11c-11.23,7.59-27.45,24-9.32,68.91l4.71,15.18Z"/>
        <path class="cls-15" d="M1980.07,553s65,1.07,65.07-39.43,8.47-67.64-33.05-70-49.59,13.05-52.9,26.57S1963.16,551.7,1980.07,553Z"/>
        <path class="cls-11" d="M2041.47,451.1s-44.41-30.37-58.46-9.37c-4.26-3.65-11.85-6.3-21.88,5.87-15.08,18.27-1.66,50.56-1.66,50.56,6.18.73,7.64-20.51,10.88-30.82,2.45-7.78,10.61-15.72,14.47-19.16,5.68,12.79,21.28,43.39,42.78,48.92,27.32,7,39.18-.29,39.18-.29S2045.82,480.16,2041.47,451.1Z"/>
        <path class="cls-9" d="M2158.19,924c-3.51,9.74-14.26,12.25-28.68,10.56-27.48-3.22-68.31-21.67-97.73-34.43-44.85-19.44-65.24-1.17-79.51-13.55s16.31-39.89-10.2-167.65c-9-43.33,47.94-136.29,47.94-136.29s3.94,25.19,59.46-5.38c.28-.15,23.37,30.62,44,69.78,22.77,43.2,44.59,95.39,38.18,122.28C2119.45,820.57,2168.38,895.71,2158.19,924Z"/>
        <path class="cls-9" d="M1990,582.63l-33.56,137.9s-4.18,7.44-10.74,18c-15.38,24.88-43.85,67.13-62.08,71.42-9,2.12-28.12-5.36-49.28-16.05-40-20.22-87.32-51.9-87.32-51.9-3.06-18.35,12.9-33.31,12.9-33.31s95.83,36,105.35,36.7c20.75,1.48,41.86-98.65,61.25-132C1940.54,589.28,1990,582.63,1990,582.63Z"/>
        <path class="cls-18" d="M1994.53,528.47s-1.22,5.14-14,4.35c0,0-10.74-.66-10.41-6.32C1970.1,526.5,1980.52,522.48,1994.53,528.47Z"/>
        <path class="cls-7" d="M2158.19,924c-3.51,9.74-14.26,12.25-28.68,10.56-19-8.29-101.19-40.13-100.28-61.7,1.37-31.94,15.8-33,5.61-72.38-8.19-31.65,67.74-90.51,79.86-103.3,22.77,43.2,23.4,45.25,17,72.14C2119.45,820.57,2168.38,895.71,2158.19,924Z"/>
        <path class="cls-7" d="M1945.71,738.56c-15.38,24.88-43.85,67.13-62.08,71.42-9,2.12-28.12-5.36-49.28-16.05,15.45,4,30.45,3.87,45,2.46,15.8-1.52,20.39-20.89,45.36-49.95C1940.94,727.6,1944.92,732.34,1945.71,738.56Z"/>
        <path class="cls-15" d="M2021.84,799.71s-13.76-10.71-26.76-8.16-19.37,11.47-18.86,15.55,7.39,15.54,17.33,16.56,38.23-6.11,38.23-6.11Z"/>
        <path class="cls-9" d="M2049.47,577.25s53,3.26,71.34,28.85c25.83,36,87.81,196.24,58.45,216.71-33.07,23.06-161.24-.68-161.24-.68s-3.91-18.26,1.53-27.09,93.79-23.11,97.86-27.19-51-79.51-51-91.75S2049.47,577.25,2049.47,577.25Z"/>
      </g>
      <g>
        <g>
          <polygon class="cls-4" points="2008.01 871.7 1812.81 871.7 1777.62 748.99 1972.52 748.99 2008.01 871.7"/>
          <polygon class="cls-6" points="1811.52 866.92 2068.67 866.92 2068.67 871.7 1812.81 871.7 1811.52 866.92"/>
        </g>
        <path class="cls-6" d="M1874.79,808.35c-1.23-4.31,1.26-7.81,5.57-7.81s8.82,3.5,10.05,7.81-1.25,7.81-5.57,7.81S1876,812.66,1874.79,808.35Z"/>
      </g>
    </g>
    <path class="cls-4" d="M1019.38,335H640.92a8.18,8.18,0,0,1-7.85-5.9h0a8.18,8.18,0,0,1,7.85-10.46h378.46a8.17,8.17,0,0,1,7.85,5.91h0A8.17,8.17,0,0,1,1019.38,335Z"/>
    <path class="cls-3" d="M1468.86,372.26H649.8a8.16,8.16,0,0,1-7.85-5.9h0a8.17,8.17,0,0,1,7.85-10.45h819.06a8.18,8.18,0,0,1,7.86,5.9h0A8.18,8.18,0,0,1,1468.86,372.26Z"/>
    <path class="cls-9" d="M1192.42,409.58H659.09a8.18,8.18,0,0,1-7.85-5.9h0a8.18,8.18,0,0,1,7.85-10.46h533.33a8.17,8.17,0,0,1,7.85,5.91h0A8.17,8.17,0,0,1,1192.42,409.58Z"/>
    <path class="cls-4" d="M1101.68,607.32H723.23a8.18,8.18,0,0,1-7.86-5.91h0A8.18,8.18,0,0,1,723.23,591h378.45a8.2,8.2,0,0,1,7.86,5.9h0A8.19,8.19,0,0,1,1101.68,607.32Z"/>
    <path class="cls-12" d="M1274.72,682H741.39a8.17,8.17,0,0,1-7.85-5.91h0a8.17,8.17,0,0,1,7.85-10.45h533.33a8.18,8.18,0,0,1,7.85,5.9h0A8.18,8.18,0,0,1,1274.72,682Z"/>
    <path class="cls-3" d="M988.09,464.22h-314a8.16,8.16,0,0,1-7.85-5.9h0a8.17,8.17,0,0,1,7.85-10.45h314a8.2,8.2,0,0,1,7.86,5.9h0A8.18,8.18,0,0,1,988.09,464.22Z"/>
  </g>
</svg>
