<svg id="Layer_1" data-name="Layer 1" xmlns="http://www.w3.org/2000/svg" width="743.33" height="552.67" viewBox="0 0 743.33 552.67">
  <defs>
    <style>
      .cls-1 {
        fill: #00223d;
      }

      .cls-2 {
        fill: #026bb2;
      }

      .cls-3 {
        fill: #014c7f;
      }

      .cls-4 {
        fill: #e6eef3;
      }

      .cls-5 {
        isolation: isolate;
      }

      .cls-6 {
        fill: #cbd9e4;
      }
    </style>
  </defs>
  <g>
    <path id="Trazado_11133" data-name="Trazado 11133" class="cls-1" d="M310.47,187.78a6.53,6.53,0,0,1-2.43-.44,6.12,6.12,0,0,1-2-1.25,5.8,5.8,0,0,1-1.3-2,7.31,7.31,0,0,1-.47-2.66,7,7,0,0,1,.48-2.65,5.56,5.56,0,0,1,3.25-3.26,6.74,6.74,0,0,1,2.43-.44,6.37,6.37,0,0,1,3.3.87,5.47,5.47,0,0,1,2.17,2.42l-1.45.6a4.14,4.14,0,0,0-1.62-1.77,4.7,4.7,0,0,0-2.4-.62,5,5,0,0,0-1.8.33,4.23,4.23,0,0,0-1.46.93,4.06,4.06,0,0,0-1,1.53,6.21,6.21,0,0,0,0,4.11,4.31,4.31,0,0,0,1,1.54,4.49,4.49,0,0,0,1.46.93,4.67,4.67,0,0,0,1.8.33,4.6,4.6,0,0,0,2.4-.62,4,4,0,0,0,1.62-1.75l1.45.59a5.31,5.31,0,0,1-2.17,2.42A6.27,6.27,0,0,1,310.47,187.78Zm13.47,0a6.59,6.59,0,0,1-2.44-.44,6.08,6.08,0,0,1-1.95-1.25,5.53,5.53,0,0,1-1.3-2,7.31,7.31,0,0,1-.47-2.66,7.22,7.22,0,0,1,.47-2.65,5.56,5.56,0,0,1,3.25-3.26,6.79,6.79,0,0,1,2.44-.44,6.66,6.66,0,0,1,2.42.45,5.76,5.76,0,0,1,1.95,1.25,5.58,5.58,0,0,1,1.3,2,7.71,7.71,0,0,1,0,5.3,5.75,5.75,0,0,1-1.3,2,6.08,6.08,0,0,1-1.95,1.25A6.65,6.65,0,0,1,323.94,187.78Zm0-1.49a4.4,4.4,0,0,0,3.27-1.3,4.79,4.79,0,0,0,1.3-3.57,5.76,5.76,0,0,0-.35-2.06,4.14,4.14,0,0,0-2.43-2.46,5,5,0,0,0-1.79-.33,5.07,5.07,0,0,0-1.8.33,4.12,4.12,0,0,0-2.44,2.46,6,6,0,0,0-.36,2,5.7,5.7,0,0,0,.36,2.08,4.14,4.14,0,0,0,1,1.53,4.26,4.26,0,0,0,1.46.94A4.79,4.79,0,0,0,323.94,186.29Zm17.48-11H343v12.37h-1.66l-6.67-10v10h-1.54V175.24h1.64l6.67,10Zm5.45,12.37V175.24h4a5.83,5.83,0,0,1,3.15.8,4.83,4.83,0,0,1,1.93,2.17,7.5,7.5,0,0,1,.63,3.2,8.13,8.13,0,0,1-.36,2.5,5.6,5.6,0,0,1-1.07,2,4.71,4.71,0,0,1-1.8,1.29,6.38,6.38,0,0,1-2.48.45Zm1.57-1.43h2.36a3.79,3.79,0,0,0,3.1-1.27,5.42,5.42,0,0,0,1-3.5,5.32,5.32,0,0,0-1.05-3.48,3.74,3.74,0,0,0-3.08-1.26h-2.37Zm11.19,1.43V175.24h1.57v12.37Zm10.76.17a6.59,6.59,0,0,1-2.44-.44,6.08,6.08,0,0,1-1.95-1.25,5.66,5.66,0,0,1-1.3-2,7.76,7.76,0,0,1,0-5.32,5.8,5.8,0,0,1,1.3-2,5.89,5.89,0,0,1,1.95-1.24,6.79,6.79,0,0,1,2.44-.44,6.31,6.31,0,0,1,3.29.87,5.43,5.43,0,0,1,2.18,2.42l-1.45.6a4.08,4.08,0,0,0-1.63-1.76,4.55,4.55,0,0,0-2.4-.62,4.85,4.85,0,0,0-1.8.32,4.34,4.34,0,0,0-1.45.93,4.14,4.14,0,0,0-1,1.53,6,6,0,0,0,0,4.11,4.18,4.18,0,0,0,1,1.54,4.38,4.38,0,0,0,1.46.93,5,5,0,0,0,4.2-.29,4.15,4.15,0,0,0,1.62-1.75l1.45.59a5.42,5.42,0,0,1-2.17,2.42A6.27,6.27,0,0,1,370.39,187.78Zm8.16-.17V175.24h1.58v12.37ZM388.73,174l2.21-2.86.81.59-2,2.27Zm.58,13.83a6.5,6.5,0,0,1-2.43-.44,6,6,0,0,1-2-1.25,5.66,5.66,0,0,1-1.3-2,7.31,7.31,0,0,1-.47-2.66,7,7,0,0,1,.48-2.65,5.57,5.57,0,0,1,1.3-2,5.66,5.66,0,0,1,1.95-1.25,6.83,6.83,0,0,1,4.85,0,5.66,5.66,0,0,1,1.95,1.25,5.58,5.58,0,0,1,1.3,2,7.56,7.56,0,0,1,0,5.3,5.61,5.61,0,0,1-1.3,2,6,6,0,0,1-1.95,1.25A6.65,6.65,0,0,1,389.31,187.78Zm0-1.49a4.42,4.42,0,0,0,3.28-1.3,4.87,4.87,0,0,0,1.3-3.57,5.56,5.56,0,0,0-.36-2.06,4.06,4.06,0,0,0-1-1.53,4.1,4.1,0,0,0-1.45-.93,4.93,4.93,0,0,0-1.78-.33,5,5,0,0,0-1.8.33,4.23,4.23,0,0,0-1.46.93,4.06,4.06,0,0,0-1,1.53,5.5,5.5,0,0,0-.36,2,5.91,5.91,0,0,0,.35,2.08,4.27,4.27,0,0,0,1,1.53,4.36,4.36,0,0,0,1.46.94A4.83,4.83,0,0,0,389.31,186.29Zm17.48-11h1.57v12.37H406.7l-6.67-10v10h-1.55V175.24h1.64l6.67,10Z"/>
    <path id="Trazado_11131" data-name="Trazado 11131" class="cls-1" d="M433.3,215.24v1.43h-3.17v10.94h-1.57V216.67h-3.18v-1.43Zm2.44,5.25a2.67,2.67,0,0,1,1.07-1.16,3.26,3.26,0,0,1,1.66-.45v1.43a2.85,2.85,0,0,0-2,.64,2.67,2.67,0,0,0-.69,2.05v4.61h-1.52V219h1.48Zm9.9-1.52h1.52v8.64H445.7l0-1.14a2.8,2.8,0,0,1-1.08,1,3.28,3.28,0,0,1-1.51.34,3,3,0,0,1-2.17-.78,2.92,2.92,0,0,1-.82-2.21V219h1.52v5.48a2.09,2.09,0,0,0,.53,1.55,2,2,0,0,0,1.36.51,2.09,2.09,0,0,0,1.54-.6,2.5,2.5,0,0,0,.6-1.77Zm12.17,4.15,0,.41H451a3.05,3.05,0,0,0,.83,2.21,2.7,2.7,0,0,0,2,.77,2.61,2.61,0,0,0,1.43-.41,2.7,2.7,0,0,0,1-1.14l1.37.29a3.88,3.88,0,0,1-1.47,1.85,4.07,4.07,0,0,1-2.29.68,4.22,4.22,0,0,1-3.12-1.2,4.48,4.48,0,0,1-1.18-3.29,4.43,4.43,0,0,1,1.19-3.28,4.12,4.12,0,0,1,3.06-1.2,3.94,3.94,0,0,1,2.91,1.1A4.39,4.39,0,0,1,457.81,223.12Zm-4-3.14a2.64,2.64,0,0,0-1.8.61,2.78,2.78,0,0,0-.91,1.78h5.18a2.54,2.54,0,0,0-.76-1.78,2.44,2.44,0,0,0-1.71-.62Z"/>
    <path id="Trazado_11132" data-name="Trazado 11132" class="cls-1" d="M254.75,217.67h-5.08v4h4.43v1.43h-4.43v5.47h-1.6V216.24h6.68Zm3.9,11.11a2.94,2.94,0,0,1-1.9-.59,2.15,2.15,0,0,1-.74-1.78,2.47,2.47,0,0,1,.24-1.13,1.88,1.88,0,0,1,.7-.78,4.17,4.17,0,0,1,1-.49,10,10,0,0,1,1.31-.31l1.4-.23c.51-.09.77-.36.77-.8a1.53,1.53,0,0,0-.55-1.29,2.19,2.19,0,0,0-1.36-.41,2.35,2.35,0,0,0-1.36.4,1.68,1.68,0,0,0-.64,1.22l-1.37-.29a2.64,2.64,0,0,1,1.08-1.85,4,4,0,0,1,2.36-.62,4.41,4.41,0,0,1,1.25.15,3.29,3.29,0,0,1,1,.48,2.16,2.16,0,0,1,.75.94,3.41,3.41,0,0,1,.27,1.41v3.57a1.37,1.37,0,0,0,.2.9.85.85,0,0,0,.68.23h.14v1.1h-.76a1.43,1.43,0,0,1-1.63-1.17h-.07A3.29,3.29,0,0,1,258.65,228.78Zm.35-1.23a2.31,2.31,0,0,0,1.85-.84,3.4,3.4,0,0,0,.7-2.28l-2.28.44a2.93,2.93,0,0,0-1.34.48,1.08,1.08,0,0,0-.44.94,1.1,1.1,0,0,0,.42,1,1.76,1.76,0,0,0,1.09.31Zm7.08,1.06v-13.5h1.54v13.5Zm7.37.17a4.14,4.14,0,0,1-2.33-.62,2.59,2.59,0,0,1-1.14-1.78l1.33-.38a1.85,1.85,0,0,0,.71,1.2,2.25,2.25,0,0,0,1.42.43,2.92,2.92,0,0,0,.83-.12,1.24,1.24,0,0,0,.63-.42,1.16,1.16,0,0,0,.26-.79,1.53,1.53,0,0,0-.07-.36,2.44,2.44,0,0,0-.14-.28.82.82,0,0,0-.25-.24,1.83,1.83,0,0,0-.3-.18,2.71,2.71,0,0,0-.39-.17l-.42-.14-.48-.14-.5-.14c-.3-.09-.6-.2-.9-.32a3.23,3.23,0,0,1-.72-.42,1.63,1.63,0,0,1-.57-.68,2.27,2.27,0,0,1-.19-1,2.21,2.21,0,0,1,.42-1.38,2.41,2.41,0,0,1,1.1-.81,4.42,4.42,0,0,1,1.53-.25,3.79,3.79,0,0,1,2.1.56,2.4,2.4,0,0,1,1.05,1.69l-1.24.32a1.69,1.69,0,0,0-.66-1.09,2.32,2.32,0,0,0-2.4-.07,1,1,0,0,0-.48.93.9.9,0,0,0,.12.48,1.64,1.64,0,0,0,.26.33,1.4,1.4,0,0,0,.48.26c.23.09.4.16.51.19l.63.16.13,0c.34.08.62.16.83.23a4.13,4.13,0,0,1,.75.32,2.08,2.08,0,0,1,.67.47,2.18,2.18,0,0,1,.42.66,2.53,2.53,0,0,1,.18.94,2.46,2.46,0,0,1-.26,1.16,2,2,0,0,1-.71.8,3.11,3.11,0,0,1-1,.43A4.87,4.87,0,0,1,273.45,228.78Zm13.13-4.66,0,.41h-6.75a3.05,3.05,0,0,0,.83,2.21,2.66,2.66,0,0,0,2,.77,2.54,2.54,0,0,0,1.44-.41,2.7,2.7,0,0,0,1-1.14l1.37.29a3.93,3.93,0,0,1-1.47,1.85,4.08,4.08,0,0,1-2.3.68,4.19,4.19,0,0,1-3.11-1.2,4.53,4.53,0,0,1-1.19-3.29,4.48,4.48,0,0,1,1.2-3.28,4.12,4.12,0,0,1,3.06-1.2,3.87,3.87,0,0,1,2.9,1.11A4.38,4.38,0,0,1,286.58,224.12Zm-4-3.14a2.61,2.61,0,0,0-1.8.61,2.78,2.78,0,0,0-.91,1.78H285a2.57,2.57,0,0,0-.75-1.78,2.44,2.44,0,0,0-1.71-.62Z"/>
    <path id="Trazado_11127" data-name="Trazado 11127" class="cls-1" d="M351.12,434.67H346v4h4.43v1.43H346v5.47h-1.61V433.24h6.68Zm2.65,10.94V433.24h1.57v12.37Zm13.77-12.37h1.57v12.37h-1.66l-6.68-10v10h-1.54V433.24h1.64l6.67,10Z"/>
    <path id="Trazado_11130" data-name="Trazado 11130" class="cls-2" d="M356.27,198.78l23.33,23.33-23.33,23.34-23.34-23.34Z"/>
    <path id="Trazado_11126" data-name="Trazado 11126" class="cls-3" d="M356.77,459.61a18,18,0,1,1-18,18A18,18,0,0,1,356.77,459.61Z"/>
    <g id="Grupo_12164" data-name="Grupo 12164">
      <rect id="Rectángulo_2950" data-name="Rectángulo 2950" class="cls-4" x="388.77" y="280.61" width="106" height="48"/>
      <g id="BLOQUE" class="cls-5">
        <g class="cls-5">
          <path class="cls-1" d="M414.42,302.15a3.37,3.37,0,0,1,1.79,1.08,3.08,3.08,0,0,1,.65,2,3.26,3.26,0,0,1-.95,2.43,3.51,3.51,0,0,1-2.55.93h-4.81V296.24h3.75a3.78,3.78,0,0,1,2.65.91,3,3,0,0,1,1,2.36,3.25,3.25,0,0,1-.4,1.6A2.55,2.55,0,0,1,414.42,302.15Zm.06-2.54a1.89,1.89,0,0,0-.59-1.43,2.22,2.22,0,0,0-1.6-.56h-2.22v4h2.51a1.78,1.78,0,0,0,1.37-.59A2.13,2.13,0,0,0,414.48,299.61Zm-1.38,7.6a2.16,2.16,0,0,0,1.63-.61,2.05,2.05,0,0,0,.6-1.5,2,2,0,0,0-.63-1.54A2.36,2.36,0,0,0,413,303h-2.92v4.25Z"/>
          <path class="cls-1" d="M421.36,307.18h4.3v1.43h-5.87V296.24h1.57Z"/>
          <path class="cls-1" d="M433,308.78a6.5,6.5,0,0,1-2.44-.45,5.8,5.8,0,0,1-1.95-1.24,5.65,5.65,0,0,1-1.31-2,7.32,7.32,0,0,1-.47-2.66,7,7,0,0,1,.48-2.65,5.56,5.56,0,0,1,3.25-3.26,6.7,6.7,0,0,1,2.44-.44,6.61,6.61,0,0,1,2.41.44,5.83,5.83,0,0,1,1.95,1.25,5.63,5.63,0,0,1,1.3,2,7,7,0,0,1,.48,2.65,7.1,7.1,0,0,1-.48,2.65,5.59,5.59,0,0,1-1.3,2,5.8,5.8,0,0,1-1.95,1.24A6.42,6.42,0,0,1,433,308.78Zm0-1.49a4.42,4.42,0,0,0,3.27-1.3,4.86,4.86,0,0,0,1.3-3.57,5.6,5.6,0,0,0-.36-2.06,4.14,4.14,0,0,0-2.43-2.46,4.77,4.77,0,0,0-1.78-.33,4.89,4.89,0,0,0-1.81.33,4.38,4.38,0,0,0-1.46.93,4.25,4.25,0,0,0-1,1.53,5.82,5.82,0,0,0-.35,2.06,5.91,5.91,0,0,0,.35,2.07,4.38,4.38,0,0,0,1,1.54,4.55,4.55,0,0,0,1.46.93A4.89,4.89,0,0,0,433,307.29Z"/>
          <path class="cls-1" d="M454.07,309.24l-1.41.48-1.74-1.86a6.44,6.44,0,0,1-3.42.92,6.53,6.53,0,0,1-2.44-.45,5.89,5.89,0,0,1-2-1.24,5.63,5.63,0,0,1-1.3-2,7.12,7.12,0,0,1-.48-2.66,7,7,0,0,1,.48-2.65,5.63,5.63,0,0,1,1.3-2,5.91,5.91,0,0,1,2-1.25,7,7,0,0,1,4.88,0,5.87,5.87,0,0,1,2,1.25,5.79,5.79,0,0,1,1.31,2,7,7,0,0,1,.48,2.65A6.25,6.25,0,0,1,452,307Zm-11.19-6.82a5.86,5.86,0,0,0,.36,2.1,4.26,4.26,0,0,0,1,1.56,4.57,4.57,0,0,0,1.46.94,4.93,4.93,0,0,0,1.81.33,4.8,4.8,0,0,0,1.8-.33,4.51,4.51,0,0,0,1.47-.94,4.24,4.24,0,0,0,1-1.56,5.86,5.86,0,0,0,.36-2.1,5.31,5.31,0,0,0-.62-2.62,4.17,4.17,0,0,0-1.66-1.67,4.81,4.81,0,0,0-2.33-.56,4.88,4.88,0,0,0-2.34.56,4.17,4.17,0,0,0-1.66,1.67A5.31,5.31,0,0,0,442.88,302.42Z"/>
          <path class="cls-1" d="M461.07,308.78a4.64,4.64,0,0,1-3.23-1.14,4,4,0,0,1-1.26-3.13v-8.27h1.57v8.05a3,3,0,0,0,.82,2.27,2.87,2.87,0,0,0,2.1.79,2.8,2.8,0,0,0,2.95-3.06v-8.05h1.57v8.27a4,4,0,0,1-1.27,3.13A4.69,4.69,0,0,1,461.07,308.78Z"/>
          <path class="cls-1" d="M475.85,297.67h-5v4.05h4.43v1.42h-4.43v4h5v1.43h-6.63V296.24h6.63Z"/>
        </g>
      </g>
    </g>
    <rect class="cls-6" x="383.27" y="221.61" width="27" height="3"/>
    <rect class="cls-6" x="302.27" y="221.61" width="27" height="3"/>
    <polygon class="cls-6" points="443.77 259.61 443.77 239.11 440.77 239.11 440.77 259.61 433.77 259.61 442.27 273.61 450.77 259.61 443.77 259.61"/>
    <path id="Trazado_11135" data-name="Trazado 11135" class="cls-1" d="M329.67,69.61V57.24h1.58V69.61Zm13.78-12.37H345V69.61h-1.66l-6.67-10v10h-1.55V57.24h1.65l6.67,10Zm5.45,12.37V57.24h1.57V69.61Zm10.75.17a6.53,6.53,0,0,1-2.43-.44,6,6,0,0,1-2-1.25,5.53,5.53,0,0,1-1.3-2,7.17,7.17,0,0,1-.48-2.67,7,7,0,0,1,.48-2.64,5.57,5.57,0,0,1,1.3-2,5.66,5.66,0,0,1,2-1.25,6.74,6.74,0,0,1,2.43-.44,6.37,6.37,0,0,1,3.3.87,5.47,5.47,0,0,1,2.17,2.42l-1.45.6a4.06,4.06,0,0,0-1.62-1.76,4.6,4.6,0,0,0-2.4-.62,4.78,4.78,0,0,0-1.8.32,4.38,4.38,0,0,0-1.46.93,4.27,4.27,0,0,0-1,1.53,6.21,6.21,0,0,0,0,4.11,4.22,4.22,0,0,0,1,1.54,4.36,4.36,0,0,0,1.46.94,5.07,5.07,0,0,0,1.8.33,4.7,4.7,0,0,0,2.4-.62,4.12,4.12,0,0,0,1.62-1.76l1.45.59A5.42,5.42,0,0,1,363,68.91,6.27,6.27,0,0,1,359.65,69.78Zm8.17-.17V57.24h1.57V69.61Zm10.76.17a6.55,6.55,0,0,1-2.44-.44,6,6,0,0,1-1.95-1.25,5.53,5.53,0,0,1-1.3-2,7.11,7.11,0,0,1-.47-2.66,7.22,7.22,0,0,1,.47-2.65,5.56,5.56,0,0,1,3.25-3.26,6.76,6.76,0,0,1,2.44-.44,6.65,6.65,0,0,1,2.41.45,5.66,5.66,0,0,1,1.95,1.25,5.33,5.33,0,0,1,1.3,2,7.56,7.56,0,0,1,0,5.3,5.48,5.48,0,0,1-1.3,2A6,6,0,0,1,381,69.34,6.64,6.64,0,0,1,378.58,69.78Zm0-1.49a4.4,4.4,0,0,0,3.27-1.3,4.88,4.88,0,0,0,1.3-3.58,5.5,5.5,0,0,0-.36-2,4.06,4.06,0,0,0-1-1.53,4.13,4.13,0,0,0-1.45-.94,4.71,4.71,0,0,0-1.78-.32,4.78,4.78,0,0,0-1.8.32,4.26,4.26,0,0,0-1.46.94,4.06,4.06,0,0,0-1,1.53,5.5,5.5,0,0,0-.36,2,5.7,5.7,0,0,0,.36,2.08,4.14,4.14,0,0,0,1,1.53,4.22,4.22,0,0,0,1.45.94A4.88,4.88,0,0,0,378.58,68.29Z"/>
    <path id="Trazado_11134" data-name="Trazado 11134" class="cls-3" d="M356.77,89.61a18,18,0,1,1-18,18A18,18,0,0,1,356.77,89.61Z"/>
    <rect class="cls-6" x="355.27" y="134.61" width="3" height="27"/>
    <polygon class="cls-6" points="440.77 336.93 440.77 368.64 357.43 369 357.43 265.61 364.77 265.61 356.27 251.61 347.77 265.61 354.43 265.61 354.43 372.01 443.77 371.63 443.77 336.93 440.77 336.93"/>
    <g>
      <polygon class="cls-6" points="347.77 408.61 356.27 422.61 364.77 408.61 347.77 408.61"/>
      <polygon class="cls-6" points="354.43 408.32 357.43 408.32 357.43 391.35 268.27 391.35 268.27 239.11 265.27 239.11 265.27 394.35 354.43 394.35 354.43 408.32"/>
    </g>
  </g>
</svg>
