<svg xmlns="http://www.w3.org/2000/svg" xmlns:xlink="http://www.w3.org/1999/xlink" width="596.67" height="500" viewBox="0 0 596.67 500">
  <defs>
    <style>
      .cls-1, .cls-10, .cls-4 {
        fill: #fff;
      }

      .cls-2 {
        fill: #1d2763;
      }

      .cls-3 {
        fill: #263238;
      }

      .cls-11, .cls-4 {
        opacity: 0.2;
      }

      .cls-5 {
        fill: #627df7;
      }

      .cls-6 {
        fill: #92e3a9;
      }

      .cls-7 {
        fill: #aebdfb;
      }

      .cls-8 {
        fill: #222221;
      }

      .cls-9 {
        fill: #e0b594;
      }

      .cls-10 {
        opacity: 0.5;
      }

      .cls-12 {
        fill: #f0f0f0;
      }

      .cls-13 {
        fill: #b87d2f;
      }

      .cls-14 {
        fill: url(#linear-gradient);
      }

      .cls-15 {
        fill: url(#linear-gradient-2);
      }
    </style>
    <linearGradient id="linear-gradient" x1="95.44" y1="1511.22" x2="95.59" y2="1511.07" gradientTransform="matrix(189.38, 0, 0, -189.81, -17863.34, 287185.02)" gradientUnits="userSpaceOnUse">
      <stop offset="0" stop-color="#627cb0"/>
      <stop offset="1" stop-color="#55698c"/>
    </linearGradient>
    <linearGradient id="linear-gradient-2" x1="95.18" y1="1511.46" x2="95.35" y2="1511.31" gradientTransform="matrix(189.38, 0, 0, -189.81, -17797.34, 287249.32)" gradientUnits="userSpaceOnUse">
      <stop offset="0" stop-color="#eddc67"/>
      <stop offset="1" stop-color="#e1bf4e"/>
    </linearGradient>
  </defs>
  <g id="Character">
    <g>
      <g>
        <g>
          <path class="cls-1" d="M191.52,371.16h-4.78a.6.6,0,0,1,0-1.2h4.78a.6.6,0,0,1,0,1.2Zm-9.55,0h-4.78a.6.6,0,1,1,0-1.2H182a.6.6,0,0,1,0,1.2Zm-9.56,0h-4.77a.6.6,0,1,1,0-1.2h4.77a.6.6,0,0,1,0,1.2Zm-9.55,0h-4.78a.6.6,0,0,1,0-1.2h4.78a.6.6,0,0,1,0,1.2Zm-9.55,0h-4.78a.6.6,0,1,1,0-1.2h4.78a.6.6,0,0,1,0,1.2Zm-9.56,0H139a.6.6,0,0,1,0-1.2h4.77a.6.6,0,0,1,0,1.2Zm-9.55,0h-4.78a.6.6,0,0,1,0-1.2h4.78a.6.6,0,0,1,0,1.2Zm-9.55,0h-4.78a.6.6,0,1,1,0-1.2h4.78a.6.6,0,0,1,0,1.2Zm-9.56,0H110.3a.59.59,0,0,1-.58-.61.61.61,0,0,1,.61-.58h4.76a.6.6,0,1,1,0,1.2Zm81.17-.5a.59.59,0,0,1-.58-.47.6.6,0,0,1,.46-.71,22.81,22.81,0,0,0,4.43-1.4.6.6,0,1,1,.47,1.1,24.27,24.27,0,0,1-4.66,1.47Zm-90.67-.1h-.14a25,25,0,0,1-4.63-1.57.59.59,0,0,1-.29-.79.6.6,0,0,1,.79-.3,22.81,22.81,0,0,0,4.4,1.49.6.6,0,0,1-.13,1.18ZM205,366.9a.61.61,0,0,1-.49-.25.59.59,0,0,1,.15-.83,23.73,23.73,0,0,0,3.53-3,.59.59,0,1,1,.86.82,24.58,24.58,0,0,1-3.71,3.19A.59.59,0,0,1,205,366.9Zm-108-.27a.66.66,0,0,1-.35-.11A24.51,24.51,0,0,1,93,363.26a.59.59,0,0,1,0-.84.6.6,0,0,1,.85,0,22.62,22.62,0,0,0,3.46,3.1.59.59,0,0,1,.14.83A.61.61,0,0,1,97,366.63ZM211.52,360a.55.55,0,0,1-.32-.1.6.6,0,0,1-.19-.82,23,23,0,0,0,2.07-4.16.59.59,0,0,1,.77-.35.6.6,0,0,1,.35.77,25.19,25.19,0,0,1-2.18,4.38A.58.58,0,0,1,211.52,360Zm-121-.41a.6.6,0,0,1-.51-.28A24.18,24.18,0,0,1,88,354.92a.59.59,0,1,1,1.12-.39,23.34,23.34,0,0,0,2,4.2.6.6,0,0,1-.2.82A.58.58,0,0,1,90.54,359.63Zm124.31-8.47h-.09a.61.61,0,0,1-.5-.69,23.21,23.21,0,0,0,.29-3.64.6.6,0,0,1,.6-.6h0a.59.59,0,0,1,.59.6,24.42,24.42,0,0,1-.3,3.83A.6.6,0,0,1,214.85,351.16Zm-127.46-.47a.61.61,0,0,1-.6-.52,24.92,24.92,0,0,1-.23-3.35v-1.49a.6.6,0,0,1,1.2,0v1.49A22.6,22.6,0,0,0,88,350a.6.6,0,0,1-.51.67Zm-.23-9.54a.6.6,0,0,1-.6-.6v-4.78a.6.6,0,0,1,1.2,0v4.78A.6.6,0,0,1,87.16,341.15Zm0-9.56a.59.59,0,0,1-.6-.59v-4.78a.6.6,0,1,1,1.2,0V331A.59.59,0,0,1,87.16,331.59Zm0-9.55a.6.6,0,0,1-.6-.6v-4.77a.6.6,0,1,1,1.2,0v4.77A.6.6,0,0,1,87.16,322Zm0-9.55a.6.6,0,0,1-.6-.6v-4.78a.6.6,0,0,1,1.2,0v4.78A.6.6,0,0,1,87.16,312.49Zm0-9.56a.59.59,0,0,1-.6-.59v-4.78a.6.6,0,1,1,1.2,0v4.78A.59.59,0,0,1,87.16,302.93Zm0-9.55a.6.6,0,0,1-.6-.6V288a.6.6,0,0,1,1.2,0v4.77A.6.6,0,0,1,87.16,293.38Zm0-9.55a.6.6,0,0,1-.6-.6v-4.78a.6.6,0,0,1,1.2,0v4.78A.6.6,0,0,1,87.16,283.83Zm0-9.56a.59.59,0,0,1-.6-.59V268.9a.6.6,0,0,1,1.2,0v4.78A.59.59,0,0,1,87.16,274.27Zm0-9.55a.6.6,0,0,1-.6-.6v-4.77a.6.6,0,1,1,1.2,0v4.77A.6.6,0,0,1,87.16,264.72Zm0-9.55a.6.6,0,0,1-.6-.6v-4.78a.6.6,0,0,1,1.2,0v4.78A.6.6,0,0,1,87.16,255.17Zm0-9.56a.59.59,0,0,1-.6-.59v-4.78a.6.6,0,1,1,1.2,0V245A.59.59,0,0,1,87.16,245.61Zm0-9.55a.6.6,0,0,1-.6-.6v-4.77a.6.6,0,0,1,1.2,0v4.77A.6.6,0,0,1,87.16,236.06Zm0-9.55a.6.6,0,0,1-.6-.6v-4.78a.6.6,0,0,1,1.2,0v4.78A.6.6,0,0,1,87.16,226.51Zm0-9.56h0a.6.6,0,0,1-.6-.6,24.68,24.68,0,0,1,.53-4.86.6.6,0,1,1,1.17.25,23,23,0,0,0-.5,4.62A.59.59,0,0,1,87.16,217Zm2-9.28a.46.46,0,0,1-.23,0,.58.58,0,0,1-.31-.78A24.16,24.16,0,0,1,91,202.57a.6.6,0,0,1,1,.69,22.73,22.73,0,0,0-2.28,4.05A.6.6,0,0,1,89.12,207.67Zm5.45-7.76a.61.61,0,0,1-.43-.19.6.6,0,0,1,0-.85,25.45,25.45,0,0,1,3.87-3,.6.6,0,0,1,.82.19.61.61,0,0,1-.19.83A23.45,23.45,0,0,0,95,199.74.58.58,0,0,1,94.57,199.91Zm8.05-5a.6.6,0,0,1-.21-1.16,24.93,24.93,0,0,1,4.73-1.23.6.6,0,1,1,.18,1.18,23.17,23.17,0,0,0-4.49,1.17A.52.52,0,0,1,102.62,194.88Zm14.15-1.48H112a.6.6,0,0,1,0-1.2h4.78a.6.6,0,0,1,0,1.2Z"/>
          <path class="cls-1" d="M208.55,70.47a.6.6,0,0,1-.6-.6V65.1a.6.6,0,0,1,.6-.6.59.59,0,0,1,.59.6v4.77A.59.59,0,0,1,208.55,70.47Zm0-9.55a.6.6,0,0,1-.6-.6V55.54a.59.59,0,0,1,.6-.59.58.58,0,0,1,.59.59v4.78A.59.59,0,0,1,208.55,60.92Zm0-9.56a.59.59,0,0,1-.6-.59V46a.6.6,0,0,1,.6-.6.59.59,0,0,1,.59.6v4.78A.58.58,0,0,1,208.55,51.36Zm133.76-6.62a.59.59,0,0,1-.59-.6,13.69,13.69,0,0,0-.57-3.93.61.61,0,0,1,.41-.75.6.6,0,0,1,.74.41,15.36,15.36,0,0,1,.61,4.27A.6.6,0,0,1,342.31,44.74ZM208.84,41.83h-.12a.6.6,0,0,1-.47-.71A15.09,15.09,0,0,1,210,36.49a.6.6,0,0,1,.82-.21.59.59,0,0,1,.21.81,14,14,0,0,0-1.63,4.26A.6.6,0,0,1,208.84,41.83Zm130.82-5.48a.58.58,0,0,1-.49-.25,14.06,14.06,0,0,0-3.2-3.24.6.6,0,0,1,.7-1,15.06,15.06,0,0,1,3.47,3.52.59.59,0,0,1-.14.83A.53.53,0,0,1,339.66,36.35ZM213.58,33.74a.6.6,0,0,1-.45-.21.59.59,0,0,1,.06-.84,15.28,15.28,0,0,1,4.22-2.59.6.6,0,0,1,.77.33.59.59,0,0,1-.33.78A13.75,13.75,0,0,0,214,33.59.6.6,0,0,1,213.58,33.74Zm118.49-2.9a.57.57,0,0,1-.18,0,13.94,13.94,0,0,0-4.12-.62h-.41a.59.59,0,0,1-.6-.59.6.6,0,0,1,.6-.6h.41a15.27,15.27,0,0,1,4.47.67.6.6,0,0,1,.4.75A.61.61,0,0,1,332.07,30.84Zm-109.8-.62a.6.6,0,0,1,0-1.2l.85,0h4a.59.59,0,0,1,.59.6.58.58,0,0,1-.59.59h-4c-.27,0-.53,0-.79,0Zm100.31,0H317.8a.58.58,0,0,1-.59-.59.59.59,0,0,1,.59-.6h4.78a.6.6,0,0,1,.6.6A.59.59,0,0,1,322.58,30.19Zm-9.55,0h-4.78a.59.59,0,0,1-.6-.59.6.6,0,0,1,.6-.6H313a.59.59,0,0,1,.59.6A.58.58,0,0,1,313,30.19Zm-9.56,0H298.7a.59.59,0,0,1-.6-.59.6.6,0,0,1,.6-.6h4.77a.6.6,0,0,1,.6.6A.59.59,0,0,1,303.47,30.19Zm-9.55,0h-4.78a.58.58,0,0,1-.59-.59.59.59,0,0,1,.59-.6h4.78a.6.6,0,0,1,.6.6A.59.59,0,0,1,293.92,30.19Zm-9.55,0h-4.78a.59.59,0,0,1-.6-.59.6.6,0,0,1,.6-.6h4.78a.59.59,0,0,1,.59.6A.58.58,0,0,1,284.37,30.19Zm-9.56,0H270a.59.59,0,0,1-.6-.59.6.6,0,0,1,.6-.6h4.77a.6.6,0,0,1,.6.6A.59.59,0,0,1,274.81,30.19Zm-9.55,0h-4.78a.58.58,0,0,1-.59-.59.59.59,0,0,1,.59-.6h4.78a.6.6,0,0,1,.6.6A.59.59,0,0,1,265.26,30.19Zm-9.55,0h-4.78a.59.59,0,0,1-.6-.59.6.6,0,0,1,.6-.6h4.78a.59.59,0,0,1,.59.6A.58.58,0,0,1,255.71,30.19Zm-9.56,0h-4.77a.59.59,0,0,1-.6-.59.6.6,0,0,1,.6-.6h4.77a.6.6,0,0,1,.6.6A.59.59,0,0,1,246.15,30.19Zm-9.55,0h-4.78a.59.59,0,0,1-.6-.59.6.6,0,0,1,.6-.6h4.78a.6.6,0,0,1,.6.6A.59.59,0,0,1,236.6,30.19Z"/>
        </g>
        <g>
          <ellipse class="cls-2" cx="302.77" cy="442.03" rx="207.34" ry="28.97"/>
          <ellipse class="cls-2" cx="302.77" cy="442.03" rx="207.34" ry="28.97"/>
        </g>
        <g>
          <g>
            <path class="cls-1" d="M498.21,104.4V299.33a24,24,0,0,1-24,24H131.35a24,24,0,0,1-24-24V104.4c0-.57,0-1.13.07-1.69a24,24,0,0,1,24-22.35H474.19a24,24,0,0,1,23.95,22.35C498.19,103.27,498.21,103.83,498.21,104.4Z"/>
            <path class="cls-3" d="M474.19,324H131.35a24.65,24.65,0,0,1-24.63-24.62V104.4c0-.59,0-1.16.08-1.74a24.66,24.66,0,0,1,24.55-22.89H474.19a24.67,24.67,0,0,1,24.55,22.89c.05.58.07,1.15.07,1.74V299.33A24.65,24.65,0,0,1,474.19,324ZM131.35,81A23.47,23.47,0,0,0,108,102.75c0,.55-.07,1.1-.07,1.65V299.33a23.46,23.46,0,0,0,23.43,23.43H474.19a23.46,23.46,0,0,0,23.43-23.43V104.4c0-.55,0-1.1-.07-1.64A23.48,23.48,0,0,0,474.19,81Z"/>
          </g>
          <path class="cls-3" d="M119,111.71H487.75a0,0,0,0,1,0,0V291.78a22.52,22.52,0,0,1-22.52,22.52H141.53A22.52,22.52,0,0,1,119,291.78V111.71A0,0,0,0,1,119,111.71Z"/>
          <path class="cls-4" d="M487.75,111.71V291.78a22.39,22.39,0,0,1-22.26,22.51H141.28A22.4,22.4,0,0,1,119,291.78V111.71Z"/>
          <path class="cls-5" d="M498.14,102.71H107.39a24,24,0,0,1,24-22.35H474.19A24,24,0,0,1,498.14,102.71Z"/>
          <path class="cls-3" d="M155.41,91.53a4.26,4.26,0,1,1-4.26-4.25A4.26,4.26,0,0,1,155.41,91.53Z"/>
          <path class="cls-3" d="M173.4,91.53a4.26,4.26,0,1,1-4.25-4.25A4.25,4.25,0,0,1,173.4,91.53Z"/>
          <circle class="cls-3" cx="187.14" cy="91.53" r="4.26"/>
          <path class="cls-3" d="M465.22,314.9H141.53a23.14,23.14,0,0,1-22.63-18.46l-.05-.05v-.25a23,23,0,0,1-.42-4.36V111.12H488.34V291.78A23.14,23.14,0,0,1,465.22,314.9ZM120,296h0a21.94,21.94,0,0,0,21.5,17.67H465.22a22,22,0,0,0,21.93-21.92V112.31H119.62V291.78A21.72,21.72,0,0,0,120,296Z"/>
          <path class="cls-3" d="M487.4,139.57a22.62,22.62,0,0,0-5-2.07l-2-9h-8.6l-2,9a22,22,0,0,0-5,2.07l-7.77-5-6.08,6.08,4.89,7.76a22,22,0,0,0-2.07,5l-9,2v8.6l9,2a21.82,21.82,0,0,0,2.07,5l-5,7.81,6.08,6.08,7.81-5a22.07,22.07,0,0,0,5,2.08l2,9h8.6l2-9a23.06,23.06,0,0,0,5-2.08l.4.25v-41Zm-11.3,31.34a11.11,11.11,0,1,1,11.11-11.1A11.1,11.1,0,0,1,476.1,170.91Z"/>
          <path class="cls-3" d="M332.48,148.28V130.15l-19.05-4.23a49.34,49.34,0,0,0-4.36-10.58l2.3-3.63h-90l2.22,3.53a47,47,0,0,0-4.34,10.57l-19.06,4.24v18.13l19.06,4.25a47.27,47.27,0,0,0,4.34,10.65l-10.47,16.47L226,192.37l16.45-10.48A47.92,47.92,0,0,0,253,186.27l4.23,19h18.13l4.26-19a48.17,48.17,0,0,0,10.55-4.38l16.46,10.48,12.82-12.82-10.4-16.47a49.61,49.61,0,0,0,4.36-10.55Zm-66,14.35a23.42,23.42,0,1,1,23.41-23.42A23.41,23.41,0,0,1,266.45,162.63Z"/>
          <path class="cls-3" d="M212.25,272.75l.76-14.38-14.9-4.2a40,40,0,0,0-3.06-8.55l9-12.65-9.65-10.71-13.5,7.63A40.5,40.5,0,0,0,172.7,226l-2.58-15.28-14.38-.77-4.16,15a37.37,37.37,0,0,0-8.55,3l-12.63-9-10.73,9.64,7.65,13.51a37.29,37.29,0,0,0-3.94,8.2L119,251v19.48l3.16.89a37.66,37.66,0,0,0,3.06,8.58l-6.22,8.7.42,7.47v.05h0l6.41,7.11,13.52-7.63a37.5,37.5,0,0,0,8.24,4l2.46,14.68h0l.12.61,14.38.76.38-1.37h0l3.77-13.57a38.57,38.57,0,0,0,8.6-3l12.61,9L200.66,297l-7.61-13.52a37.5,37.5,0,0,0,3.89-8.19Zm-38.19-22.46a18.62,18.62,0,1,0-1.39,26.28A18.63,18.63,0,0,0,174.06,250.29Z"/>
          <path class="cls-3" d="M327.23,251.27a29.57,29.57,0,0,0,.88-6.81L338.44,239l-2.85-10.48-11.67.54a29.06,29.06,0,0,0-4.19-5.42l3.46-11.16-9.43-5.39-7.88,8.6a30.37,30.37,0,0,0-6.79-.87l-5.45-10.34-10.48,2.85.56,11.68a29.46,29.46,0,0,0-5.43,4.19l-11.17-3.45-5.4,9.41,8.65,7.86a28.27,28.27,0,0,0-.86,6.79l-10.35,5.45L262,259.77l11.69-.55a27.75,27.75,0,0,0,4.17,5.42l-3.47,11.11,9.42,5.39,7.84-8.52a28.34,28.34,0,0,0,6.8.85l5.45,10.36L314.38,281l-.46-10-.08-1.71a28.28,28.28,0,0,0,5.48-4.2l11.16,3.47,4.61-8.06.79-1.36Zm-24.76,6.37a14,14,0,1,1,9.85-17.22A14,14,0,0,1,302.47,257.64Z"/>
          <path class="cls-3" d="M447.09,269.71l2.39-14.39-14.57-5.86a38.44,38.44,0,0,0-2.09-9l10.49-11.68-8.5-11.87-14.46,6.14a38.33,38.33,0,0,0-7.81-4.85l-.84-15.69-14.41-2.38-5.9,14.51a40.37,40.37,0,0,0-8.94,2.1l-11.72-10.48-11.85,8.49L365,229.22a39.06,39.06,0,0,0-4.39,6.8c-.16.34-.33.67-.49,1l-15.68.87-2.38,14.38,2.36.95,12.21,4.92a37.8,37.8,0,0,0,2.08,9l-10.48,11.71,8.49,11.86,14.46-6.16a37.37,37.37,0,0,0,7.8,4.88l.81,15.62,14.39,2.38L400.1,293a38.26,38.26,0,0,0,9-2.1l11.69,10.49,11.87-8.5-6.15-14.46a37.41,37.41,0,0,0,4.93-7.85Zm-40.37-.64a18.85,18.85,0,1,1,4.34-26.3A18.85,18.85,0,0,1,406.72,269.07Z"/>
        </g>
        <g>
          <g>
            <g>
              <rect class="cls-6" x="124.57" y="163.13" width="141.6" height="185.13" rx="14.19"/>
              <path class="cls-3" d="M252,348.86H138.76A14.81,14.81,0,0,1,124,334.07V177.32a14.8,14.8,0,0,1,14.79-14.79H252a14.81,14.81,0,0,1,14.79,14.79V334.07A14.81,14.81,0,0,1,252,348.86ZM138.76,163.72a13.61,13.61,0,0,0-13.6,13.6V334.07a13.61,13.61,0,0,0,13.6,13.59H252a13.6,13.6,0,0,0,13.59-13.59V177.32A13.61,13.61,0,0,0,252,163.72Z"/>
            </g>
            <rect class="cls-5" x="124.57" y="163.13" width="141.6" height="185.13" rx="14.19"/>
            <g>
              <g>
                <path class="cls-1" d="M279.34,191.3V348.05a14.19,14.19,0,0,1-14.2,14.2H151.93a14.19,14.19,0,0,1-14.18-14.2V191.3a14.19,14.19,0,0,1,14.18-14.19H265.14A14.19,14.19,0,0,1,279.34,191.3Z"/>
                <path class="cls-3" d="M265.14,362.85H151.93a14.81,14.81,0,0,1-14.78-14.8V191.3a14.8,14.8,0,0,1,14.78-14.78H265.14a14.81,14.81,0,0,1,14.8,14.78V348.05A14.82,14.82,0,0,1,265.14,362.85ZM151.93,177.71a13.6,13.6,0,0,0-13.58,13.59V348.05a13.6,13.6,0,0,0,13.58,13.6H265.14a13.62,13.62,0,0,0,13.61-13.6V191.3a13.62,13.62,0,0,0-13.61-13.59Z"/>
              </g>
              <path class="cls-7" d="M279.34,191.3v8.4H137.75v-8.4a14.19,14.19,0,0,1,14.18-14.19H265.14A14.19,14.19,0,0,1,279.34,191.3Z"/>
              <rect class="cls-5" x="151.06" y="209.42" width="34.84" height="5.84"/>
              <rect class="cls-5" x="151.06" y="261.8" width="34.84" height="5.84"/>
              <rect class="cls-5" x="151.06" y="309.31" width="34.84" height="5.84"/>
              <g>
                <rect class="cls-3" x="151.06" y="223.89" width="98.94" height="4.29"/>
                <rect class="cls-3" x="151.06" y="232.09" width="81.1" height="4.18"/>
                <rect class="cls-3" x="151.06" y="240.15" width="91.72" height="4.18"/>
                <rect class="cls-3" x="151.06" y="248.21" width="91.72" height="4.18"/>
              </g>
              <g>
                <rect class="cls-3" x="151.06" y="271.39" width="98.94" height="4.29"/>
                <rect class="cls-3" x="151.06" y="279.59" width="81.1" height="4.18"/>
                <rect class="cls-3" x="151.06" y="287.66" width="91.72" height="4.18"/>
              </g>
              <g>
                <rect class="cls-3" x="151.06" y="323.55" width="98.94" height="4.29"/>
                <rect class="cls-3" x="151.06" y="331.76" width="81.1" height="4.18"/>
                <rect class="cls-3" x="151.06" y="339.82" width="91.72" height="4.18"/>
              </g>
            </g>
          </g>
          <g>
            <g>
              <path class="cls-1" d="M438.92,68.43v63.35A16.92,16.92,0,0,1,422,148.7H276.08a16.92,16.92,0,0,1-16.92-16.92V68.43a16.94,16.94,0,0,1,16.92-16.94H422A16.93,16.93,0,0,1,438.92,68.43Z"/>
              <path class="cls-8" d="M422,149.3H276.08a17.54,17.54,0,0,1-17.52-17.52V68.43A17.54,17.54,0,0,1,276.08,50.9H422a17.54,17.54,0,0,1,17.52,17.53v63.35A17.54,17.54,0,0,1,422,149.3ZM276.08,52.09a16.36,16.36,0,0,0-16.33,16.34v63.35a16.35,16.35,0,0,0,16.33,16.32H422a16.34,16.34,0,0,0,16.33-16.32V68.43A16.35,16.35,0,0,0,422,52.09Z"/>
            </g>
            <path class="cls-7" d="M438.92,68.43v1.44H259.16V68.43a16.94,16.94,0,0,1,16.92-16.94H422A16.93,16.93,0,0,1,438.92,68.43Z"/>
            <path class="cls-3" d="M285.56,63.71a2.59,2.59,0,1,1,0-3.67A2.59,2.59,0,0,1,285.56,63.71Z"/>
            <path class="cls-3" d="M297.6,63.71a2.59,2.59,0,1,1,0-3.67A2.59,2.59,0,0,1,297.6,63.71Z"/>
            <path class="cls-3" d="M309.64,63.71a2.6,2.6,0,1,1,0-3.67A2.6,2.6,0,0,1,309.64,63.71Z"/>
            <path class="cls-3" d="M329.38,132.91H324.6a.6.6,0,0,1-.6-.6.59.59,0,0,1,.6-.59h4.78a.59.59,0,0,1,.6.59A.6.6,0,0,1,329.38,132.91Zm-9.56,0h-4.77a.6.6,0,0,1-.6-.6.59.59,0,0,1,.6-.59h4.77a.59.59,0,0,1,.6.59A.6.6,0,0,1,319.82,132.91Zm-9.55,0h-4.78a.59.59,0,0,1-.59-.6.58.58,0,0,1,.59-.59h4.78a.59.59,0,0,1,.6.59A.6.6,0,0,1,310.27,132.91Zm-9.55,0h-4.78a.6.6,0,0,1-.6-.6.59.59,0,0,1,.6-.59h4.78a.58.58,0,0,1,.59.59A.59.59,0,0,1,300.72,132.91Zm-9.56,0h-4.77a.6.6,0,0,1-.6-.6.59.59,0,0,1,.6-.59h4.77a.59.59,0,0,1,.6.59A.6.6,0,0,1,291.16,132.91Zm-9.55,0h-4.78a.59.59,0,0,1-.59-.6.58.58,0,0,1,.59-.59h4.78a.59.59,0,0,1,.6.59A.6.6,0,0,1,281.61,132.91Zm-9.55,0h-1.44a.6.6,0,0,1-.6-.6V129a.6.6,0,0,1,1.2,0v2.74h.84a.58.58,0,0,1,.59.59A.59.59,0,0,1,272.06,132.91Zm57.32-4.15a.6.6,0,0,1-.6-.6v-4.77a.6.6,0,0,1,1.2,0v4.77A.6.6,0,0,1,329.38,128.76Zm-58.76-4a.6.6,0,0,1-.6-.6v-4.78a.6.6,0,0,1,1.2,0v4.78A.6.6,0,0,1,270.62,124.8Zm58.76-5.59a.6.6,0,0,1-.6-.6v-4.78a.6.6,0,0,1,1.2,0v4.78A.6.6,0,0,1,329.38,119.21Zm-58.76-4a.59.59,0,0,1-.6-.59v-4.78a.6.6,0,0,1,1.2,0v4.78A.59.59,0,0,1,270.62,115.24Zm58.76-5.59a.59.59,0,0,1-.6-.59v-4.78a.6.6,0,0,1,1.2,0v4.78A.59.59,0,0,1,329.38,109.65Zm-58.76-4a.6.6,0,0,1-.6-.6v-4.77a.6.6,0,0,1,1.2,0v4.77A.6.6,0,0,1,270.62,105.69Zm58.76-5.59a.6.6,0,0,1-.6-.6V94.73a.6.6,0,0,1,1.2,0V99.5A.6.6,0,0,1,329.38,100.1Zm-58.76-4a.6.6,0,0,1-.6-.6V90.76a.6.6,0,0,1,1.2,0v4.78A.6.6,0,0,1,270.62,96.14Zm58.76-5.59a.6.6,0,0,1-.6-.6V85.17a.6.6,0,0,1,1.2,0V90A.6.6,0,0,1,329.38,90.55Zm-58.76-4A.59.59,0,0,1,270,86V81.52a.59.59,0,0,1,.6-.59h.31a.59.59,0,0,1,.6.59.61.61,0,0,1-.31.53V86A.59.59,0,0,1,270.62,86.58Zm57.63-4.46h-4.77a.6.6,0,0,1-.6-.6.59.59,0,0,1,.6-.59h4.77a.59.59,0,0,1,.6.59A.6.6,0,0,1,328.25,82.12Zm-9.55,0h-4.78a.6.6,0,0,1-.6-.6.59.59,0,0,1,.6-.59h4.78a.59.59,0,0,1,.6.59A.6.6,0,0,1,318.7,82.12Zm-9.55,0h-4.78a.6.6,0,0,1-.6-.6.59.59,0,0,1,.6-.59h4.78a.58.58,0,0,1,.59.59A.59.59,0,0,1,309.15,82.12Zm-9.56,0h-4.77a.6.6,0,0,1-.6-.6.59.59,0,0,1,.6-.59h4.77a.59.59,0,0,1,.6.59A.6.6,0,0,1,299.59,82.12Zm-9.55,0h-4.78a.6.6,0,0,1-.6-.6.59.59,0,0,1,.6-.59H290a.59.59,0,0,1,.6.59A.6.6,0,0,1,290,82.12Zm-9.56,0h-4.77a.6.6,0,0,1-.6-.6.59.59,0,0,1,.6-.59h4.77a.59.59,0,0,1,.6.59A.6.6,0,0,1,280.48,82.12Z"/>
            <g>
              <rect class="cls-3" x="338.44" y="81.52" width="67.62" height="3.57"/>
              <rect class="cls-3" x="338.44" y="88.92" width="51.87" height="3.57"/>
              <rect class="cls-3" x="338.44" y="96.27" width="77.24" height="3.61"/>
              <rect class="cls-3" x="338.44" y="103.46" width="65.77" height="3.61"/>
            </g>
          </g>
        </g>
        <g>
          <path class="cls-9" d="M353.5,436.69s-31.4,9-35.78,10.55c-4,1.41-14.79,5.2-22.9,4a18.67,18.67,0,0,1-2.32-.5c-8.22-2.45-11.91-4.73-13-9.9s3-9,7-11.41,25.32-5,25.32-5L317,426h0Z"/>
          <path class="cls-1" d="M294.82,451.27a18.67,18.67,0,0,1-2.32-.5c-8.22-2.45-11.91-4.73-13-9.9s3-9,7-11.41,25.32-5,25.32-5L317,426c-4.67,2.15-22.08,3.34-25.88,5.53s-5.64,6.3-3.39,11.87C288.87,446.36,292.07,449.22,294.82,451.27Z"/>
          <path class="cls-3" d="M298.62,451.86c-6.86,0-13.39-1.65-16.78-5.95s-3.23-8.06-2.43-10.37a11.79,11.79,0,0,1,8.38-7.12c6.52-1.58,19.42-4,26.44-3a.6.6,0,1,1-.17,1.18c-6.83-.95-19.56,1.44-26,3a10.55,10.55,0,0,0-7.53,6.35c-1,2.91-.23,6.11,2.24,9.24,5.87,7.46,23.08,6.35,32.84,2.26,9.28-3.88,32.77-10,33-10a.59.59,0,0,1,.3,1.15c-.24.06-23.65,6.15-32.85,10A47.92,47.92,0,0,1,298.62,451.86Z"/>
          <path class="cls-3" d="M295.29,451.44a.6.6,0,0,1-.29-.08c-.12-.07-12.42-6.95-8.27-16.56,1.94-4.48,9-5.58,15.79-6.64,4.13-.65,8.4-1.31,11.37-2.71a.6.6,0,0,1,.8.29.59.59,0,0,1-.29.79c-3.13,1.47-7.48,2.15-11.7,2.81-6.49,1-13.2,2.05-14.87,5.94-3.72,8.61,7.63,15,7.75,15a.6.6,0,0,1,.23.82A.6.6,0,0,1,295.29,451.44Z"/>
          <path class="cls-9" d="M449.12,452.72c-.32,3.22-1.46,6.3-4.71,8.21-2.16,1.28-5.24,2-9.65,2-11-.14-31.7-8-31.7-8L383.68,444.2l10.08-16,2.75-4.37,7.13,1.6s5.9,3.35,11.84,6,20.34,3.22,25.41,7.33S449.67,447.37,449.12,452.72Z"/>
          <path class="cls-1" d="M449.12,452.72c-.32,3.22-1.46,6.3-4.71,8.21a14.53,14.53,0,0,0-.55-9.68c-2.15-4.86-9.2-9.14-18.47-9.86s-16.36-5.05-20.07-7c-2.91-1.5-9-4.78-11.56-6.16l2.75-4.37,7.13,1.6s5.9,3.35,11.84,6,20.34,3.22,25.41,7.33S449.67,447.37,449.12,452.72Z"/>
          <path class="cls-3" d="M436.58,463.52a27.46,27.46,0,0,1-3.32-.23,122.51,122.51,0,0,1-45.59-15.57.6.6,0,0,1,.6-1,121.07,121.07,0,0,0,45.14,15.42c3.24.39,7.25.53,9.47-2a6.76,6.76,0,0,0,1.48-5.09c-.44-5.05-4.85-8.68-8.84-10.39A47.47,47.47,0,0,0,425.43,442c-1.43-.26-2.9-.53-4.33-.85A57.79,57.79,0,0,1,407,436c-.75-.39-1.5-.8-2.25-1.21a31.51,31.51,0,0,0-8.36-3.6c-3.36-.71-7.9,0-9.89,3.28a.6.6,0,0,1-.83.19.59.59,0,0,1-.19-.82c2.31-3.78,7.27-4.64,11.16-3.82a32.61,32.61,0,0,1,8.68,3.72c.75.41,1.49.82,2.23,1.21A56.77,56.77,0,0,0,421.36,440c1.41.32,2.87.59,4.28.85A48.32,48.32,0,0,1,436,443.55c4.31,1.85,9.08,5.82,9.56,11.39a8,8,0,0,1-1.78,6C442,463,439.25,463.52,436.58,463.52Z"/>
          <path class="cls-3" d="M442,462.48a.61.61,0,0,1-.53-.33.6.6,0,0,1,.26-.8,12.31,12.31,0,0,0,6.77-8.72c.61-4.09-1.55-8.69-5.5-11.72s-8.65-4.22-12.87-5.1c-1.06-.22-2.12-.42-3.18-.62a60.46,60.46,0,0,1-10.72-2.74c-1.83-.72-3.67-1.63-5.45-2.51-5-2.47-9.77-4.82-14.72-3.5a.59.59,0,0,1-.73-.42.6.6,0,0,1,.42-.73c5.4-1.43,10.56,1.12,15.56,3.58,1.75.87,3.57,1.77,5.35,2.46A59.7,59.7,0,0,0,427.21,434c1.06.2,2.13.4,3.19.62,4.36.91,9.35,2.25,13.35,5.32,4.3,3.29,6.64,8.34,6,12.85a13.53,13.53,0,0,1-7.4,9.6A.58.58,0,0,1,442,462.48Z"/>
          <path class="cls-9" d="M409.84,279.5,377.05,267l-.41-.16s.12-.87.22-2.14c.2-2.61.31-6.88-.92-8.32-1.83-2.14-7-.35-12.06-2.66s-14.4,1.82-14.4,1.82-6.75-1.24-9.73,3.63c-1.51,3.93-1,9.78-1,9.78s-.21.09-.62.23c-3.9,1.46-25.16,9.46-29.66,12.67-5,3.52-10.46,39.65-12.23,50.25s-4.91,20.17-3.31,23.83,24.44,21.23,37.57,25.77,59.75,3.21,59.75,3.21.76-.2,2.11-.63c7.88-2.53,35.85-13,50.68-37.55C443.05,346.75,428.69,299.63,409.84,279.5Zm-88.59,60.76c-2.42,1.7-1.13,8.33-1.13,8.33L316,345l10.31-25.34,4.39,19.45S323.66,338.56,321.25,340.26Zm82.44,16.09c-1.13.59,3.26-11.59,1.17-14.35s-8.35-2.5-8.35-2.5l.54-3.33c.07-.37,3.72-19.05,3.72-19.05l1.23-1.46s12.75,21.86,15,29.56C417,345.22,403.13,356.35,403.69,356.35Z"/>
          <path class="cls-1" d="M347.93,200.46l-16.93,18s-2.33,2.06-1.4,7.27,3.08,9.69,4.72,10a22.79,22.79,0,0,0,3.91.35s3.63,7.86,6.2,10.95c0,0,.9,12.13.42,15.5,0,0,6.08,5.31,11.81,6s14.57-8.1,14.57-8.1l2.2-10.74s5.19-7.89,5.54-10,2.73-1.57,3.9-2.6,3.86-5.66,4.31-10,.47-9.4-4.61-7.92c-4.4-1.18-1.64-10.49-1.64-10.49l-7.74-6.83Z"/>
          <path class="cls-10" d="M377.05,267a16.63,16.63,0,0,1-.87,2c-2.8,5.27-15,15.3-15,15.3L357.54,273l-2,11.31c-4.06-1.77-16.45-12.5-16.45-12.5s-.41-1-.93-2.57c.41-.14.62-.23.62-.23s-.52-5.85,1-9.78c3-4.87,9.73-3.63,9.73-3.63s9.35-4.14,14.4-1.82,10.23.52,12.06,2.66.7,10.46.7,10.46Z"/>
          <path class="cls-11" d="M409.84,279.5,377.05,267l-.41-.16s.12-.87.22-2.14l-.68,4.25-4.85,6.6a131,131,0,0,1,15.13,6.67,13.27,13.27,0,0,1,7,13.25l-6,51.69-2.47,29.35,7.47,7.77c7.88-2.53,35.85-13,50.68-37.55C443.05,346.75,428.69,299.63,409.84,279.5Zm-6.15,76.85c-1.13.59,3.26-11.59,1.17-14.35s-8.35-2.5-8.35-2.5l.54-3.33c.07-.37,3.72-19.05,3.72-19.05l1.23-1.46s12.75,21.86,15,29.56C417,345.22,403.13,356.35,403.69,356.35Z"/>
          <path class="cls-11" d="M332.94,342l-5.1-17s-9.15-31.18-15.41-38.87L314.07,308s-5.38,26.2-10.36,34-6,9.72,0,9.72,20.78,11.74,20.78,11.74l-1.13-9.79Zm-12.82,6.59L316,345l10.31-25.34,4.39,19.45s-7-.52-9.46,1.18S320.12,348.59,320.12,348.59Z"/>
          <path class="cls-3" d="M344.43,261h-.13a.6.6,0,0,1-.45-.71c.91-4.06,0-13.11,0-13.2a.58.58,0,0,1,.53-.65.59.59,0,0,1,.65.53c0,.38.94,9.33,0,13.58A.6.6,0,0,1,344.43,261Z"/>
          <path class="cls-3" d="M372.17,259.79a.6.6,0,0,1-.6-.59,39.89,39.89,0,0,1,1-8.93.6.6,0,0,1,1.16.29,39.25,39.25,0,0,0-1,8.63.59.59,0,0,1-.59.6Z"/>
          <path class="cls-3" d="M358.46,258.73a9.74,9.74,0,0,1-7.34-2.82c-3.12-3.11-6.22-7.35-10.14-12.72l-.76-1c-4.36-6-3.43-18.54-3.39-19.08a.61.61,0,0,1,.64-.54.59.59,0,0,1,.55.64c0,.12-.93,12.67,3.17,18.27l.75,1c3.89,5.33,7,9.54,10,12.59s7.08,2.84,12.28,1.69c4.73-1,14.64-13.47,14.5-19.5-.13-5.33.18-10.75.45-15.54l.12-2.19c.27-5-5.09-11.78-5.15-11.85a.6.6,0,1,1,.94-.74c.23.29,5.69,7.22,5.4,12.66l-.12,2.19c-.27,4.76-.57,10.16-.45,15.44.15,6.57-10.26,19.55-15.43,20.7A28.79,28.79,0,0,1,358.46,258.73Z"/>
          <path class="cls-3" d="M360.72,244.06a.58.58,0,0,1-.45-.21.59.59,0,0,1,.06-.84,6.25,6.25,0,0,1,1.33-.83c.25-.13.5-.26.74-.41.45-.29.94-.8.87-1.31s-.45-.76-.9-1.16c-.19-.16-.38-.33-.55-.5-1.34-1.36-1.56-3.36-1.6-5a29.5,29.5,0,0,1,.44-5.94.6.6,0,0,1,1.18.21,28.55,28.55,0,0,0-.43,5.69c0,1.38.21,3.09,1.26,4.15.15.15.31.3.48.44a3.15,3.15,0,0,1,1.31,1.9,2.63,2.63,0,0,1-1.42,2.47c-.26.17-.55.32-.83.47a5.37,5.37,0,0,0-1.1.67A.58.58,0,0,1,360.72,244.06Z"/>
          <path class="cls-3" d="M358.62,249.75h-.09c-5.92-.93-6.67-5.32-6.7-5.51a.59.59,0,0,1,.5-.68.58.58,0,0,1,.68.49h0c0,.16.67,3.73,5.7,4.52a.59.59,0,0,1,.5.68A.6.6,0,0,1,358.62,249.75Z"/>
          <path class="cls-3" d="M353,231.18c0,1.2-.52,2.17-1.16,2.17s-1.15-1-1.15-2.17.51-2.17,1.15-2.17S353,230,353,231.18Z"/>
          <path class="cls-3" d="M369.57,231.7c0,1.2-.52,2.17-1.15,2.17s-1.16-1-1.16-2.17.52-2.17,1.16-2.17S369.57,230.5,369.57,231.7Z"/>
          <path class="cls-3" d="M376.18,228.27a1.19,1.19,0,0,1-.95-.48,5.24,5.24,0,0,0-3.7-2.36c-2.36-.17-4.44,1.85-4.46,1.87a1.2,1.2,0,0,1-1.69-1.69c.12-.12,2.84-2.79,6.3-2.56a7.48,7.48,0,0,1,5.45,3.3,1.19,1.19,0,0,1-.23,1.67A1.17,1.17,0,0,1,376.18,228.27Z"/>
          <path class="cls-3" d="M346,227.75a1.2,1.2,0,0,1-.69-2.17c4.95-3.52,9-1.42,10.39.18a1.19,1.19,0,0,1-.1,1.69,1.21,1.21,0,0,1-1.68-.09c-.28-.32-2.9-2.91-7.23.17A1.18,1.18,0,0,1,346,227.75Z"/>
          <path class="cls-3" d="M344.85,252.09s3.3,9.1,10.67,11.68S372.68,253,372.68,253l-.51-1.74s-6.42,8.33-13.55,6.91S344.43,247,344.43,247Z"/>
          <path class="cls-3" d="M336.08,236.69a4.81,4.81,0,0,1-2.1-.44,3.63,3.63,0,0,1-1.87-2.19c-.15-.43-.34-.95-.56-1.54-1.61-4.36-4.31-11.65-.94-14.55a3.12,3.12,0,0,1,2.86-.81c2.61.64,4.34,4.83,4.41,5a.6.6,0,0,1-1.11.45c-.43-1.06-1.91-3.89-3.58-4.3a2,2,0,0,0-1.8.56c-2.74,2.35-.13,9.43,1.28,13.23.22.6.42,1.13.57,1.56a2.46,2.46,0,0,0,1.26,1.51,5.34,5.34,0,0,0,3.54,0,.59.59,0,1,1,.39,1.12A7.41,7.41,0,0,1,336.08,236.69Z"/>
          <path class="cls-3" d="M380.37,238.3a5.71,5.71,0,0,1-1.16-.11.6.6,0,0,1,.23-1.17c.15,0,3.59.67,4.57-2.21.15-.44.35-1,.57-1.57,1.41-3.8,4-10.87,1.28-13.22a1.94,1.94,0,0,0-1.8-.56c-1.67.4-3.15,3.24-3.58,4.29a.59.59,0,0,1-.78.33.6.6,0,0,1-.33-.77c.07-.18,1.8-4.38,4.41-5a3.12,3.12,0,0,1,2.86.81c3.37,2.89.67,10.19-.94,14.55-.22.58-.41,1.11-.56,1.54A4.72,4.72,0,0,1,380.37,238.3Z"/>
          <path class="cls-3" d="M337.32,231.18a6.1,6.1,0,0,0,3.86-2.28,9.65,9.65,0,0,0,1.12-3.45,41.79,41.79,0,0,0,.61-7,9.11,9.11,0,0,1,.25-2.71,6.79,6.79,0,0,1,1.47-2.42c1.53-1.8,3.38-3.32,4.83-5.18a8.63,8.63,0,0,0,2.14-6.54,29.7,29.7,0,0,0,24.33,6.29c7.73-1.51,15.15-8.3,14.25-16.83a6.9,6.9,0,0,0-5.45-5.94c-3.82-1-7.26,1.09-10.72,2.4-6.31,2.38-12.49-1.71-18.87-2.4-5.46-.58-12.15.09-15,5.52,0,0-9.8,1.15-14.1,9.2s3.87,19.19,3.87,19.19,3.29-4,7.51,4.07Z"/>
          <path class="cls-3" d="M375.25,205.25s-2.54,13.21,4.08,19.6c0,0,1.44-4,2.91-4.94a15.31,15.31,0,0,0-1.16-14.66C376.24,197.57,375.25,205.25,375.25,205.25Z"/>
          <path class="cls-4" d="M336.21,211.29h0a.59.59,0,0,1-.55-.64,15.32,15.32,0,0,1,5.6-10.34,15.72,15.72,0,0,1,11.36-4,77.5,77.5,0,0,1,8.25,1.34c6.43,1.27,12.49,2.48,18.76-.07a11.8,11.8,0,0,0,7.19-7.48.61.61,0,0,1,.74-.43.62.62,0,0,1,.42.74,13,13,0,0,1-7.9,8.27c-6.6,2.69-13.13,1.39-19.44.14a76.49,76.49,0,0,0-8.13-1.32A14.78,14.78,0,0,0,342,201.22a14.14,14.14,0,0,0-5.18,9.51A.61.61,0,0,1,336.21,211.29Z"/>
          <path class="cls-4" d="M330.51,209.26h0a.6.6,0,0,1-.59-.61A16.67,16.67,0,0,1,340.06,194a.59.59,0,1,1,.45,1.1,15.45,15.45,0,0,0-9.4,13.62A.61.61,0,0,1,330.51,209.26Z"/>
          <path class="cls-3" d="M356.61,269.57a.52.52,0,0,1-.21,0,42.12,42.12,0,0,1-14.53-9.93.61.61,0,0,1,0-.85.6.6,0,0,1,.84,0,41.78,41.78,0,0,0,13.88,9.56c1.46-.47,11.07-3.71,16.08-10.57a.59.59,0,1,1,1,.7c-5.65,7.74-16.44,10.94-16.89,11.07A.5.5,0,0,1,356.61,269.57Z"/>
          <path class="cls-3" d="M349.48,241.5a10.32,10.32,0,1,1,10.32-10.32A10.34,10.34,0,0,1,349.48,241.5Zm0-19.45a9.13,9.13,0,1,0,9.12,9.13A9.14,9.14,0,0,0,349.48,222.05Z"/>
          <path class="cls-3" d="M371.2,241.5a10.32,10.32,0,1,1,10.33-10.32A10.33,10.33,0,0,1,371.2,241.5Zm0-19.45a9.13,9.13,0,1,0,9.13,9.13A9.14,9.14,0,0,0,371.2,222.05Z"/>
          <path class="cls-3" d="M361.22,284.86a.64.64,0,0,1-.2,0,.6.6,0,0,1-.38-.41l-2.76-10-1.77,9.95a.59.59,0,0,1-.32.43.58.58,0,0,1-.53,0c-7.57-3.71-16.24-12.25-16.61-12.61a.58.58,0,0,1-.17-.36c-.05-.4-1-9.77.75-12.93a8.21,8.21,0,0,1,5.08-3.92.6.6,0,0,1,.7.47.59.59,0,0,1-.46.7,7.13,7.13,0,0,0-4.28,3.34c-1.3,2.29-.91,9.24-.63,12,1.16,1.12,8.74,8.36,15.43,11.88l2.09-11.76a.61.61,0,0,1,.56-.49.59.59,0,0,1,.61.44l3.23,11.71c2.54-1.88,11.3-8.67,14-14.46.29-2.31.83-8.41,0-10.46a3.13,3.13,0,0,0-2.91-2.18.58.58,0,0,1-.63-.57.61.61,0,0,1,.57-.63,4.29,4.29,0,0,1,4.08,2.94c1.1,2.79.08,10.8,0,11.14a1.21,1.21,0,0,1,0,.18c-3.27,7.06-14.67,15.18-15.16,15.52A.53.53,0,0,1,361.22,284.86Z"/>
          <path class="cls-3" d="M330.51,340.1a.59.59,0,0,1-.59-.51c0-.23-3.51-23.28-8-32.59a.59.59,0,0,1,.28-.79.58.58,0,0,1,.79.27c4.61,9.47,8,32,8.15,32.94a.6.6,0,0,1-.5.68Z"/>
          <path class="cls-3" d="M319.61,298.71a.6.6,0,0,1-.54-.34,94.6,94.6,0,0,0-7.13-11.94.6.6,0,1,1,1-.69,94.65,94.65,0,0,1,7.24,12.12.59.59,0,0,1-.28.79A.58.58,0,0,1,319.61,298.71Z"/>
          <path class="cls-3" d="M403.69,304.05a.39.39,0,0,1-.15,0,.58.58,0,0,1-.42-.72A65.71,65.71,0,0,1,407,291.84a.59.59,0,0,1,.79-.28.61.61,0,0,1,.28.8,66.44,66.44,0,0,0-3.78,11.25A.59.59,0,0,1,403.69,304.05Z"/>
          <path class="cls-3" d="M396.51,340.1h-.09a.6.6,0,0,1-.5-.69c0-.16,2.55-16.12,5.5-29.14a.6.6,0,1,1,1.16.27c-2.94,13-5.45,28.9-5.48,29.06A.59.59,0,0,1,396.51,340.1Z"/>
          <path class="cls-3" d="M400.76,317.72a.62.62,0,0,1-.36-.12.61.61,0,0,1-.12-.84,19,19,0,0,1,10-6.84.61.61,0,0,1,.74.42.59.59,0,0,1-.42.73,17.69,17.69,0,0,0-9.36,6.41A.63.63,0,0,1,400.76,317.72Z"/>
          <path class="cls-3" d="M397.36,382.32a.6.6,0,0,1-.16-1.17c27.88-7.91,43.56-31.87,45.19-34.47-16.24-49.23-31.58-65.37-32.87-66.66-12.89-4.54-32.89-12.52-33.09-12.61a.59.59,0,1,1,.44-1.1c.2.08,20.31,8.1,33.18,12.62a.92.92,0,0,1,.21.13c.16.15,16.33,15.77,33.35,67.51a.57.57,0,0,1-.05.49c-.16.26-16.21,26.78-46,35.24Z"/>
          <path class="cls-3" d="M402.56,357.9a.61.61,0,0,1-.46-.22.6.6,0,0,1,.08-.84l14.47-12.08c.34-.26,8.06-6,16.26-1.91a.6.6,0,0,1,.26.8.59.59,0,0,1-.8.27c-7.52-3.76-14.91,1.72-15,1.78l-14.45,12.06A.59.59,0,0,1,402.56,357.9Z"/>
          <path class="cls-3" d="M417,345.82a.6.6,0,0,1-.58-.45c-3-11.7-14.82-29.2-14.94-29.38a.58.58,0,0,1,.16-.82.58.58,0,0,1,.82.15c.13.18,12.07,17.85,15.12,29.75a.6.6,0,0,1-.43.73Z"/>
          <path class="cls-3" d="M320.25,349.86a.6.6,0,0,1-.41-.17l-4.09-3.9a19.82,19.82,0,0,0-12.8,3.6.61.61,0,0,1-.83-.16.6.6,0,0,1,.17-.83c7.23-4.85,13.57-3.81,13.83-3.77a.58.58,0,0,1,.31.16l4.23,4a.6.6,0,0,1-.41,1Z"/>
          <path class="cls-3" d="M316,345.82a.47.47,0,0,1-.17,0,.59.59,0,0,1-.4-.74c.05-.17,5.34-17.44,10.5-26.32a.6.6,0,0,1,1,.6c-5.09,8.76-10.34,25.89-10.39,26.07A.6.6,0,0,1,316,345.82Z"/>
          <path class="cls-3" d="M326.46,380.83a.72.72,0,0,1-.28-.07c-8.87-4.69-34.12-19.65-33.83-26.69.25-6.12,10.92-67.9,14.09-71.43,2.91-3.24,30.92-13.78,32.11-14.22a.6.6,0,0,1,.77.35.6.6,0,0,1-.35.77c-8,3-29.38,11.38-31.64,13.9-2.66,3-13.53,64.21-13.79,70.68-.22,5.36,19.68,18.44,33.2,25.58a.6.6,0,0,1,.25.81A.6.6,0,0,1,326.46,380.83Z"/>
          <g>
            <rect class="cls-1" x="403.69" y="225.65" width="47.22" height="33.54" rx="7.07"/>
            <path class="cls-3" d="M443.84,259.79H410.76a7.68,7.68,0,0,1-7.66-7.67v-19.4a7.68,7.68,0,0,1,7.66-7.67h33.08a7.68,7.68,0,0,1,7.67,7.67v19.4A7.68,7.68,0,0,1,443.84,259.79Zm-33.08-33.54a6.47,6.47,0,0,0-6.47,6.47v19.4a6.48,6.48,0,0,0,6.47,6.48h33.08a6.48,6.48,0,0,0,6.47-6.48v-19.4a6.47,6.47,0,0,0-6.47-6.47Z"/>
          </g>
          <path class="cls-3" d="M418.27,249.51a.58.58,0,0,1-.39-.15l-8.43-7.47a.63.63,0,0,1-.2-.5.61.61,0,0,1,.28-.46l9.08-5.7a.6.6,0,0,1,.63,1l-8.4,5.27,7.83,6.95a.6.6,0,0,1,.05.84A.61.61,0,0,1,418.27,249.51Z"/>
          <path class="cls-3" d="M435.47,250.05a.57.57,0,0,1-.45-.21.59.59,0,0,1,.06-.84l7.56-6.44-8.76-5.73a.61.61,0,0,1-.17-.83.6.6,0,0,1,.83-.17L444,242a.67.67,0,0,1,.27.46.64.64,0,0,1-.21.5l-8.16,6.95A.62.62,0,0,1,435.47,250.05Z"/>
          <path class="cls-3" d="M423.34,254.33l-.18,0a.59.59,0,0,1-.39-.75l6.7-21a.6.6,0,0,1,1.14.36l-6.7,21A.6.6,0,0,1,423.34,254.33Z"/>
          <path class="cls-3" d="M360.46,289.55a1.91,1.91,0,1,1-1.91-1.9A1.9,1.9,0,0,1,360.46,289.55Z"/>
          <g>
            <path class="cls-3" d="M394.05,391.55H328a1.54,1.54,0,0,1-1.54-1.54h0a1.54,1.54,0,0,1,1.54-1.55h66.06A1.55,1.55,0,0,1,395.6,390h0A1.55,1.55,0,0,1,394.05,391.55Z"/>
            <g>
              <path class="cls-1" d="M396.36,386.42l8.85-41.57a4.42,4.42,0,0,0-4.32-5.34H323.71a4.42,4.42,0,0,0-4.34,5.28L327.31,385a4.42,4.42,0,0,0,4.23,3.57l60.39,1.38A4.42,4.42,0,0,0,396.36,386.42Z"/>
              <path class="cls-3" d="M392,390.52h-.12l-60.39-1.38a5,5,0,0,1-4.81-4.05l-7.94-40.19a5,5,0,0,1,4.93-6h77.18A5,5,0,0,1,405.8,345L397,386.55h0A5,5,0,0,1,392,390.52ZM323.71,340.1a3.82,3.82,0,0,0-3.75,4.57l7.93,40.19a3.8,3.8,0,0,0,3.67,3.08L392,389.32H392a3.84,3.84,0,0,0,3.75-3l8.85-41.57a3.83,3.83,0,0,0-3.74-4.63Zm72.65,46.32h0Z"/>
            </g>
            <path class="cls-3" d="M368.2,363.46A6.17,6.17,0,1,1,362,357.3,6.16,6.16,0,0,1,368.2,363.46Z"/>
            <path class="cls-3" d="M389.48,344.05h-9.17a.6.6,0,0,1,0-1.2h9.17a.6.6,0,0,1,0,1.2Z"/>
            <path class="cls-3" d="M371.32,344.05h-34.8a.6.6,0,0,1,0-1.2h34.8a.6.6,0,0,1,0,1.2Z"/>
          </g>
          <path class="cls-3" d="M396.51,430.52l-7,18.47s-17.94-4.52-40.93-9.24c-24-4.92-49.15-11.3-62.17-34.15-1.59-2.78-2.64-6.07-1.9-9.19,1.88-7.89,12.15-10,18.91-10.82a124.67,124.67,0,0,1,12.81-.72c2.18,0,9.37-1.18,11.11.1a50.85,50.85,0,0,0,8.35,4.95c3.84,1.63,59.94-1.46,59.94-1.46a19.89,19.89,0,0,0,1.76-6.74c8.82-4.48,29.24-8.28,37.87-6.6,13.56,2.64,21.48,10.55,20,18.84S423.75,424.49,396.51,430.52Z"/>
          <path class="cls-1" d="M396.51,431.12l-.15,0c-.17-.05-17.32-4.66-31.19-14-2.25-1.52-4.43-3.09-6.55-4.61-10.92-7.84-21.23-15.25-37.31-13.38a.6.6,0,0,1-.14-1.19c16.53-1.92,27,5.62,38.15,13.6,2.11,1.52,4.29,3.08,6.52,4.59,13.7,9.26,30.66,13.82,30.83,13.86a.61.61,0,0,1,.42.73A.6.6,0,0,1,396.51,431.12Z"/>
          <path class="cls-1" d="M362.3,415a.6.6,0,0,1-.17-1.17c7.62-2.19,13.42-6.75,19.56-11.58.86-.67,1.71-1.35,2.58-2,6.3-4.87,14.72-11.07,24-15.78a.61.61,0,0,1,.81.27.59.59,0,0,1-.27.8c-9.21,4.66-17.56,10.81-23.82,15.65l-2.57,2c-6.24,4.9-12.13,9.53-20,11.79Z"/>
          <path class="cls-3" d="M361.79,233.31H359.2a.59.59,0,0,1-.6-.59.6.6,0,0,1,.6-.6h2.59a.59.59,0,0,1,.59.6A.58.58,0,0,1,361.79,233.31Z"/>
        </g>
      </g>
      <g>
        <g>
          <circle class="cls-12" cx="234.18" cy="363.52" r="43.88"/>
          <path class="cls-13" d="M234.19,408.77a45.31,45.31,0,1,1,45.33-45.29h0A45.38,45.38,0,0,1,234.19,408.77Zm0-87.73a42.45,42.45,0,1,0,42.45,42.45A42.46,42.46,0,0,0,234.19,321Z"/>
        </g>
        <g>
          <path class="cls-14" d="M234,334.53c-14.8,0-13.86,6.42-13.86,6.42v6.64h14.12v2H214.54s-9.47-1.08-9.47,13.84,8.25,14.34,8.25,14.34h5v-6.9s-.26-8.25,8.12-8.25h14s7.86.13,7.86-7.6V342.24S249.45,334.53,234,334.53Zm-7.8,4.47a2.53,2.53,0,1,1-2.53,2.53h0A2.53,2.53,0,0,1,226.19,339Z"/>
          <path class="cls-15" d="M234.41,392.47c14.8,0,13.87-6.42,13.87-6.42v-6.63H234.19v-2h19.69s9.47,1.06,9.47-13.86-8.29-14.4-8.29-14.4h-4.94v6.93s.25,8.26-8.12,8.26H228s-7.86-.14-7.86,7.6v12.82s-1.22,7.74,14.25,7.7Zm7.74-4.46a2.54,2.54,0,1,1,2.54-2.54h0a2.52,2.52,0,0,1-2.51,2.53h0Z"/>
        </g>
      </g>
    </g>
  </g>
</svg>
